<svg xmlns="http://www.w3.org/2000/svg" xmlns:xlink="http://www.w3.org/1999/xlink" width="400" height="600"><symbol id="a"><g data-name="그룹 773"><g clip-path="url(#clip-path)" data-name="그룹 772"><path fill="#ec6500" d="M16.93 35.622A17.808 17.808 0 0 1 4.427 6.079a17.8 17.8 0 0 1 25.129-1.612l3.235 2.953a3.2 3.2 0 1 1-4.31 4.725l-3.195-2.913A11.408 11.408 0 0 0 9.23 10.3a11.409 11.409 0 1 0 17.133 15.07L45.289 3.99c.03-.034.062-.068.094-.1C48.574.59 55.417-2.41 61.2 2.882A3.2 3.2 0 0 1 56.884 7.6c-2.947-2.7-5.946-.21-6.868.7L31.16 29.6a17.83 17.83 0 0 1-14.23 6.022" data-name="패스 2974"/><path fill="#b20034" d="M81.159.02a17.809 17.809 0 0 1 12.5 29.546 17.807 17.807 0 0 1-25.129 1.611l-3.235-2.952a3.2 3.2 0 1 1 4.31-4.726l3.194 2.914a11.413 11.413 0 0 0 16.057-1.072 11.408 11.408 0 1 0-17.131-15.069l-18.926 21.38a2.328 2.328 0 0 1-.094.1c-3.191 3.3-10.034 6.3-15.817 1.009a3.2 3.2 0 0 1 4.317-4.722c2.945 2.7 5.946.21 6.868-.7l18.855-21.3a17.675 17.675 0 0 1 12.226-6A18.382 18.382 0 0 1 81.159.02" data-name="패스 2975"/><path fill="#2e2e2d" d="M119.467 1.764a1.763 1.763 0 1 0-3.526 0v2.491a4.424 4.424 0 0 0-2.726-.786q-3.874.012-3.874 5.145V17.7q0 5.144 5.056 5.144t5.07-5.144V1.764M115.943 17.7q0 1.656-1.545 1.657-1.53 0-1.531-1.657V8.614q0-1.66 1.545-1.658 1.517 0 1.531 1.644Z" data-name="패스 2976"/><path fill="#2e2e2d" d="M122.126 24.552a1.763 1.763 0 1 0 3.526 0v-2.493a4.426 4.426 0 0 0 2.728.786q3.872-.01 3.873-5.145V8.613q0-5.144-5.056-5.144t-5.071 5.144v15.939m3.524-15.939q0-1.661 1.545-1.661t1.531 1.657v9.086q0 1.66-1.545 1.66c-1.012 0-1.523-.55-1.531-1.644Z" data-name="패스 2977"/><path fill="#2e2e2d" d="M147.876 1.779V17.7q0 5.132 5.068 5.144t5.057-5.144V8.613q0-5.132-3.874-5.144a4.436 4.436 0 0 0-2.726.784v-2.49a1.763 1.763 0 1 0-3.526 0v.017m3.524 6.82q.012-1.644 1.531-1.644 1.544 0 1.545 1.657V17.7c0 1.1-.513 1.657-1.533 1.657s-1.544-.553-1.544-1.657Z" data-name="패스 2978"/><path fill="#2e2e2d" d="M145.195 5.188a1.762 1.762 0 0 0-3.524.012v12.5q0 1.658-1.545 1.657-1.53 0-1.531-1.657V5.2a1.763 1.763 0 0 0-3.522-.012V17.7q0 5.144 5.056 5.143t5.069-5.143V5.188Z" data-name="패스 2979"/><path fill="#2e2e2d" d="M156.369 31.837h1.173v1h-1.173v3.7h-1.163v-7.8h1.163Zm-4.186 2.531a3.768 3.768 0 0 1-2.259 1.657v-1.07c.9-.408 1.673-1.122 1.673-3.312v-2.8h1.165v2.8c0 2.19.773 2.9 1.672 3.312v1.073a3.833 3.833 0 0 1-2.249-1.657m-8.765-1.843a.848.848 0 0 0 .254.611.882.882 0 0 0 .6.212.859.859 0 0 0 .594-.212.86.86 0 0 0 0-1.223.865.865 0 0 0-.594-.212.889.889 0 0 0-.6.212.849.849 0 0 0-.254.612m-1.155 0a1.684 1.684 0 0 1 .661-1.385 2.223 2.223 0 0 1 1.351-.415 2.193 2.193 0 0 1 1.341.415 1.777 1.777 0 0 1 0 2.769 2.052 2.052 0 0 1-.755.347v.849h1.045a2.074 2.074 0 0 0 1.341-.323v-6.038h1.163v7.8h-1.163v-.808a2.376 2.376 0 0 1-1.562.383h-3.763v-1.015h1.775v-.849a1.892 1.892 0 0 1-.773-.347 1.683 1.683 0 0 1-.664-1.383m2.582-3.11h1.647v1h-4.441v-1h1.629v-.9h1.165Zm-5.741 5.224h-4.8v-1h5.961v3.031h-1.163Zm0-5.894h1.163v4.475h-1.163Zm-2.649 1.045a2.089 2.089 0 0 0 1.629 2.284v1.019a3.5 3.5 0 0 1-2.2-1.2 3.5 3.5 0 0 1-2.216 1.3v-1.035a2.2 2.2 0 0 0 1.622-2.369v-1h1.163Zm-10.868 3.835h6.93v1.012h-2.9v2.029h-1.154v-2.028h-2.876Zm.391-4.788h6.147v1.01h-2.5c.094 1.2 1.223 1.868 2.565 2.106v1.01a5.145 5.145 0 0 1-3.151-1.5 5.149 5.149 0 0 1-3.151 1.5v-1.01c1.333-.238 2.463-.908 2.557-2.106h-2.466Zm-6.725 6.793h3.549v-.645h-3.549Zm3.549-2.453h1.161v3.448h-5.874V33.18h1.164v.816h3.549Zm-1.1-2.939h1.1v-1.494h1.161v4.181h-1.161v-1.685h-1.1Zm-2.361 1.469h.8a5.019 5.019 0 0 0 .085-.968v-.914h-.884Zm1.843.977h-3.731v-.977h.747v-1.882h-.653v-.984h4.484v.984h-.668v.859a4.047 4.047 0 0 1-.119 1.027h.008a4.645 4.645 0 0 0 1.121-.094v.926a3.931 3.931 0 0 1-1.188.145m-8.1 3.337h-3.555v-7.146h3.838v1.012h-2.684v5.121h2.616a2.149 2.149 0 0 0 1.342-.314v-5.954h1.163v7.8h-1.163v-.9a2.382 2.382 0 0 1-1.563.382" data-name="패스 2980"/><g data-name="그룹 775"><g clip-path="url(#clip-path)" data-name="그룹 774" transform="translate(103.372 -46.864)"><path fill="#ef7d00" d="M16.93 35.622A17.808 17.808 0 0 1 4.427 6.079a17.8 17.8 0 0 1 25.129-1.612l3.235 2.953a3.2 3.2 0 1 1-4.31 4.725l-3.195-2.913A11.408 11.408 0 0 0 9.23 10.3a11.409 11.409 0 1 0 17.133 15.07L45.289 3.99c.03-.034.062-.068.094-.1C48.574.59 55.417-2.41 61.2 2.882A3.2 3.2 0 0 1 56.884 7.6c-2.947-2.7-5.946-.21-6.868.7L31.16 29.6a17.83 17.83 0 0 1-14.23 6.022" data-name="패스 2981"/><path fill="#c20344" d="M81.159.02a17.809 17.809 0 0 1 12.5 29.546 17.807 17.807 0 0 1-25.129 1.611l-3.235-2.952a3.2 3.2 0 1 1 4.31-4.726l3.194 2.914a11.413 11.413 0 0 0 16.057-1.072 11.408 11.408 0 1 0-17.131-15.069l-18.926 21.38a2.328 2.328 0 0 1-.094.1c-3.191 3.3-10.034 6.3-15.817 1.009a3.2 3.2 0 0 1 4.317-4.722c2.945 2.7 5.946.21 6.868-.7l18.855-21.3a17.675 17.675 0 0 1 12.226-6A18.382 18.382 0 0 1 81.159.02" data-name="패스 2982"/><path fill="#3c3c3b" d="M119.467 1.764a1.763 1.763 0 1 0-3.526 0v2.491a4.424 4.424 0 0 0-2.726-.786q-3.874.012-3.874 5.145V17.7q0 5.144 5.056 5.144t5.07-5.144V1.764M115.943 17.7q0 1.656-1.545 1.657-1.53 0-1.531-1.657V8.614q0-1.66 1.545-1.658 1.517 0 1.531 1.644Z" data-name="패스 2983"/><path fill="#3c3c3b" d="M122.126 24.552a1.763 1.763 0 1 0 3.526 0v-2.493a4.426 4.426 0 0 0 2.728.786q3.872-.01 3.873-5.145V8.613q0-5.144-5.056-5.144t-5.071 5.144v15.939m3.524-15.939q0-1.661 1.545-1.661t1.531 1.657v9.086q0 1.66-1.545 1.66c-1.012 0-1.523-.55-1.531-1.644Z" data-name="패스 2984"/><path fill="#3c3c3b" d="M147.876 1.779V17.7q0 5.132 5.068 5.144t5.057-5.144V8.613q0-5.132-3.874-5.144a4.436 4.436 0 0 0-2.726.784v-2.49a1.763 1.763 0 1 0-3.526 0v.017m3.524 6.82q.012-1.644 1.531-1.644 1.544 0 1.545 1.657V17.7c0 1.1-.513 1.657-1.533 1.657s-1.544-.553-1.544-1.657Z" data-name="패스 2985"/><path fill="#3c3c3b" d="M145.195 5.188a1.762 1.762 0 0 0-3.524.012v12.5q0 1.658-1.545 1.657-1.53 0-1.531-1.657V5.2a1.763 1.763 0 0 0-3.522-.012V17.7q0 5.144 5.056 5.143t5.069-5.143V5.188Z" data-name="패스 2986"/><path fill="#3c3c3b" d="M156.369 31.837h1.173v1h-1.173v3.7h-1.163v-7.8h1.163Zm-4.186 2.531a3.768 3.768 0 0 1-2.259 1.657v-1.07c.9-.408 1.673-1.122 1.673-3.312v-2.8h1.165v2.8c0 2.19.773 2.9 1.672 3.312v1.073a3.833 3.833 0 0 1-2.249-1.657m-8.765-1.843a.848.848 0 0 0 .254.611.882.882 0 0 0 .6.212.859.859 0 0 0 .594-.212.86.86 0 0 0 0-1.223.865.865 0 0 0-.594-.212.889.889 0 0 0-.6.212.849.849 0 0 0-.254.612m-1.155 0a1.684 1.684 0 0 1 .661-1.385 2.223 2.223 0 0 1 1.351-.415 2.193 2.193 0 0 1 1.341.415 1.777 1.777 0 0 1 0 2.769 2.052 2.052 0 0 1-.755.347v.849h1.045a2.074 2.074 0 0 0 1.341-.323v-6.038h1.163v7.8h-1.163v-.808a2.376 2.376 0 0 1-1.562.383h-3.763v-1.015h1.775v-.849a1.892 1.892 0 0 1-.773-.347 1.683 1.683 0 0 1-.664-1.383m2.582-3.11h1.647v1h-4.441v-1h1.629v-.9h1.165Zm-5.741 5.224h-4.8v-1h5.961v3.031h-1.163Zm0-5.894h1.163v4.475h-1.163Zm-2.649 1.045a2.089 2.089 0 0 0 1.629 2.284v1.019a3.5 3.5 0 0 1-2.2-1.2 3.5 3.5 0 0 1-2.216 1.3v-1.035a2.2 2.2 0 0 0 1.622-2.369v-1h1.163Zm-10.868 3.835h6.93v1.012h-2.9v2.029h-1.154v-2.028h-2.876Zm.391-4.788h6.147v1.01h-2.5c.094 1.2 1.223 1.868 2.565 2.106v1.01a5.145 5.145 0 0 1-3.151-1.5 5.149 5.149 0 0 1-3.151 1.5v-1.01c1.333-.238 2.463-.908 2.557-2.106h-2.466Zm-6.725 6.793h3.549v-.645h-3.549Zm3.549-2.453h1.161v3.448h-5.874V33.18h1.164v.816h3.549Zm-1.1-2.939h1.1v-1.494h1.161v4.181h-1.161v-1.685h-1.1Zm-2.361 1.469h.8a5.019 5.019 0 0 0 .085-.968v-.914h-.884Zm1.843.977h-3.731v-.977h.747v-1.882h-.653v-.984h4.484v.984h-.668v.859a4.047 4.047 0 0 1-.119 1.027h.008a4.645 4.645 0 0 0 1.121-.094v.926a3.931 3.931 0 0 1-1.188.145m-8.1 3.337h-3.555v-7.146h3.838v1.012h-2.684v5.121h2.616a2.149 2.149 0 0 0 1.342-.314v-5.954h1.163v7.8h-1.163v-.9a2.382 2.382 0 0 1-1.563.382" data-name="패스 2987"/></g></g></g></g></symbol><symbol id="c"><g data-name="그룹 838"><g clip-path="url(#clip-path)" data-name="그룹 772"><path fill="#c1c1c1" d="M16.93 35.622A17.808 17.808 0 0 1 4.427 6.079a17.8 17.8 0 0 1 25.129-1.612l3.235 2.953a3.2 3.2 0 1 1-4.31 4.725l-3.195-2.913A11.408 11.408 0 0 0 9.23 10.3a11.409 11.409 0 1 0 17.133 15.07L45.289 3.99c.03-.034.062-.068.094-.1C48.574.59 55.417-2.41 61.2 2.882A3.2 3.2 0 0 1 56.884 7.6c-2.947-2.7-5.946-.21-6.868.7L31.16 29.6a17.83 17.83 0 0 1-14.23 6.022" data-name="패스 2974"/><path fill="#c1c1c1" d="M81.159.02a17.809 17.809 0 0 1 12.5 29.546 17.807 17.807 0 0 1-25.129 1.611l-3.235-2.952a3.2 3.2 0 1 1 4.31-4.726l3.194 2.914a11.413 11.413 0 0 0 16.057-1.072 11.408 11.408 0 1 0-17.131-15.069l-18.926 21.38a2.328 2.328 0 0 1-.094.1c-3.191 3.3-10.034 6.3-15.817 1.009a3.2 3.2 0 0 1 4.317-4.722c2.945 2.7 5.946.21 6.868-.7l18.855-21.3a17.675 17.675 0 0 1 12.226-6A18.382 18.382 0 0 1 81.159.02" data-name="패스 2975"/><path fill="#c1c1c1" d="M119.467 1.764a1.763 1.763 0 1 0-3.526 0v2.491a4.424 4.424 0 0 0-2.726-.786q-3.874.012-3.874 5.145V17.7q0 5.144 5.056 5.144t5.07-5.144V1.764M115.943 17.7q0 1.656-1.545 1.657-1.53 0-1.531-1.657V8.614q0-1.66 1.545-1.658 1.517 0 1.531 1.644Z" data-name="패스 2976"/><path fill="#c1c1c1" d="M122.126 24.552a1.763 1.763 0 1 0 3.526 0v-2.493a4.426 4.426 0 0 0 2.728.786q3.872-.01 3.873-5.145V8.613q0-5.144-5.056-5.144t-5.071 5.144v15.939m3.524-15.939q0-1.661 1.545-1.661t1.531 1.657v9.086q0 1.66-1.545 1.66c-1.012 0-1.523-.55-1.531-1.644Z" data-name="패스 2977"/><path fill="#c1c1c1" d="M147.876 1.779V17.7q0 5.132 5.068 5.144t5.057-5.144V8.613q0-5.132-3.874-5.144a4.436 4.436 0 0 0-2.726.784v-2.49a1.763 1.763 0 1 0-3.526 0v.017m3.524 6.82q.012-1.644 1.531-1.644 1.544 0 1.545 1.657V17.7c0 1.1-.513 1.657-1.533 1.657s-1.544-.553-1.544-1.657Z" data-name="패스 2978"/><path fill="#c1c1c1" d="M145.195 5.188a1.762 1.762 0 0 0-3.524.012v12.5q0 1.658-1.545 1.657-1.53 0-1.531-1.657V5.2a1.763 1.763 0 0 0-3.522-.012V17.7q0 5.144 5.056 5.143t5.069-5.143V5.188Z" data-name="패스 2979"/><path fill="#c1c1c1" d="M156.369 31.837h1.173v1h-1.173v3.7h-1.163v-7.8h1.163Zm-4.186 2.531a3.768 3.768 0 0 1-2.259 1.657v-1.07c.9-.408 1.673-1.122 1.673-3.312v-2.8h1.165v2.8c0 2.19.773 2.9 1.672 3.312v1.073a3.833 3.833 0 0 1-2.249-1.657m-8.765-1.843a.848.848 0 0 0 .254.611.882.882 0 0 0 .6.212.859.859 0 0 0 .594-.212.86.86 0 0 0 0-1.223.865.865 0 0 0-.594-.212.889.889 0 0 0-.6.212.849.849 0 0 0-.254.612m-1.155 0a1.684 1.684 0 0 1 .661-1.385 2.223 2.223 0 0 1 1.351-.415 2.193 2.193 0 0 1 1.341.415 1.777 1.777 0 0 1 0 2.769 2.052 2.052 0 0 1-.755.347v.849h1.045a2.074 2.074 0 0 0 1.341-.323v-6.038h1.163v7.8h-1.163v-.808a2.376 2.376 0 0 1-1.562.383h-3.763v-1.015h1.775v-.849a1.892 1.892 0 0 1-.773-.347 1.683 1.683 0 0 1-.664-1.383m2.582-3.11h1.647v1h-4.441v-1h1.629v-.9h1.165Zm-5.741 5.224h-4.8v-1h5.961v3.031h-1.163Zm0-5.894h1.163v4.475h-1.163Zm-2.649 1.045a2.089 2.089 0 0 0 1.629 2.284v1.019a3.5 3.5 0 0 1-2.2-1.2 3.5 3.5 0 0 1-2.216 1.3v-1.035a2.2 2.2 0 0 0 1.622-2.369v-1h1.163Zm-10.868 3.835h6.93v1.012h-2.9v2.029h-1.154v-2.028h-2.876Zm.391-4.788h6.147v1.01h-2.5c.094 1.2 1.223 1.868 2.565 2.106v1.01a5.145 5.145 0 0 1-3.151-1.5 5.149 5.149 0 0 1-3.151 1.5v-1.01c1.333-.238 2.463-.908 2.557-2.106h-2.466Zm-6.725 6.793h3.549v-.645h-3.549Zm3.549-2.453h1.161v3.448h-5.874V33.18h1.164v.816h3.549Zm-1.1-2.939h1.1v-1.494h1.161v4.181h-1.161v-1.685h-1.1Zm-2.361 1.469h.8a5.019 5.019 0 0 0 .085-.968v-.914h-.884Zm1.843.977h-3.731v-.977h.747v-1.882h-.653v-.984h4.484v.984h-.668v.859a4.047 4.047 0 0 1-.119 1.027h.008a4.645 4.645 0 0 0 1.121-.094v.926a3.931 3.931 0 0 1-1.188.145m-8.1 3.337h-3.555v-7.146h3.838v1.012h-2.684v5.121h2.616a2.149 2.149 0 0 0 1.342-.314v-5.954h1.163v7.8h-1.163v-.9a2.382 2.382 0 0 1-1.563.382" data-name="패스 2980"/><g data-name="그룹 775"><g fill="#c1c1c1" clip-path="url(#clip-path)" data-name="그룹 774" transform="translate(103.372 -46.864)"><path d="M16.93 35.622A17.808 17.808 0 0 1 4.427 6.079a17.8 17.8 0 0 1 25.129-1.612l3.235 2.953a3.2 3.2 0 1 1-4.31 4.725l-3.195-2.913A11.408 11.408 0 0 0 9.23 10.3a11.409 11.409 0 1 0 17.133 15.07L45.289 3.99c.03-.034.062-.068.094-.1C48.574.59 55.417-2.41 61.2 2.882A3.2 3.2 0 0 1 56.884 7.6c-2.947-2.7-5.946-.21-6.868.7L31.16 29.6a17.83 17.83 0 0 1-14.23 6.022" data-name="패스 2981"/><path d="M81.159.02a17.809 17.809 0 0 1 12.5 29.546 17.807 17.807 0 0 1-25.129 1.611l-3.235-2.952a3.2 3.2 0 1 1 4.31-4.726l3.194 2.914a11.413 11.413 0 0 0 16.057-1.072 11.408 11.408 0 1 0-17.131-15.069l-18.926 21.38a2.328 2.328 0 0 1-.094.1c-3.191 3.3-10.034 6.3-15.817 1.009a3.2 3.2 0 0 1 4.317-4.722c2.945 2.7 5.946.21 6.868-.7l18.855-21.3a17.675 17.675 0 0 1 12.226-6A18.382 18.382 0 0 1 81.159.02" data-name="패스 2982"/><path d="M119.467 1.764a1.763 1.763 0 1 0-3.526 0v2.491a4.424 4.424 0 0 0-2.726-.786q-3.874.012-3.874 5.145V17.7q0 5.144 5.056 5.144t5.07-5.144V1.764M115.943 17.7q0 1.656-1.545 1.657-1.53 0-1.531-1.657V8.614q0-1.66 1.545-1.658 1.517 0 1.531 1.644Z" data-name="패스 2983"/><path d="M122.126 24.552a1.763 1.763 0 1 0 3.526 0v-2.493a4.426 4.426 0 0 0 2.728.786q3.872-.01 3.873-5.145V8.613q0-5.144-5.056-5.144t-5.071 5.144v15.939m3.524-15.939q0-1.661 1.545-1.661t1.531 1.657v9.086q0 1.66-1.545 1.66c-1.012 0-1.523-.55-1.531-1.644Z" data-name="패스 2984"/><path d="M147.876 1.779V17.7q0 5.132 5.068 5.144t5.057-5.144V8.613q0-5.132-3.874-5.144a4.436 4.436 0 0 0-2.726.784v-2.49a1.763 1.763 0 1 0-3.526 0v.017m3.524 6.82q.012-1.644 1.531-1.644 1.544 0 1.545 1.657V17.7c0 1.1-.513 1.657-1.533 1.657s-1.544-.553-1.544-1.657Z" data-name="패스 2985"/><path d="M145.195 5.188a1.762 1.762 0 0 0-3.524.012v12.5q0 1.658-1.545 1.657-1.53 0-1.531-1.657V5.2a1.763 1.763 0 0 0-3.522-.012V17.7q0 5.144 5.056 5.143t5.069-5.143V5.188Z" data-name="패스 2986"/><path d="M156.369 31.837h1.173v1h-1.173v3.7h-1.163v-7.8h1.163Zm-4.186 2.531a3.768 3.768 0 0 1-2.259 1.657v-1.07c.9-.408 1.673-1.122 1.673-3.312v-2.8h1.165v2.8c0 2.19.773 2.9 1.672 3.312v1.073a3.833 3.833 0 0 1-2.249-1.657m-8.765-1.843a.848.848 0 0 0 .254.611.882.882 0 0 0 .6.212.859.859 0 0 0 .594-.212.86.86 0 0 0 0-1.223.865.865 0 0 0-.594-.212.889.889 0 0 0-.6.212.849.849 0 0 0-.254.612m-1.155 0a1.684 1.684 0 0 1 .661-1.385 2.223 2.223 0 0 1 1.351-.415 2.193 2.193 0 0 1 1.341.415 1.777 1.777 0 0 1 0 2.769 2.052 2.052 0 0 1-.755.347v.849h1.045a2.074 2.074 0 0 0 1.341-.323v-6.038h1.163v7.8h-1.163v-.808a2.376 2.376 0 0 1-1.562.383h-3.763v-1.015h1.775v-.849a1.892 1.892 0 0 1-.773-.347 1.683 1.683 0 0 1-.664-1.383m2.582-3.11h1.647v1h-4.441v-1h1.629v-.9h1.165Zm-5.741 5.224h-4.8v-1h5.961v3.031h-1.163Zm0-5.894h1.163v4.475h-1.163Zm-2.649 1.045a2.089 2.089 0 0 0 1.629 2.284v1.019a3.5 3.5 0 0 1-2.2-1.2 3.5 3.5 0 0 1-2.216 1.3v-1.035a2.2 2.2 0 0 0 1.622-2.369v-1h1.163Zm-10.868 3.835h6.93v1.012h-2.9v2.029h-1.154v-2.028h-2.876Zm.391-4.788h6.147v1.01h-2.5c.094 1.2 1.223 1.868 2.565 2.106v1.01a5.145 5.145 0 0 1-3.151-1.5 5.149 5.149 0 0 1-3.151 1.5v-1.01c1.333-.238 2.463-.908 2.557-2.106h-2.466Zm-6.725 6.793h3.549v-.645h-3.549Zm3.549-2.453h1.161v3.448h-5.874V33.18h1.164v.816h3.549Zm-1.1-2.939h1.1v-1.494h1.161v4.181h-1.161v-1.685h-1.1Zm-2.361 1.469h.8a5.019 5.019 0 0 0 .085-.968v-.914h-.884Zm1.843.977h-3.731v-.977h.747v-1.882h-.653v-.984h4.484v.984h-.668v.859a4.047 4.047 0 0 1-.119 1.027h.008a4.645 4.645 0 0 0 1.121-.094v.926a3.931 3.931 0 0 1-1.188.145m-8.1 3.337h-3.555v-7.146h3.838v1.012h-2.684v5.121h2.616a2.149 2.149 0 0 0 1.342-.314v-5.954h1.163v7.8h-1.163v-.9a2.382 2.382 0 0 1-1.563.382" data-name="패스 2987"/></g></g></g></g></symbol><use xlink:href="#a"/><use xlink:href="#b" x="50"/><use xlink:href="#c" y="100"/><use xlink:href="#svgIcon002W" x="50" y="50"/><use xlink:href="#svgIcon003" y="200"/><use xlink:href="#svgIcon003W" x="50" y="100"/><use xlink:href="#svgIcon004" y="300"/><use xlink:href="#svgIcon004W" x="50" y="150"/><use xlink:href="#svgIcon005" y="400"/><use xlink:href="#svgIcon005W" x="50" y="200"/><use xlink:href="#svgIcon006" y="500"/><use xlink:href="#svgIcon006W" x="50" y="250"/><use xlink:href="#svgIcon007" y="600"/><use xlink:href="#svgIcon007W" x="50" y="300"/><use xlink:href="#svgIcon008" y="350"/><use xlink:href="#svgIcon008W" x="50" y="350"/><use xlink:href="#svgIcon009" y="400"/><use xlink:href="#svgIcon009W" x="50" y="400"/></svg>