<!--
	*
	* 1. 삭제할 가이드 요소를 제거한다.
	- [가이드] svg 태그에 style 코드
	- [가이드] rect 태그
	* 2. SVGOMG 사이트에서 코드 최적화를 한다.
	- SVG 최적화 : https://jakearchibald.github.io/svgomg/
	- 내부 style 삭제되지 않을려면 옵션 inline styles, Minify styles 를 활성 해제를 한다.
	※ 이미지를 반으로 줄였을 때 좌표가 짝수여야 그래픽이 번지지 않는다.
 -->
<svg viewBox="0 0 400 600" width="400" height="600" version="1.1" xmlns="http://www.w3.org/2000/svg" xmlns:xlink="http://www.w3.org/1999/xlink" style="transform:scale(2);transform-origin: 0 0;"><!-- [가이드] svg 태그에 스타일 태그를 제거한다. -->
	<!-- [가이드] 코드 Minify 시 제거 -->
	<rect x="0" y="0" width="200" height="600" fill="#5399a5" />
	<rect x="50" y="0" width="50" height="600" fill="#ffa07a" />
	<rect x="150" y="0" width="50" height="600" fill="#ffa07a" />
	<rect x="0" y="50" width="200" height="50" fill="#ffa07a" />
	<rect x="0" y="150" width="200" height="50" fill="#ffa07a" />
	<rect x="0" y="250" width="200" height="50" fill="#ffa07a" />
	<rect x="0" y="350" width="200" height="50" fill="#ffa07a" />
	<rect x="0" y="450" width="200" height="50" fill="#ffa07a" />
	<rect x="0" y="550" width="200" height="50" fill="#ffa07a" />

	<!-- [logo icon] 001 -->
	<symbol id="svgIcon001">
		<g id="그룹_773" data-name="그룹 773" transform="translate(0 0)">
			<g id="그룹_772" data-name="그룹 772" transform="translate(0 0)" clip-path="url(#clip-path)">
			<path id="패스_2974" data-name="패스 2974" d="M16.93,35.622A17.808,17.808,0,0,1,4.427,6.079,17.8,17.8,0,0,1,29.556,4.467L32.791,7.42a3.2,3.2,0,1,1-4.31,4.725L25.286,9.232A11.408,11.408,0,0,0,9.23,10.3,11.408,11.408,0,1,0,26.363,25.37L45.289,3.99c.03-.034.062-.068.094-.1,3.191-3.3,10.034-6.3,15.817-1.008A3.2,3.2,0,0,1,56.884,7.6c-2.947-2.7-5.946-.21-6.868.7L31.16,29.6A17.83,17.83,0,0,1,16.93,35.622" transform="translate(0 0)" fill="#ec6500"/>
			<path id="패스_2975" data-name="패스 2975" d="M71.32.02a17.809,17.809,0,0,1,12.5,29.546,17.807,17.807,0,0,1-25.129,1.611l-3.235-2.952a3.2,3.2,0,1,1,4.31-4.726l3.194,2.914a11.413,11.413,0,0,0,16.057-1.072A11.408,11.408,0,1,0,61.886,10.272L42.96,31.652c-.032.036-.063.069-.094.1-3.191,3.3-10.034,6.3-15.817,1.009a3.2,3.2,0,0,1,4.317-4.722c2.945,2.7,5.946.21,6.868-.7l18.855-21.3a17.675,17.675,0,0,1,12.226-6A18.382,18.382,0,0,1,71.32.02" transform="translate(9.839 0)" fill="#b20034"/>
			<path id="패스_2976" data-name="패스 2976" d="M89.456,1.764a1.763,1.763,0,1,0-3.526,0V4.255a4.424,4.424,0,0,0-2.726-.786q-3.874.012-3.874,5.145V17.7q0,5.144,5.056,5.144T89.456,17.7V1.779h0V1.764M85.932,17.7q0,1.656-1.545,1.657-1.53,0-1.531-1.657V8.614q0-1.66,1.545-1.658,1.517,0,1.531,1.644Z" transform="translate(30.011 0)" fill="#2e2e2d"/>
			<path id="패스_2977" data-name="패스 2977" d="M88.606,23.6a1.763,1.763,0,1,0,3.526,0V21.107a4.426,4.426,0,0,0,2.728.786q3.872-.01,3.873-5.145V7.661q0-5.144-5.056-5.144T88.606,7.661V23.584h0V23.6M92.13,7.661Q92.13,6,93.675,6t1.531,1.657v9.086q0,1.66-1.545,1.66c-1.012,0-1.523-.55-1.531-1.644Z" transform="translate(33.52 0.952)" fill="#2e2e2d"/>
			<path id="패스_2978" data-name="패스 2978" d="M107.289,1.779h0V17.7q0,5.132,5.068,5.144t5.057-5.144V8.613q0-5.132-3.874-5.144a4.436,4.436,0,0,0-2.726.784V1.763a1.763,1.763,0,1,0-3.526,0v.017M110.812,8.6q.012-1.644,1.531-1.644,1.544,0,1.545,1.657V17.7c0,1.1-.513,1.657-1.533,1.657s-1.544-.553-1.544-1.657Z" transform="translate(40.587 0)" fill="#2e2e2d"/>
			<path id="패스_2979" data-name="패스 2979" d="M108.122,4.245a1.762,1.762,0,0,0-3.524.012v12.5q0,1.658-1.545,1.657-1.53,0-1.531-1.657V4.275l0-.018A1.763,1.763,0,0,0,98,4.245h0V16.757q0,5.144,5.056,5.143t5.069-5.143V4.245Z" transform="translate(37.073 0.943)" fill="#2e2e2d"/>
			<path id="패스_2980" data-name="패스 2980" d="M126.307,24.009h1.173v1h-1.173v3.7h-1.163v-7.8h1.163Zm-4.186,2.531a3.768,3.768,0,0,1-2.259,1.657v-1.07c.9-.408,1.673-1.122,1.673-3.312v-2.8H122.7v2.8c0,2.19.773,2.9,1.672,3.312V28.2a3.833,3.833,0,0,1-2.249-1.657M113.358,24.7a.848.848,0,0,0,.254.611.882.882,0,0,0,.6.212.859.859,0,0,0,.594-.212.86.86,0,0,0,0-1.223.865.865,0,0,0-.594-.212.889.889,0,0,0-.6.212.849.849,0,0,0-.254.612m-1.155,0a1.684,1.684,0,0,1,.661-1.385,2.223,2.223,0,0,1,1.351-.415,2.193,2.193,0,0,1,1.341.415,1.777,1.777,0,0,1,0,2.769,2.052,2.052,0,0,1-.755.347v.849h1.045a2.074,2.074,0,0,0,1.341-.323V20.919h1.163v7.8h-1.163v-.808a2.376,2.376,0,0,1-1.562.383h-3.763V27.279h1.775v-.849a1.892,1.892,0,0,1-.773-.347A1.683,1.683,0,0,1,112.2,24.7m2.582-3.11h1.647v1h-4.441v-1h1.629v-.9h1.165Zm-5.741,5.224h-4.8v-1h5.961v3.031h-1.163Zm0-5.894h1.163v4.475h-1.163Zm-2.649,1.045a2.089,2.089,0,0,0,1.629,2.284v1.019a3.5,3.5,0,0,1-2.2-1.2,3.5,3.5,0,0,1-2.216,1.3V24.333a2.2,2.2,0,0,0,1.622-2.369v-1h1.163ZM95.524,25.8h6.93v1.012h-2.9v2.029H98.4V26.813H95.524Zm.391-4.788h6.147v1.01h-2.5c.094,1.2,1.223,1.868,2.565,2.106v1.01a5.145,5.145,0,0,1-3.151-1.5,5.149,5.149,0,0,1-3.151,1.5v-1.01c1.333-.238,2.463-.908,2.557-2.106H95.916ZM89.19,27.805h3.549V27.16H89.19Zm3.549-2.453H93.9V28.8H88.026V25.352H89.19v.816h3.549Zm-1.1-2.939h1.1V20.919H93.9V25.1H92.739V23.415h-1.1Zm-2.361,1.469h.8a5.019,5.019,0,0,0,.085-.968V22h-.884Zm1.843.977H87.39v-.977h.747V22h-.653v-.984h4.484V22H91.3v.859a4.047,4.047,0,0,1-.119,1.027h.008a4.645,4.645,0,0,0,1.121-.094v.926a3.931,3.931,0,0,1-1.188.145m-8.1,3.337H79.467V21.054h3.838v1.012H80.621v5.121h2.616a2.149,2.149,0,0,0,1.342-.314V20.919h1.163v7.8H84.579v-.9a2.382,2.382,0,0,1-1.563.382" transform="translate(30.062 7.828)" fill="#2e2e2d"/>
			<g id="그룹_775" data-name="그룹 775" transform="translate(103.372 -46.864)">
				<g id="그룹_774" data-name="그룹 774" clip-path="url(#clip-path)">
				<path id="패스_2981" data-name="패스 2981" d="M16.93,35.622A17.808,17.808,0,0,1,4.427,6.079,17.8,17.8,0,0,1,29.556,4.467L32.791,7.42a3.2,3.2,0,1,1-4.31,4.725L25.286,9.232A11.408,11.408,0,0,0,9.23,10.3,11.408,11.408,0,1,0,26.363,25.37L45.289,3.99c.03-.034.062-.068.094-.1,3.191-3.3,10.034-6.3,15.817-1.008A3.2,3.2,0,0,1,56.884,7.6c-2.947-2.7-5.946-.21-6.868.7L31.16,29.6A17.83,17.83,0,0,1,16.93,35.622" transform="translate(0 0)" fill="#ef7d00"/>
				<path id="패스_2982" data-name="패스 2982" d="M71.32.02a17.809,17.809,0,0,1,12.5,29.546,17.807,17.807,0,0,1-25.129,1.611l-3.235-2.952a3.2,3.2,0,1,1,4.31-4.726l3.194,2.914a11.413,11.413,0,0,0,16.057-1.072A11.408,11.408,0,1,0,61.886,10.272L42.96,31.652c-.032.036-.063.069-.094.1-3.191,3.3-10.034,6.3-15.817,1.009a3.2,3.2,0,0,1,4.317-4.722c2.945,2.7,5.946.21,6.868-.7l18.855-21.3a17.675,17.675,0,0,1,12.226-6A18.382,18.382,0,0,1,71.32.02" transform="translate(9.839 0)" fill="#c20344"/>
				<path id="패스_2983" data-name="패스 2983" d="M89.456,1.764a1.763,1.763,0,1,0-3.526,0V4.255a4.424,4.424,0,0,0-2.726-.786q-3.874.012-3.874,5.145V17.7q0,5.144,5.056,5.144T89.456,17.7V1.779h0V1.764M85.932,17.7q0,1.656-1.545,1.657-1.53,0-1.531-1.657V8.614q0-1.66,1.545-1.658,1.517,0,1.531,1.644Z" transform="translate(30.011 0)" fill="#3c3c3b"/>
				<path id="패스_2984" data-name="패스 2984" d="M88.606,23.6a1.763,1.763,0,1,0,3.526,0V21.107a4.426,4.426,0,0,0,2.728.786q3.872-.01,3.873-5.145V7.661q0-5.144-5.056-5.144T88.606,7.661V23.584h0V23.6M92.13,7.661Q92.13,6,93.675,6t1.531,1.657v9.086q0,1.66-1.545,1.66c-1.012,0-1.523-.55-1.531-1.644Z" transform="translate(33.52 0.952)" fill="#3c3c3b"/>
				<path id="패스_2985" data-name="패스 2985" d="M107.289,1.779h0V17.7q0,5.132,5.068,5.144t5.057-5.144V8.613q0-5.132-3.874-5.144a4.436,4.436,0,0,0-2.726.784V1.763a1.763,1.763,0,1,0-3.526,0v.017M110.812,8.6q.012-1.644,1.531-1.644,1.544,0,1.545,1.657V17.7c0,1.1-.513,1.657-1.533,1.657s-1.544-.553-1.544-1.657Z" transform="translate(40.587 0)" fill="#3c3c3b"/>
				<path id="패스_2986" data-name="패스 2986" d="M108.122,4.245a1.762,1.762,0,0,0-3.524.012v12.5q0,1.658-1.545,1.657-1.53,0-1.531-1.657V4.275l0-.018A1.763,1.763,0,0,0,98,4.245h0V16.757q0,5.144,5.056,5.143t5.069-5.143V4.245Z" transform="translate(37.073 0.943)" fill="#3c3c3b"/>
				<path id="패스_2987" data-name="패스 2987" d="M126.307,24.009h1.173v1h-1.173v3.7h-1.163v-7.8h1.163Zm-4.186,2.531a3.768,3.768,0,0,1-2.259,1.657v-1.07c.9-.408,1.673-1.122,1.673-3.312v-2.8H122.7v2.8c0,2.19.773,2.9,1.672,3.312V28.2a3.833,3.833,0,0,1-2.249-1.657M113.358,24.7a.848.848,0,0,0,.254.611.882.882,0,0,0,.6.212.859.859,0,0,0,.594-.212.86.86,0,0,0,0-1.223.865.865,0,0,0-.594-.212.889.889,0,0,0-.6.212.849.849,0,0,0-.254.612m-1.155,0a1.684,1.684,0,0,1,.661-1.385,2.223,2.223,0,0,1,1.351-.415,2.193,2.193,0,0,1,1.341.415,1.777,1.777,0,0,1,0,2.769,2.052,2.052,0,0,1-.755.347v.849h1.045a2.074,2.074,0,0,0,1.341-.323V20.919h1.163v7.8h-1.163v-.808a2.376,2.376,0,0,1-1.562.383h-3.763V27.279h1.775v-.849a1.892,1.892,0,0,1-.773-.347A1.683,1.683,0,0,1,112.2,24.7m2.582-3.11h1.647v1h-4.441v-1h1.629v-.9h1.165Zm-5.741,5.224h-4.8v-1h5.961v3.031h-1.163Zm0-5.894h1.163v4.475h-1.163Zm-2.649,1.045a2.089,2.089,0,0,0,1.629,2.284v1.019a3.5,3.5,0,0,1-2.2-1.2,3.5,3.5,0,0,1-2.216,1.3V24.333a2.2,2.2,0,0,0,1.622-2.369v-1h1.163ZM95.524,25.8h6.93v1.012h-2.9v2.029H98.4V26.813H95.524Zm.391-4.788h6.147v1.01h-2.5c.094,1.2,1.223,1.868,2.565,2.106v1.01a5.145,5.145,0,0,1-3.151-1.5,5.149,5.149,0,0,1-3.151,1.5v-1.01c1.333-.238,2.463-.908,2.557-2.106H95.916ZM89.19,27.805h3.549V27.16H89.19Zm3.549-2.453H93.9V28.8H88.026V25.352H89.19v.816h3.549Zm-1.1-2.939h1.1V20.919H93.9V25.1H92.739V23.415h-1.1Zm-2.361,1.469h.8a5.019,5.019,0,0,0,.085-.968V22h-.884Zm1.843.977H87.39v-.977h.747V22h-.653v-.984h4.484V22H91.3v.859a4.047,4.047,0,0,1-.119,1.027h.008a4.645,4.645,0,0,0,1.121-.094v.926a3.931,3.931,0,0,1-1.188.145m-8.1,3.337H79.467V21.054h3.838v1.012H80.621v5.121h2.616a2.149,2.149,0,0,0,1.342-.314V20.919h1.163v7.8H84.579v-.9a2.382,2.382,0,0,1-1.563.382" transform="translate(30.062 7.828)" fill="#3c3c3b"/>
				</g>
			</g>
			</g>
		</g>
	</symbol>
	<!--// [logo icon] 001 -->

	<symbol id="svgIcon001W">
	</symbol>

	<!-- [logo icon] 002 -->
	<symbol id="svgIcon002">
		<g id="그룹_838" data-name="그룹 838" transform="translate(0 0)">
			<g id="그룹_772" data-name="그룹 772" transform="translate(0 0)" clip-path="url(#clip-path)">
			<path id="패스_2974" data-name="패스 2974" d="M16.93,35.622A17.808,17.808,0,0,1,4.427,6.079,17.8,17.8,0,0,1,29.556,4.467L32.791,7.42a3.2,3.2,0,1,1-4.31,4.725L25.286,9.232A11.408,11.408,0,0,0,9.23,10.3,11.408,11.408,0,1,0,26.363,25.37L45.289,3.99c.03-.034.062-.068.094-.1,3.191-3.3,10.034-6.3,15.817-1.008A3.2,3.2,0,0,1,56.884,7.6c-2.947-2.7-5.946-.21-6.868.7L31.16,29.6A17.83,17.83,0,0,1,16.93,35.622" transform="translate(0 0)" fill="#c1c1c1"/>
			<path id="패스_2975" data-name="패스 2975" d="M71.32.02a17.809,17.809,0,0,1,12.5,29.546,17.807,17.807,0,0,1-25.129,1.611l-3.235-2.952a3.2,3.2,0,1,1,4.31-4.726l3.194,2.914a11.413,11.413,0,0,0,16.057-1.072A11.408,11.408,0,1,0,61.886,10.272L42.96,31.652c-.032.036-.063.069-.094.1-3.191,3.3-10.034,6.3-15.817,1.009a3.2,3.2,0,0,1,4.317-4.722c2.945,2.7,5.946.21,6.868-.7l18.855-21.3a17.675,17.675,0,0,1,12.226-6A18.382,18.382,0,0,1,71.32.02" transform="translate(9.839 0)" fill="#c1c1c1"/>
			<path id="패스_2976" data-name="패스 2976" d="M89.456,1.764a1.763,1.763,0,1,0-3.526,0V4.255a4.424,4.424,0,0,0-2.726-.786q-3.874.012-3.874,5.145V17.7q0,5.144,5.056,5.144T89.456,17.7V1.779h0V1.764M85.932,17.7q0,1.656-1.545,1.657-1.53,0-1.531-1.657V8.614q0-1.66,1.545-1.658,1.517,0,1.531,1.644Z" transform="translate(30.011 0)" fill="#c1c1c1"/>
			<path id="패스_2977" data-name="패스 2977" d="M88.606,23.6a1.763,1.763,0,1,0,3.526,0V21.107a4.426,4.426,0,0,0,2.728.786q3.872-.01,3.873-5.145V7.661q0-5.144-5.056-5.144T88.606,7.661V23.584h0V23.6M92.13,7.661Q92.13,6,93.675,6t1.531,1.657v9.086q0,1.66-1.545,1.66c-1.012,0-1.523-.55-1.531-1.644Z" transform="translate(33.52 0.952)" fill="#c1c1c1"/>
			<path id="패스_2978" data-name="패스 2978" d="M107.289,1.779h0V17.7q0,5.132,5.068,5.144t5.057-5.144V8.613q0-5.132-3.874-5.144a4.436,4.436,0,0,0-2.726.784V1.763a1.763,1.763,0,1,0-3.526,0v.017M110.812,8.6q.012-1.644,1.531-1.644,1.544,0,1.545,1.657V17.7c0,1.1-.513,1.657-1.533,1.657s-1.544-.553-1.544-1.657Z" transform="translate(40.587 0)" fill="#c1c1c1"/>
			<path id="패스_2979" data-name="패스 2979" d="M108.122,4.245a1.762,1.762,0,0,0-3.524.012v12.5q0,1.658-1.545,1.657-1.53,0-1.531-1.657V4.275l0-.018A1.763,1.763,0,0,0,98,4.245h0V16.757q0,5.144,5.056,5.143t5.069-5.143V4.245Z" transform="translate(37.073 0.943)" fill="#c1c1c1"/>
			<path id="패스_2980" data-name="패스 2980" d="M126.307,24.009h1.173v1h-1.173v3.7h-1.163v-7.8h1.163Zm-4.186,2.531a3.768,3.768,0,0,1-2.259,1.657v-1.07c.9-.408,1.673-1.122,1.673-3.312v-2.8H122.7v2.8c0,2.19.773,2.9,1.672,3.312V28.2a3.833,3.833,0,0,1-2.249-1.657M113.358,24.7a.848.848,0,0,0,.254.611.882.882,0,0,0,.6.212.859.859,0,0,0,.594-.212.86.86,0,0,0,0-1.223.865.865,0,0,0-.594-.212.889.889,0,0,0-.6.212.849.849,0,0,0-.254.612m-1.155,0a1.684,1.684,0,0,1,.661-1.385,2.223,2.223,0,0,1,1.351-.415,2.193,2.193,0,0,1,1.341.415,1.777,1.777,0,0,1,0,2.769,2.052,2.052,0,0,1-.755.347v.849h1.045a2.074,2.074,0,0,0,1.341-.323V20.919h1.163v7.8h-1.163v-.808a2.376,2.376,0,0,1-1.562.383h-3.763V27.279h1.775v-.849a1.892,1.892,0,0,1-.773-.347A1.683,1.683,0,0,1,112.2,24.7m2.582-3.11h1.647v1h-4.441v-1h1.629v-.9h1.165Zm-5.741,5.224h-4.8v-1h5.961v3.031h-1.163Zm0-5.894h1.163v4.475h-1.163Zm-2.649,1.045a2.089,2.089,0,0,0,1.629,2.284v1.019a3.5,3.5,0,0,1-2.2-1.2,3.5,3.5,0,0,1-2.216,1.3V24.333a2.2,2.2,0,0,0,1.622-2.369v-1h1.163ZM95.524,25.8h6.93v1.012h-2.9v2.029H98.4V26.813H95.524Zm.391-4.788h6.147v1.01h-2.5c.094,1.2,1.223,1.868,2.565,2.106v1.01a5.145,5.145,0,0,1-3.151-1.5,5.149,5.149,0,0,1-3.151,1.5v-1.01c1.333-.238,2.463-.908,2.557-2.106H95.916ZM89.19,27.805h3.549V27.16H89.19Zm3.549-2.453H93.9V28.8H88.026V25.352H89.19v.816h3.549Zm-1.1-2.939h1.1V20.919H93.9V25.1H92.739V23.415h-1.1Zm-2.361,1.469h.8a5.019,5.019,0,0,0,.085-.968V22h-.884Zm1.843.977H87.39v-.977h.747V22h-.653v-.984h4.484V22H91.3v.859a4.047,4.047,0,0,1-.119,1.027h.008a4.645,4.645,0,0,0,1.121-.094v.926a3.931,3.931,0,0,1-1.188.145m-8.1,3.337H79.467V21.054h3.838v1.012H80.621v5.121h2.616a2.149,2.149,0,0,0,1.342-.314V20.919h1.163v7.8H84.579v-.9a2.382,2.382,0,0,1-1.563.382" transform="translate(30.062 7.828)" fill="#c1c1c1"/>
			<g id="그룹_775" data-name="그룹 775" transform="translate(103.372 -46.864)">
				<g id="그룹_774" data-name="그룹 774" clip-path="url(#clip-path)">
				<path id="패스_2981" data-name="패스 2981" d="M16.93,35.622A17.808,17.808,0,0,1,4.427,6.079,17.8,17.8,0,0,1,29.556,4.467L32.791,7.42a3.2,3.2,0,1,1-4.31,4.725L25.286,9.232A11.408,11.408,0,0,0,9.23,10.3,11.408,11.408,0,1,0,26.363,25.37L45.289,3.99c.03-.034.062-.068.094-.1,3.191-3.3,10.034-6.3,15.817-1.008A3.2,3.2,0,0,1,56.884,7.6c-2.947-2.7-5.946-.21-6.868.7L31.16,29.6A17.83,17.83,0,0,1,16.93,35.622" transform="translate(0 0)" fill="#c1c1c1"/>
				<path id="패스_2982" data-name="패스 2982" d="M71.32.02a17.809,17.809,0,0,1,12.5,29.546,17.807,17.807,0,0,1-25.129,1.611l-3.235-2.952a3.2,3.2,0,1,1,4.31-4.726l3.194,2.914a11.413,11.413,0,0,0,16.057-1.072A11.408,11.408,0,1,0,61.886,10.272L42.96,31.652c-.032.036-.063.069-.094.1-3.191,3.3-10.034,6.3-15.817,1.009a3.2,3.2,0,0,1,4.317-4.722c2.945,2.7,5.946.21,6.868-.7l18.855-21.3a17.675,17.675,0,0,1,12.226-6A18.382,18.382,0,0,1,71.32.02" transform="translate(9.839 0)" fill="#c1c1c1"/>
				<path id="패스_2983" data-name="패스 2983" d="M89.456,1.764a1.763,1.763,0,1,0-3.526,0V4.255a4.424,4.424,0,0,0-2.726-.786q-3.874.012-3.874,5.145V17.7q0,5.144,5.056,5.144T89.456,17.7V1.779h0V1.764M85.932,17.7q0,1.656-1.545,1.657-1.53,0-1.531-1.657V8.614q0-1.66,1.545-1.658,1.517,0,1.531,1.644Z" transform="translate(30.011 0)" fill="#c1c1c1"/>
				<path id="패스_2984" data-name="패스 2984" d="M88.606,23.6a1.763,1.763,0,1,0,3.526,0V21.107a4.426,4.426,0,0,0,2.728.786q3.872-.01,3.873-5.145V7.661q0-5.144-5.056-5.144T88.606,7.661V23.584h0V23.6M92.13,7.661Q92.13,6,93.675,6t1.531,1.657v9.086q0,1.66-1.545,1.66c-1.012,0-1.523-.55-1.531-1.644Z" transform="translate(33.52 0.952)" fill="#c1c1c1"/>
				<path id="패스_2985" data-name="패스 2985" d="M107.289,1.779h0V17.7q0,5.132,5.068,5.144t5.057-5.144V8.613q0-5.132-3.874-5.144a4.436,4.436,0,0,0-2.726.784V1.763a1.763,1.763,0,1,0-3.526,0v.017M110.812,8.6q.012-1.644,1.531-1.644,1.544,0,1.545,1.657V17.7c0,1.1-.513,1.657-1.533,1.657s-1.544-.553-1.544-1.657Z" transform="translate(40.587 0)" fill="#c1c1c1"/>
				<path id="패스_2986" data-name="패스 2986" d="M108.122,4.245a1.762,1.762,0,0,0-3.524.012v12.5q0,1.658-1.545,1.657-1.53,0-1.531-1.657V4.275l0-.018A1.763,1.763,0,0,0,98,4.245h0V16.757q0,5.144,5.056,5.143t5.069-5.143V4.245Z" transform="translate(37.073 0.943)" fill="#c1c1c1"/>
				<path id="패스_2987" data-name="패스 2987" d="M126.307,24.009h1.173v1h-1.173v3.7h-1.163v-7.8h1.163Zm-4.186,2.531a3.768,3.768,0,0,1-2.259,1.657v-1.07c.9-.408,1.673-1.122,1.673-3.312v-2.8H122.7v2.8c0,2.19.773,2.9,1.672,3.312V28.2a3.833,3.833,0,0,1-2.249-1.657M113.358,24.7a.848.848,0,0,0,.254.611.882.882,0,0,0,.6.212.859.859,0,0,0,.594-.212.86.86,0,0,0,0-1.223.865.865,0,0,0-.594-.212.889.889,0,0,0-.6.212.849.849,0,0,0-.254.612m-1.155,0a1.684,1.684,0,0,1,.661-1.385,2.223,2.223,0,0,1,1.351-.415,2.193,2.193,0,0,1,1.341.415,1.777,1.777,0,0,1,0,2.769,2.052,2.052,0,0,1-.755.347v.849h1.045a2.074,2.074,0,0,0,1.341-.323V20.919h1.163v7.8h-1.163v-.808a2.376,2.376,0,0,1-1.562.383h-3.763V27.279h1.775v-.849a1.892,1.892,0,0,1-.773-.347A1.683,1.683,0,0,1,112.2,24.7m2.582-3.11h1.647v1h-4.441v-1h1.629v-.9h1.165Zm-5.741,5.224h-4.8v-1h5.961v3.031h-1.163Zm0-5.894h1.163v4.475h-1.163Zm-2.649,1.045a2.089,2.089,0,0,0,1.629,2.284v1.019a3.5,3.5,0,0,1-2.2-1.2,3.5,3.5,0,0,1-2.216,1.3V24.333a2.2,2.2,0,0,0,1.622-2.369v-1h1.163ZM95.524,25.8h6.93v1.012h-2.9v2.029H98.4V26.813H95.524Zm.391-4.788h6.147v1.01h-2.5c.094,1.2,1.223,1.868,2.565,2.106v1.01a5.145,5.145,0,0,1-3.151-1.5,5.149,5.149,0,0,1-3.151,1.5v-1.01c1.333-.238,2.463-.908,2.557-2.106H95.916ZM89.19,27.805h3.549V27.16H89.19Zm3.549-2.453H93.9V28.8H88.026V25.352H89.19v.816h3.549Zm-1.1-2.939h1.1V20.919H93.9V25.1H92.739V23.415h-1.1Zm-2.361,1.469h.8a5.019,5.019,0,0,0,.085-.968V22h-.884Zm1.843.977H87.39v-.977h.747V22h-.653v-.984h4.484V22H91.3v.859a4.047,4.047,0,0,1-.119,1.027h.008a4.645,4.645,0,0,0,1.121-.094v.926a3.931,3.931,0,0,1-1.188.145m-8.1,3.337H79.467V21.054h3.838v1.012H80.621v5.121h2.616a2.149,2.149,0,0,0,1.342-.314V20.919h1.163v7.8H84.579v-.9a2.382,2.382,0,0,1-1.563.382" transform="translate(30.062 7.828)" fill="#c1c1c1"/>
				</g>
			</g>
			</g>
 		</g>
	</symbol>
	<!--// [logo icon] 002 -->












	<!-- [신규]#svgIcon001 -->
	<use xlink:href="#svgIcon001" x="0" y="0" />
	<use xlink:href="#svgIcon001W" x="50" y="0" />
	<use xlink:href="#svgIcon002" x="0" y="100" />
	<use xlink:href="#svgIcon002W" x="50" y="50" />
	<use xlink:href="#svgIcon003" x="0" y="200" />
	<use xlink:href="#svgIcon003W" x="50" y="100" />
	<use xlink:href="#svgIcon004" x="0" y="300" />
	<use xlink:href="#svgIcon004W" x="50" y="150" />
	<use xlink:href="#svgIcon005" x="0" y="400" />
	<use xlink:href="#svgIcon005W" x="50" y="200" />
	<use xlink:href="#svgIcon006" x="0" y="500" />
	<use xlink:href="#svgIcon006W" x="50" y="250" />
	<use xlink:href="#svgIcon007" x="0" y="600" />
	<use xlink:href="#svgIcon007W" x="50" y="300" />
	<use xlink:href="#svgIcon008" x="0" y="350" />
	<use xlink:href="#svgIcon008W" x="50" y="350" />
	<use xlink:href="#svgIcon009" x="0" y="400" />
	<use xlink:href="#svgIcon009W" x="50" y="400" />


</svg>