<svg xmlns="http://www.w3.org/2000/svg" xmlns:xlink="http://www.w3.org/1999/xlink" width="400" height="600"><symbol id="a"><g data-name="그룹 773"><g clip-path="url(#clip-path)" data-name="그룹 772"><path fill="#ec6500" d="M16.93 35.622A17.808 17.808 0 0 1 4.427 6.079a17.8 17.8 0 0 1 25.129-1.612l3.235 2.953a3.2 3.2 0 1 1-4.31 4.725l-3.195-2.913A11.408 11.408 0 0 0 9.23 10.3a11.409 11.409 0 1 0 17.133 15.07L45.289 3.99c.03-.034.062-.068.094-.1C48.574.59 55.417-2.41 61.2 2.882A3.2 3.2 0 0 1 56.884 7.6c-2.947-2.7-5.946-.21-6.868.7L31.16 29.6a17.83 17.83 0 0 1-14.23 6.022" data-name="패스 2974"/><path fill="#b20034" d="M81.159.02a17.809 17.809 0 0 1 12.5 29.546 17.807 17.807 0 0 1-25.129 1.611l-3.235-2.952a3.2 3.2 0 1 1 4.31-4.726l3.194 2.914a11.413 11.413 0 0 0 16.057-1.072 11.408 11.408 0 1 0-17.131-15.069l-18.926 21.38a2.328 2.328 0 0 1-.094.1c-3.191 3.3-10.034 6.3-15.817 1.009a3.2 3.2 0 0 1 4.317-4.722c2.945 2.7 5.946.21 6.868-.7l18.855-21.3a17.675 17.675 0 0 1 12.226-6A18.382 18.382 0 0 1 81.159.02" data-name="패스 2975"/><path fill="#2e2e2d" d="M119.467 1.764a1.763 1.763 0 1 0-3.526 0v2.491a4.424 4.424 0 0 0-2.726-.786q-3.874.012-3.874 5.145V17.7q0 5.144 5.056 5.144t5.07-5.144V1.764M115.943 17.7q0 1.656-1.545 1.657-1.53 0-1.531-1.657V8.614q0-1.66 1.545-1.658 1.517 0 1.531 1.644Z" data-name="패스 2976"/><path fill="#2e2e2d" d="M122.126 24.552a1.763 1.763 0 1 0 3.526 0v-2.493a4.426 4.426 0 0 0 2.728.786q3.872-.01 3.873-5.145V8.613q0-5.144-5.056-5.144t-5.071 5.144v15.939m3.524-15.939q0-1.661 1.545-1.661t1.531 1.657v9.086q0 1.66-1.545 1.66c-1.012 0-1.523-.55-1.531-1.644Z" data-name="패스 2977"/><path fill="#2e2e2d" d="M147.876 1.779V17.7q0 5.132 5.068 5.144t5.057-5.144V8.613q0-5.132-3.874-5.144a4.436 4.436 0 0 0-2.726.784v-2.49a1.763 1.763 0 1 0-3.526 0v.017m3.524 6.82q.012-1.644 1.531-1.644 1.544 0 1.545 1.657V17.7c0 1.1-.513 1.657-1.533 1.657s-1.544-.553-1.544-1.657Z" data-name="패스 2978"/><path fill="#2e2e2d" d="M145.195 5.188a1.762 1.762 0 0 0-3.524.012v12.5q0 1.658-1.545 1.657-1.53 0-1.531-1.657V5.2a1.763 1.763 0 0 0-3.522-.012V17.7q0 5.144 5.056 5.143t5.069-5.143V5.188Z" data-name="패스 2979"/><path fill="#2e2e2d" d="M156.369 31.837h1.173v1h-1.173v3.7h-1.163v-7.8h1.163Zm-4.186 2.531a3.768 3.768 0 0 1-2.259 1.657v-1.07c.9-.408 1.673-1.122 1.673-3.312v-2.8h1.165v2.8c0 2.19.773 2.9 1.672 3.312v1.073a3.833 3.833 0 0 1-2.249-1.657m-8.765-1.843a.848.848 0 0 0 .254.611.882.882 0 0 0 .6.212.859.859 0 0 0 .594-.212.86.86 0 0 0 0-1.223.865.865 0 0 0-.594-.212.889.889 0 0 0-.6.212.849.849 0 0 0-.254.612m-1.155 0a1.684 1.684 0 0 1 .661-1.385 2.223 2.223 0 0 1 1.351-.415 2.193 2.193 0 0 1 1.341.415 1.777 1.777 0 0 1 0 2.769 2.052 2.052 0 0 1-.755.347v.849h1.045a2.074 2.074 0 0 0 1.341-.323v-6.038h1.163v7.8h-1.163v-.808a2.376 2.376 0 0 1-1.562.383h-3.763v-1.015h1.775v-.849a1.892 1.892 0 0 1-.773-.347 1.683 1.683 0 0 1-.664-1.383m2.582-3.11h1.647v1h-4.441v-1h1.629v-.9h1.165Zm-5.741 5.224h-4.8v-1h5.961v3.031h-1.163Zm0-5.894h1.163v4.475h-1.163Zm-2.649 1.045a2.089 2.089 0 0 0 1.629 2.284v1.019a3.5 3.5 0 0 1-2.2-1.2 3.5 3.5 0 0 1-2.216 1.3v-1.035a2.2 2.2 0 0 0 1.622-2.369v-1h1.163Zm-10.868 3.835h6.93v1.012h-2.9v2.029h-1.154v-2.028h-2.876Zm.391-4.788h6.147v1.01h-2.5c.094 1.2 1.223 1.868 2.565 2.106v1.01a5.145 5.145 0 0 1-3.151-1.5 5.149 5.149 0 0 1-3.151 1.5v-1.01c1.333-.238 2.463-.908 2.557-2.106h-2.466Zm-6.725 6.793h3.549v-.645h-3.549Zm3.549-2.453h1.161v3.448h-5.874V33.18h1.164v.816h3.549Zm-1.1-2.939h1.1v-1.494h1.161v4.181h-1.161v-1.685h-1.1Zm-2.361 1.469h.8a5.019 5.019 0 0 0 .085-.968v-.914h-.884Zm1.843.977h-3.731v-.977h.747v-1.882h-.653v-.984h4.484v.984h-.668v.859a4.047 4.047 0 0 1-.119 1.027h.008a4.645 4.645 0 0 0 1.121-.094v.926a3.931 3.931 0 0 1-1.188.145m-8.1 3.337h-3.555v-7.146h3.838v1.012h-2.684v5.121h2.616a2.149 2.149 0 0 0 1.342-.314v-5.954h1.163v7.8h-1.163v-.9a2.382 2.382 0 0 1-1.563.382" data-name="패스 2980"/><g data-name="그룹 775"><g clip-path="url(#clip-path)" data-name="그룹 774" transform="translate(103.372 -46.864)"><path fill="#ef7d00" d="M16.93 35.622A17.808 17.808 0 0 1 4.427 6.079a17.8 17.8 0 0 1 25.129-1.612l3.235 2.953a3.2 3.2 0 1 1-4.31 4.725l-3.195-2.913A11.408 11.408 0 0 0 9.23 10.3a11.409 11.409 0 1 0 17.133 15.07L45.289 3.99c.03-.034.062-.068.094-.1C48.574.59 55.417-2.41 61.2 2.882A3.2 3.2 0 0 1 56.884 7.6c-2.947-2.7-5.946-.21-6.868.7L31.16 29.6a17.83 17.83 0 0 1-14.23 6.022" data-name="패스 2981"/><path fill="#c20344" d="M81.159.02a17.809 17.809 0 0 1 12.5 29.546 17.807 17.807 0 0 1-25.129 1.611l-3.235-2.952a3.2 3.2 0 1 1 4.31-4.726l3.194 2.914a11.413 11.413 0 0 0 16.057-1.072 11.408 11.408 0 1 0-17.131-15.069l-18.926 21.38a2.328 2.328 0 0 1-.094.1c-3.191 3.3-10.034 6.3-15.817 1.009a3.2 3.2 0 0 1 4.317-4.722c2.945 2.7 5.946.21 6.868-.7l18.855-21.3a17.675 17.675 0 0 1 12.226-6A18.382 18.382 0 0 1 81.159.02" data-name="패스 2982"/><path fill="#3c3c3b" d="M119.467 1.764a1.763 1.763 0 1 0-3.526 0v2.491a4.424 4.424 0 0 0-2.726-.786q-3.874.012-3.874 5.145V17.7q0 5.144 5.056 5.144t5.07-5.144V1.764M115.943 17.7q0 1.656-1.545 1.657-1.53 0-1.531-1.657V8.614q0-1.66 1.545-1.658 1.517 0 1.531 1.644Z" data-name="패스 2983"/><path fill="#3c3c3b" d="M122.126 24.552a1.763 1.763 0 1 0 3.526 0v-2.493a4.426 4.426 0 0 0 2.728.786q3.872-.01 3.873-5.145V8.613q0-5.144-5.056-5.144t-5.071 5.144v15.939m3.524-15.939q0-1.661 1.545-1.661t1.531 1.657v9.086q0 1.66-1.545 1.66c-1.012 0-1.523-.55-1.531-1.644Z" data-name="패스 2984"/><path fill="#3c3c3b" d="M147.876 1.779V17.7q0 5.132 5.068 5.144t5.057-5.144V8.613q0-5.132-3.874-5.144a4.436 4.436 0 0 0-2.726.784v-2.49a1.763 1.763 0 1 0-3.526 0v.017m3.524 6.82q.012-1.644 1.531-1.644 1.544 0 1.545 1.657V17.7c0 1.1-.513 1.657-1.533 1.657s-1.544-.553-1.544-1.657Z" data-name="패스 2985"/><path fill="#3c3c3b" d="M145.195 5.188a1.762 1.762 0 0 0-3.524.012v12.5q0 1.658-1.545 1.657-1.53 0-1.531-1.657V5.2a1.763 1.763 0 0 0-3.522-.012V17.7q0 5.144 5.056 5.143t5.069-5.143V5.188Z" data-name="패스 2986"/><path fill="#3c3c3b" d="M156.369 31.837h1.173v1h-1.173v3.7h-1.163v-7.8h1.163Zm-4.186 2.531a3.768 3.768 0 0 1-2.259 1.657v-1.07c.9-.408 1.673-1.122 1.673-3.312v-2.8h1.165v2.8c0 2.19.773 2.9 1.672 3.312v1.073a3.833 3.833 0 0 1-2.249-1.657m-8.765-1.843a.848.848 0 0 0 .254.611.882.882 0 0 0 .6.212.859.859 0 0 0 .594-.212.86.86 0 0 0 0-1.223.865.865 0 0 0-.594-.212.889.889 0 0 0-.6.212.849.849 0 0 0-.254.612m-1.155 0a1.684 1.684 0 0 1 .661-1.385 2.223 2.223 0 0 1 1.351-.415 2.193 2.193 0 0 1 1.341.415 1.777 1.777 0 0 1 0 2.769 2.052 2.052 0 0 1-.755.347v.849h1.045a2.074 2.074 0 0 0 1.341-.323v-6.038h1.163v7.8h-1.163v-.808a2.376 2.376 0 0 1-1.562.383h-3.763v-1.015h1.775v-.849a1.892 1.892 0 0 1-.773-.347 1.683 1.683 0 0 1-.664-1.383m2.582-3.11h1.647v1h-4.441v-1h1.629v-.9h1.165Zm-5.741 5.224h-4.8v-1h5.961v3.031h-1.163Zm0-5.894h1.163v4.475h-1.163Zm-2.649 1.045a2.089 2.089 0 0 0 1.629 2.284v1.019a3.5 3.5 0 0 1-2.2-1.2 3.5 3.5 0 0 1-2.216 1.3v-1.035a2.2 2.2 0 0 0 1.622-2.369v-1h1.163Zm-10.868 3.835h6.93v1.012h-2.9v2.029h-1.154v-2.028h-2.876Zm.391-4.788h6.147v1.01h-2.5c.094 1.2 1.223 1.868 2.565 2.106v1.01a5.145 5.145 0 0 1-3.151-1.5 5.149 5.149 0 0 1-3.151 1.5v-1.01c1.333-.238 2.463-.908 2.557-2.106h-2.466Zm-6.725 6.793h3.549v-.645h-3.549Zm3.549-2.453h1.161v3.448h-5.874V33.18h1.164v.816h3.549Zm-1.1-2.939h1.1v-1.494h1.161v4.181h-1.161v-1.685h-1.1Zm-2.361 1.469h.8a5.019 5.019 0 0 0 .085-.968v-.914h-.884Zm1.843.977h-3.731v-.977h.747v-1.882h-.653v-.984h4.484v.984h-.668v.859a4.047 4.047 0 0 1-.119 1.027h.008a4.645 4.645 0 0 0 1.121-.094v.926a3.931 3.931 0 0 1-1.188.145m-8.1 3.337h-3.555v-7.146h3.838v1.012h-2.684v5.121h2.616a2.149 2.149 0 0 0 1.342-.314v-5.954h1.163v7.8h-1.163v-.9a2.382 2.382 0 0 1-1.563.382" data-name="패스 2987"/></g></g></g></g></symbol><symbol id="c"><g data-name="그룹 838"><g clip-path="url(#clip-path)" data-name="그룹 772"><path fill="#c1c1c1" d="M16.93 35.622A17.808 17.808 0 0 1 4.427 6.079a17.8 17.8 0 0 1 25.129-1.612l3.235 2.953a3.2 3.2 0 1 1-4.31 4.725l-3.195-2.913A11.408 11.408 0 0 0 9.23 10.3a11.409 11.409 0 1 0 17.133 15.07L45.289 3.99c.03-.034.062-.068.094-.1C48.574.59 55.417-2.41 61.2 2.882A3.2 3.2 0 0 1 56.884 7.6c-2.947-2.7-5.946-.21-6.868.7L31.16 29.6a17.83 17.83 0 0 1-14.23 6.022" data-name="패스 2974"/><path fill="#c1c1c1" d="M81.159.02a17.809 17.809 0 0 1 12.5 29.546 17.807 17.807 0 0 1-25.129 1.611l-3.235-2.952a3.2 3.2 0 1 1 4.31-4.726l3.194 2.914a11.413 11.413 0 0 0 16.057-1.072 11.408 11.408 0 1 0-17.131-15.069l-18.926 21.38a2.328 2.328 0 0 1-.094.1c-3.191 3.3-10.034 6.3-15.817 1.009a3.2 3.2 0 0 1 4.317-4.722c2.945 2.7 5.946.21 6.868-.7l18.855-21.3a17.675 17.675 0 0 1 12.226-6A18.382 18.382 0 0 1 81.159.02" data-name="패스 2975"/><path fill="#c1c1c1" d="M119.467 1.764a1.763 1.763 0 1 0-3.526 0v2.491a4.424 4.424 0 0 0-2.726-.786q-3.874.012-3.874 5.145V17.7q0 5.144 5.056 5.144t5.07-5.144V1.764M115.943 17.7q0 1.656-1.545 1.657-1.53 0-1.531-1.657V8.614q0-1.66 1.545-1.658 1.517 0 1.531 1.644Z" data-name="패스 2976"/><path fill="#c1c1c1" d="M122.126 24.552a1.763 1.763 0 1 0 3.526 0v-2.493a4.426 4.426 0 0 0 2.728.786q3.872-.01 3.873-5.145V8.613q0-5.144-5.056-5.144t-5.071 5.144v15.939m3.524-15.939q0-1.661 1.545-1.661t1.531 1.657v9.086q0 1.66-1.545 1.66c-1.012 0-1.523-.55-1.531-1.644Z" data-name="패스 2977"/><path fill="#c1c1c1" d="M147.876 1.779V17.7q0 5.132 5.068 5.144t5.057-5.144V8.613q0-5.132-3.874-5.144a4.436 4.436 0 0 0-2.726.784v-2.49a1.763 1.763 0 1 0-3.526 0v.017m3.524 6.82q.012-1.644 1.531-1.644 1.544 0 1.545 1.657V17.7c0 1.1-.513 1.657-1.533 1.657s-1.544-.553-1.544-1.657Z" data-name="패스 2978"/><path fill="#c1c1c1" d="M145.195 5.188a1.762 1.762 0 0 0-3.524.012v12.5q0 1.658-1.545 1.657-1.53 0-1.531-1.657V5.2a1.763 1.763 0 0 0-3.522-.012V17.7q0 5.144 5.056 5.143t5.069-5.143V5.188Z" data-name="패스 2979"/><path fill="#c1c1c1" d="M156.369 31.837h1.173v1h-1.173v3.7h-1.163v-7.8h1.163Zm-4.186 2.531a3.768 3.768 0 0 1-2.259 1.657v-1.07c.9-.408 1.673-1.122 1.673-3.312v-2.8h1.165v2.8c0 2.19.773 2.9 1.672 3.312v1.073a3.833 3.833 0 0 1-2.249-1.657m-8.765-1.843a.848.848 0 0 0 .254.611.882.882 0 0 0 .6.212.859.859 0 0 0 .594-.212.86.86 0 0 0 0-1.223.865.865 0 0 0-.594-.212.889.889 0 0 0-.6.212.849.849 0 0 0-.254.612m-1.155 0a1.684 1.684 0 0 1 .661-1.385 2.223 2.223 0 0 1 1.351-.415 2.193 2.193 0 0 1 1.341.415 1.777 1.777 0 0 1 0 2.769 2.052 2.052 0 0 1-.755.347v.849h1.045a2.074 2.074 0 0 0 1.341-.323v-6.038h1.163v7.8h-1.163v-.808a2.376 2.376 0 0 1-1.562.383h-3.763v-1.015h1.775v-.849a1.892 1.892 0 0 1-.773-.347 1.683 1.683 0 0 1-.664-1.383m2.582-3.11h1.647v1h-4.441v-1h1.629v-.9h1.165Zm-5.741 5.224h-4.8v-1h5.961v3.031h-1.163Zm0-5.894h1.163v4.475h-1.163Zm-2.649 1.045a2.089 2.089 0 0 0 1.629 2.284v1.019a3.5 3.5 0 0 1-2.2-1.2 3.5 3.5 0 0 1-2.216 1.3v-1.035a2.2 2.2 0 0 0 1.622-2.369v-1h1.163Zm-10.868 3.835h6.93v1.012h-2.9v2.029h-1.154v-2.028h-2.876Zm.391-4.788h6.147v1.01h-2.5c.094 1.2 1.223 1.868 2.565 2.106v1.01a5.145 5.145 0 0 1-3.151-1.5 5.149 5.149 0 0 1-3.151 1.5v-1.01c1.333-.238 2.463-.908 2.557-2.106h-2.466Zm-6.725 6.793h3.549v-.645h-3.549Zm3.549-2.453h1.161v3.448h-5.874V33.18h1.164v.816h3.549Zm-1.1-2.939h1.1v-1.494h1.161v4.181h-1.161v-1.685h-1.1Zm-2.361 1.469h.8a5.019 5.019 0 0 0 .085-.968v-.914h-.884Zm1.843.977h-3.731v-.977h.747v-1.882h-.653v-.984h4.484v.984h-.668v.859a4.047 4.047 0 0 1-.119 1.027h.008a4.645 4.645 0 0 0 1.121-.094v.926a3.931 3.931 0 0 1-1.188.145m-8.1 3.337h-3.555v-7.146h3.838v1.012h-2.684v5.121h2.616a2.149 2.149 0 0 0 1.342-.314v-5.954h1.163v7.8h-1.163v-.9a2.382 2.382 0 0 1-1.563.382" data-name="패스 2980"/><g data-name="그룹 775"><g fill="#c1c1c1" clip-path="url(#clip-path)" data-name="그룹 774" transform="translate(103.372 -46.864)"><path d="M16.93 35.622A17.808 17.808 0 0 1 4.427 6.079a17.8 17.8 0 0 1 25.129-1.612l3.235 2.953a3.2 3.2 0 1 1-4.31 4.725l-3.195-2.913A11.408 11.408 0 0 0 9.23 10.3a11.409 11.409 0 1 0 17.133 15.07L45.289 3.99c.03-.034.062-.068.094-.1C48.574.59 55.417-2.41 61.2 2.882A3.2 3.2 0 0 1 56.884 7.6c-2.947-2.7-5.946-.21-6.868.7L31.16 29.6a17.83 17.83 0 0 1-14.23 6.022" data-name="패스 2981"/><path d="M81.159.02a17.809 17.809 0 0 1 12.5 29.546 17.807 17.807 0 0 1-25.129 1.611l-3.235-2.952a3.2 3.2 0 1 1 4.31-4.726l3.194 2.914a11.413 11.413 0 0 0 16.057-1.072 11.408 11.408 0 1 0-17.131-15.069l-18.926 21.38a2.328 2.328 0 0 1-.094.1c-3.191 3.3-10.034 6.3-15.817 1.009a3.2 3.2 0 0 1 4.317-4.722c2.945 2.7 5.946.21 6.868-.7l18.855-21.3a17.675 17.675 0 0 1 12.226-6A18.382 18.382 0 0 1 81.159.02" data-name="패스 2982"/><path d="M119.467 1.764a1.763 1.763 0 1 0-3.526 0v2.491a4.424 4.424 0 0 0-2.726-.786q-3.874.012-3.874 5.145V17.7q0 5.144 5.056 5.144t5.07-5.144V1.764M115.943 17.7q0 1.656-1.545 1.657-1.53 0-1.531-1.657V8.614q0-1.66 1.545-1.658 1.517 0 1.531 1.644Z" data-name="패스 2983"/><path d="M122.126 24.552a1.763 1.763 0 1 0 3.526 0v-2.493a4.426 4.426 0 0 0 2.728.786q3.872-.01 3.873-5.145V8.613q0-5.144-5.056-5.144t-5.071 5.144v15.939m3.524-15.939q0-1.661 1.545-1.661t1.531 1.657v9.086q0 1.66-1.545 1.66c-1.012 0-1.523-.55-1.531-1.644Z" data-name="패스 2984"/><path d="M147.876 1.779V17.7q0 5.132 5.068 5.144t5.057-5.144V8.613q0-5.132-3.874-5.144a4.436 4.436 0 0 0-2.726.784v-2.49a1.763 1.763 0 1 0-3.526 0v.017m3.524 6.82q.012-1.644 1.531-1.644 1.544 0 1.545 1.657V17.7c0 1.1-.513 1.657-1.533 1.657s-1.544-.553-1.544-1.657Z" data-name="패스 2985"/><path d="M145.195 5.188a1.762 1.762 0 0 0-3.524.012v12.5q0 1.658-1.545 1.657-1.53 0-1.531-1.657V5.2a1.763 1.763 0 0 0-3.522-.012V17.7q0 5.144 5.056 5.143t5.069-5.143V5.188Z" data-name="패스 2986"/><path d="M156.369 31.837h1.173v1h-1.173v3.7h-1.163v-7.8h1.163Zm-4.186 2.531a3.768 3.768 0 0 1-2.259 1.657v-1.07c.9-.408 1.673-1.122 1.673-3.312v-2.8h1.165v2.8c0 2.19.773 2.9 1.672 3.312v1.073a3.833 3.833 0 0 1-2.249-1.657m-8.765-1.843a.848.848 0 0 0 .254.611.882.882 0 0 0 .6.212.859.859 0 0 0 .594-.212.86.86 0 0 0 0-1.223.865.865 0 0 0-.594-.212.889.889 0 0 0-.6.212.849.849 0 0 0-.254.612m-1.155 0a1.684 1.684 0 0 1 .661-1.385 2.223 2.223 0 0 1 1.351-.415 2.193 2.193 0 0 1 1.341.415 1.777 1.777 0 0 1 0 2.769 2.052 2.052 0 0 1-.755.347v.849h1.045a2.074 2.074 0 0 0 1.341-.323v-6.038h1.163v7.8h-1.163v-.808a2.376 2.376 0 0 1-1.562.383h-3.763v-1.015h1.775v-.849a1.892 1.892 0 0 1-.773-.347 1.683 1.683 0 0 1-.664-1.383m2.582-3.11h1.647v1h-4.441v-1h1.629v-.9h1.165Zm-5.741 5.224h-4.8v-1h5.961v3.031h-1.163Zm0-5.894h1.163v4.475h-1.163Zm-2.649 1.045a2.089 2.089 0 0 0 1.629 2.284v1.019a3.5 3.5 0 0 1-2.2-1.2 3.5 3.5 0 0 1-2.216 1.3v-1.035a2.2 2.2 0 0 0 1.622-2.369v-1h1.163Zm-10.868 3.835h6.93v1.012h-2.9v2.029h-1.154v-2.028h-2.876Zm.391-4.788h6.147v1.01h-2.5c.094 1.2 1.223 1.868 2.565 2.106v1.01a5.145 5.145 0 0 1-3.151-1.5 5.149 5.149 0 0 1-3.151 1.5v-1.01c1.333-.238 2.463-.908 2.557-2.106h-2.466Zm-6.725 6.793h3.549v-.645h-3.549Zm3.549-2.453h1.161v3.448h-5.874V33.18h1.164v.816h3.549Zm-1.1-2.939h1.1v-1.494h1.161v4.181h-1.161v-1.685h-1.1Zm-2.361 1.469h.8a5.019 5.019 0 0 0 .085-.968v-.914h-.884Zm1.843.977h-3.731v-.977h.747v-1.882h-.653v-.984h4.484v.984h-.668v.859a4.047 4.047 0 0 1-.119 1.027h.008a4.645 4.645 0 0 0 1.121-.094v.926a3.931 3.931 0 0 1-1.188.145m-8.1 3.337h-3.555v-7.146h3.838v1.012h-2.684v5.121h2.616a2.149 2.149 0 0 0 1.342-.314v-5.954h1.163v7.8h-1.163v-.9a2.382 2.382 0 0 1-1.563.382" data-name="패스 2987"/></g></g></g></g></symbol><symbol id="d"><g clip-path="url(#clip-path)" data-name="그룹 854"><path fill="#ffeab7" d="M65 32.5A32.5 32.5 0 1 1 32.5 0 32.5 32.5 0 0 1 65 32.5" data-name="패스 3059"/><path fill="none" stroke="#313133" stroke-linecap="round" stroke-linejoin="round" stroke-width="1.7" d="M32.813 15.115v5.692" data-name="선 55"/><path fill="none" stroke="#313133" stroke-linecap="round" stroke-linejoin="round" stroke-width="1.7" d="m47.423 19.423-3.231 3.538" data-name="선 56"/><path fill="none" stroke="#313133" stroke-linecap="round" stroke-linejoin="round" stroke-width="1.7" d="m18.202 19.423 3.231 3.538" data-name="선 57"/><path fill="none" stroke="#313133" stroke-linecap="round" stroke-linejoin="round" stroke-width="1.7" d="M42.5 25.885h-20l-5 8 15 16 15-16Z" data-name="패스 3060"/><path fill="none" stroke="#313133" stroke-linecap="round" stroke-linejoin="round" stroke-width="1.7" d="M17.5 33.885h30" data-name="선 58"/><path fill="none" stroke="#313133" stroke-linecap="round" stroke-linejoin="round" stroke-width="1.7" d="m27.936 33.885 4.564 16" data-name="선 59"/><path fill="none" stroke="#313133" stroke-linecap="round" stroke-linejoin="round" stroke-width="1.7" d="m37.655 33.885-5.155 16" data-name="선 60"/><path fill="none" stroke="#313133" stroke-linecap="round" stroke-linejoin="round" stroke-width="1.7" d="m22.5 25.885 5.231 8" data-name="선 61"/><path fill="none" stroke="#313133" stroke-linecap="round" stroke-linejoin="round" stroke-width="1.7" d="m32.568 25.885-4.836 8" data-name="선 62"/><path fill="none" stroke="#313133" stroke-linecap="round" stroke-linejoin="round" stroke-width="1.7" d="m32.424 25.885 5.231 8" data-name="선 63"/><path fill="none" stroke="#313133" stroke-linecap="round" stroke-linejoin="round" stroke-width="1.7" d="m42.492 25.885-4.836 8" data-name="선 64"/><path fill="none" stroke="#313133" stroke-linecap="round" stroke-linejoin="round" stroke-width="1.7" d="M14.808 33.885H12.5" data-name="선 65"/><path fill="none" stroke="#313133" stroke-linecap="round" stroke-linejoin="round" stroke-width="1.7" d="M52.5 33.885h-2.308" data-name="선 66"/><path fill="#313133" d="M33.652 23.507a.845.845 0 1 1-.845-.845.845.845 0 0 1 .845.845" data-name="패스 3061"/></g></symbol><symbol id="e"><g clip-path="url(#clip-path)" data-name="그룹 856"><path fill="#ffeab7" d="M65 32.5A32.5 32.5 0 1 1 32.5 0 32.5 32.5 0 0 1 65 32.5" data-name="패스 3062"/><path fill="none" stroke="#313133" stroke-linecap="round" stroke-linejoin="round" stroke-width="1.7" d="M32.5 22.512a6.643 6.643 0 0 1 6.643 6.643" data-name="패스 3063"/><path fill="none" stroke="#313133" stroke-linecap="round" stroke-linejoin="round" stroke-width="1.7" d="M42.808 29.155A10.308 10.308 0 1 0 27 37.864c0 .046-.014.089-.014.135v4a2.154 2.154 0 0 0 2.154 2.154h7.077A2.154 2.154 0 0 0 38.375 42v-4a2.154 2.154 0 0 0-.036-.353 10.293 10.293 0 0 0 4.469-8.492Z" data-name="패스 3064"/><path fill="none" stroke="#313133" stroke-linecap="round" stroke-linejoin="round" stroke-width="1.7" d="M33.041 48.153h-.718a2.872 2.872 0 0 1-2.872-2.872v-1.128h6.462v1.128a2.872 2.872 0 0 1-2.872 2.872Z" data-name="패스 3065"/><path fill="none" stroke="#313133" stroke-linecap="round" stroke-linejoin="round" stroke-width="1.7" d="M26.99 40.358h11.385" data-name="선 67"/><path fill="none" stroke="#313133" stroke-linecap="round" stroke-linejoin="round" stroke-width="1.7" d="m17.372 23.127 2.256 2.154" data-name="선 68"/><path fill="none" stroke="#313133" stroke-linecap="round" stroke-linejoin="round" stroke-width="1.7" d="m17.372 36.666 2.256-2.154" data-name="선 69"/><path fill="none" stroke="#313133" stroke-linecap="round" stroke-linejoin="round" stroke-width="1.7" d="M16.859 29.897h2.769" data-name="선 70"/><path fill="none" stroke="#313133" stroke-linecap="round" stroke-linejoin="round" stroke-width="1.7" d="m47.628 23.127-2.256 2.154" data-name="선 71"/><path fill="none" stroke="#313133" stroke-linecap="round" stroke-linejoin="round" stroke-width="1.7" d="m47.628 36.666-2.256-2.154" data-name="선 72"/><path fill="none" stroke="#313133" stroke-linecap="round" stroke-linejoin="round" stroke-width="1.7" d="M48.141 29.897h-2.769" data-name="선 73"/></g></symbol><symbol id="f"><g clip-path="url(#clip-path)" data-name="그룹 858"><path fill="#ffeab7" d="M65 32.5A32.5 32.5 0 1 1 32.5 0 32.5 32.5 0 0 1 65 32.5" data-name="패스 3066"/><path fill="none" stroke="#313133" stroke-linecap="round" stroke-linejoin="round" stroke-width="1.7" d="M19.872 36.923 15.449 32.5l4.423-4.423a17.857 17.857 0 0 1 25.256 0l4.423 4.423-4.423 4.423a17.859 17.859 0 0 1-25.256 0Z" data-name="패스 3067"/><path fill="none" stroke="#313133" stroke-linecap="round" stroke-linejoin="round" stroke-width="1.7" d="M22.88 32.532a9.62 9.62 0 1 1 9.62 9.62 9.62 9.62 0 0 1-9.62-9.62Z" data-name="패스 3068"/><path fill="none" stroke="#313133" stroke-linecap="round" stroke-linejoin="round" stroke-width="1.7" d="M29.186 32.532a3.314 3.314 0 1 1 3.314 3.314 3.314 3.314 0 0 1-3.314-3.314Z" data-name="패스 3069"/><path fill="none" stroke="#313133" stroke-linecap="round" stroke-linejoin="round" stroke-width="1.7" d="M32.5 15.282v3.795" data-name="선 74"/><path fill="none" stroke="#313133" stroke-linecap="round" stroke-linejoin="round" stroke-width="1.7" d="m46.22 18.566-2.546 2.814" data-name="선 75"/><path fill="none" stroke="#313133" stroke-linecap="round" stroke-linejoin="round" stroke-width="1.7" d="m18.78 18.566 2.546 2.814" data-name="선 76"/><path fill="none" stroke="#313133" stroke-linecap="round" stroke-linejoin="round" stroke-width="1.7" d="M32.5 49.718v-3.795" data-name="선 77"/><path fill="none" stroke="#313133" stroke-linecap="round" stroke-linejoin="round" stroke-width="1.7" d="m46.22 46.434-2.546-2.814" data-name="선 78"/><path fill="none" stroke="#313133" stroke-linecap="round" stroke-linejoin="round" stroke-width="1.7" d="m18.78 46.434 2.546-2.814" data-name="선 79"/></g></symbol><symbol id="g"><g data-name="그룹 863"><g data-name="그룹 853" transform="translate(1739 -3305)"><circle cx="32.5" cy="32.5" r="32.5" fill="#ffeab7" data-name="타원 92" transform="translate(-1739 3305)"/><g fill="#313133" clip-path="url(#clip-path)" data-name="그룹 849" transform="translate(-1722 3322.174)"><path stroke="#313133" stroke-width=".5" d="M15.407 1.553a13.866 13.866 0 1 0 13.866 13.866A13.866 13.866 0 0 0 15.407 1.553m0 26.192a12.326 12.326 0 1 1 12.326-12.326 12.34 12.34 0 0 1-12.326 12.326" data-name="패스 3057"/><path d="M16.558 8.254V6.175h-1.535v2.05a4.866 4.866 0 0 0-3.051 1.219 3.583 3.583 0 0 0-1.127 2.725 3.588 3.588 0 0 0 1.084 2.818 10.259 10.259 0 0 0 3.4 1.787 4.261 4.261 0 0 1 1.424.84 1.68 1.68 0 0 1 .374 1.181 1.541 1.541 0 0 1-.364 1.073 1.507 1.507 0 0 1-1.171.4 2.116 2.116 0 0 1-1.452-.476 2.035 2.035 0 0 1-.539-1.594h-3.2l-.019.059a3.861 3.861 0 0 0 1.214 3.2 5.525 5.525 0 0 0 3.225 1.248v1.953h1.552V22.71a4.769 4.769 0 0 0 2.954-1.2 3.6 3.6 0 0 0 1.076-2.735 3.757 3.757 0 0 0-1.122-2.885 8.891 8.891 0 0 0-3.366-1.769 5.046 5.046 0 0 1-1.434-.9 1.468 1.468 0 0 1-.354-1.035 1.716 1.716 0 0 1 .33-1.1 1.365 1.365 0 0 1 1.127-.413 1.524 1.524 0 0 1 1.19.467 2.086 2.086 0 0 1 .429 1.435h3.2l.019-.049a4.013 4.013 0 0 0-1.01-2.9 4.56 4.56 0 0 0-2.856-1.37" data-name="패스 3058"/></g><g data-name="그룹 861"><g fill="none" stroke="#313133" stroke-linecap="round" stroke-linejoin="round" stroke-width="1.7" clip-path="url(#clip-path-2)" data-name="그룹 860" transform="translate(-1694 3320)"><path d="M4.801.85v2.133" data-name="선 80"/><path d="M4.801 6.619v2.133" data-name="선 81"/><path d="M8.752 4.801H6.619" data-name="선 82"/><path d="M2.983 4.801H.85" data-name="선 83"/></g></g><g data-name="그룹 862"><g fill="none" stroke="#313133" stroke-linecap="round" stroke-linejoin="round" stroke-width="1.7" clip-path="url(#clip-path-2)" data-name="그룹 860" transform="translate(-1728 3347)"><path d="M4.801.85v2.133" data-name="선 80"/><path d="M4.801 6.619v2.133" data-name="선 81"/><path d="M8.752 4.801H6.619" data-name="선 82"/><path d="M2.983 4.801H.85" data-name="선 83"/></g></g></g></g></symbol><use xlink:href="#a"/><use xlink:href="#b" x="50"/><use xlink:href="#c" y="100"/><use xlink:href="#svgIcon002W" x="50" y="50"/><use xlink:href="#d" y="200"/><use xlink:href="#svgIcon003W" x="50" y="100"/><use xlink:href="#e" y="300"/><use xlink:href="#svgIcon004W" x="50" y="150"/><use xlink:href="#f" y="400"/><use xlink:href="#svgIcon005W" x="50" y="200"/><use xlink:href="#g" y="500"/><use xlink:href="#svgIcon006W" x="50" y="250"/><use xlink:href="#svgIcon007" y="600"/><use xlink:href="#svgIcon007W" x="50" y="300"/><use xlink:href="#svgIcon008" y="350"/><use xlink:href="#svgIcon008W" x="50" y="350"/><use xlink:href="#svgIcon009" y="400"/><use xlink:href="#svgIcon009W" x="50" y="400"/></svg>