<svg xmlns="http://www.w3.org/2000/svg" xmlns:xlink="http://www.w3.org/1999/xlink" width="400" height="500"><symbol id="a"><g fill="#919197" clip-path="url(#a)"><path d="M11 12.1a5.5 5.5 0 1 0-5.5-5.5 5.5 5.5 0 0 0 5.5 5.5m0-9.9a4.4 4.4 0 1 1-4.4 4.4A4.405 4.405 0 0 1 11 2.2M13.2 13.2H8.8a7.7 7.7 0 0 0-7.7 7.7h19.8a7.7 7.7 0 0 0-7.7-7.7M2.292 19.8A6.611 6.611 0 0 1 8.8 14.3h4.4a6.611 6.611 0 0 1 6.509 5.5Z"/></g></symbol><symbol id="b"><g fill="#fff" clip-path="url(#a)"><path d="M11 12.1a5.5 5.5 0 1 0-5.5-5.5 5.5 5.5 0 0 0 5.5 5.5m0-9.9a4.4 4.4 0 1 1-4.4 4.4A4.405 4.405 0 0 1 11 2.2M13.2 13.2H8.8a7.7 7.7 0 0 0-7.7 7.7h19.8a7.7 7.7 0 0 0-7.7-7.7M2.292 19.8A6.611 6.611 0 0 1 8.8 14.3h4.4a6.611 6.611 0 0 1 6.509 5.5Z"/></g></symbol><symbol id="c"><g fill="#919197" clip-path="url(#a)"><path d="M18.758 1.375H3.242A2.142 2.142 0 0 0 1.1 3.517v14.966a2.142 2.142 0 0 0 2.142 2.142h15.516a2.142 2.142 0 0 0 2.142-2.142V3.517a2.142 2.142 0 0 0-2.142-2.142M19.8 18.483a1.043 1.043 0 0 1-1.042 1.042H3.242A1.043 1.043 0 0 1 2.2 18.483V6.875h17.6Zm0-12.708H2.2V3.517a1.043 1.043 0 0 1 1.042-1.042h15.516A1.043 1.043 0 0 1 19.8 3.517Z"/><path d="M4.4 3.59a.55.55 0 1 0 .55.55.55.55 0 0 0-.55-.55M6.05 3.59a.55.55 0 1 0 .55.55.55.55 0 0 0-.55-.55M17.6 3.59a.55.55 0 1 0 .55.55.55.55 0 0 0-.55-.55M8.796 15.722H6.343l-.476 1.6H3.85l2.691-8.247h1.026v.006-.006h1.026l2.7 8.25H9.278Zm-2.011-1.474h1.57l-.771-2.561H7.55ZM11.716 17.325v-8.25h3.02a3.366 3.366 0 0 1 2.437.949 3.239 3.239 0 0 1 .98 2.434v1.484a3.238 3.238 0 0 1-.98 2.437 3.37 3.37 0 0 1-2.437.946Zm1.915-6.777v5.3h1.1a1.311 1.311 0 0 0 1.074-.533 2.148 2.148 0 0 0 .422-1.377v-1.5a2.132 2.132 0 0 0-.422-1.366 1.312 1.312 0 0 0-1.074-.532Z"/></g></symbol><symbol id="d"><g fill="#fff" clip-path="url(#a)"><path d="M18.758 1.375H3.242A2.142 2.142 0 0 0 1.1 3.517v14.966a2.142 2.142 0 0 0 2.142 2.142h15.516a2.142 2.142 0 0 0 2.142-2.142V3.517a2.142 2.142 0 0 0-2.142-2.142M19.8 18.483a1.043 1.043 0 0 1-1.042 1.042H3.242A1.043 1.043 0 0 1 2.2 18.483V6.875h17.6Zm0-12.708H2.2V3.517a1.043 1.043 0 0 1 1.042-1.042h15.516A1.043 1.043 0 0 1 19.8 3.517Z"/><path d="M4.4 3.59a.55.55 0 1 0 .55.55.55.55 0 0 0-.55-.55M6.05 3.59a.55.55 0 1 0 .55.55.55.55 0 0 0-.55-.55M17.6 3.59a.55.55 0 1 0 .55.55.55.55 0 0 0-.55-.55M8.796 15.722H6.343l-.476 1.6H3.85l2.691-8.247h1.026v.006-.006h1.026l2.7 8.25H9.278Zm-2.011-1.474h1.57l-.771-2.561H7.55ZM11.716 17.325v-8.25h3.02a3.366 3.366 0 0 1 2.437.949 3.239 3.239 0 0 1 .98 2.434v1.484a3.238 3.238 0 0 1-.98 2.437 3.37 3.37 0 0 1-2.437.946Zm1.915-6.777v5.3h1.1a1.311 1.311 0 0 0 1.074-.533 2.148 2.148 0 0 0 .422-1.377v-1.5a2.132 2.132 0 0 0-.422-1.366 1.312 1.312 0 0 0-1.074-.532Z"/></g></symbol><symbol id="e"><g fill="#919197" clip-path="url(#a)"><path d="M11 1.1a9.9 9.9 0 1 0 9.9 9.9A9.9 9.9 0 0 0 11 1.1m0 18.7a8.8 8.8 0 1 1 8.8-8.8 8.81 8.81 0 0 1-8.8 8.8"/><path d="M11.822 5.884V4.4h-1.1v1.464a3.474 3.474 0 0 0-2.178.871 2.558 2.558 0 0 0-.8 1.945 2.562 2.562 0 0 0 .774 2.012 7.324 7.324 0 0 0 2.431 1.276 3.043 3.043 0 0 1 1.016.6 1.2 1.2 0 0 1 .267.843 1.1 1.1 0 0 1-.26.766 1.076 1.076 0 0 1-.836.288 1.511 1.511 0 0 1-1.037-.34 1.453 1.453 0 0 1-.385-1.138H7.432l-.014.042a2.757 2.757 0 0 0 .867 2.286 3.945 3.945 0 0 0 2.3.891V17.6h1.1v-1.394a3.4 3.4 0 0 0 2.109-.86 2.568 2.568 0 0 0 .775-1.946 2.682 2.682 0 0 0-.8-2.06 6.348 6.348 0 0 0-2.4-1.263 3.6 3.6 0 0 1-1.024-.641 1.048 1.048 0 0 1-.253-.739 1.225 1.225 0 0 1 .236-.788.975.975 0 0 1 .8-.295 1.088 1.088 0 0 1 .85.333 1.49 1.49 0 0 1 .3 1.026h2.289l.014-.035a2.865 2.865 0 0 0-.721-2.074 3.256 3.256 0 0 0-2.039-.978"/></g></symbol><symbol id="f"><g fill="#fff" clip-path="url(#a)"><path d="M11 1.1a9.9 9.9 0 1 0 9.9 9.9A9.9 9.9 0 0 0 11 1.1m0 18.7a8.8 8.8 0 1 1 8.8-8.8 8.81 8.81 0 0 1-8.8 8.8"/><path d="M11.822 5.884V4.4h-1.1v1.464a3.474 3.474 0 0 0-2.178.871 2.558 2.558 0 0 0-.8 1.945 2.562 2.562 0 0 0 .774 2.012 7.324 7.324 0 0 0 2.431 1.276 3.043 3.043 0 0 1 1.016.6 1.2 1.2 0 0 1 .267.843 1.1 1.1 0 0 1-.26.766 1.076 1.076 0 0 1-.836.288 1.511 1.511 0 0 1-1.037-.34 1.453 1.453 0 0 1-.385-1.138H7.432l-.014.042a2.757 2.757 0 0 0 .867 2.286 3.945 3.945 0 0 0 2.3.891V17.6h1.1v-1.394a3.4 3.4 0 0 0 2.109-.86 2.568 2.568 0 0 0 .775-1.946 2.682 2.682 0 0 0-.8-2.06 6.348 6.348 0 0 0-2.4-1.263 3.6 3.6 0 0 1-1.024-.641 1.048 1.048 0 0 1-.253-.739 1.225 1.225 0 0 1 .236-.788.975.975 0 0 1 .8-.295 1.088 1.088 0 0 1 .85.333 1.49 1.49 0 0 1 .3 1.026h2.289l.014-.035a2.865 2.865 0 0 0-.721-2.074 3.256 3.256 0 0 0-2.039-.978"/></g></symbol><symbol id="g"><g clip-path="url(#a)"><path fill="#919197" d="m20.488 14.679-1.492-1.8a4.536 4.536 0 0 1-1.047-2.895V8.4A7.238 7.238 0 0 0 11.7 1.15a7.5 7.5 0 0 0-.858-.05 7.059 7.059 0 0 0-7.108 7.01v2.256a4.536 4.536 0 0 1-1.046 2.894l-1.175 1.419a1.787 1.787 0 0 0 1.4 2.921h4.281a3.845 3.845 0 0 0 7.612 0h4.277a1.787 1.787 0 0 0 1.4-2.921M11 19.8a2.755 2.755 0 0 1-2.694-2.2h5.389A2.755 2.755 0 0 1 11 19.8m8.733-3.705a.693.693 0 0 1-.651.4H2.917a.692.692 0 0 1-.65-.4.652.652 0 0 1 .092-.714l1.175-1.419a5.652 5.652 0 0 0 1.3-3.6V8.11a5.966 5.966 0 0 1 6.008-5.91 6.475 6.475 0 0 1 .735.042A6.174 6.174 0 0 1 16.849 8.4v1.58a5.649 5.649 0 0 0 1.3 3.6l1.492 1.8a.652.652 0 0 1 .092.714"/></g></symbol><symbol id="h"><g clip-path="url(#a)"><path fill="#fff" d="m20.488 14.679-1.492-1.8a4.536 4.536 0 0 1-1.047-2.895V8.4A7.238 7.238 0 0 0 11.7 1.15a7.5 7.5 0 0 0-.858-.05 7.059 7.059 0 0 0-7.108 7.01v2.256a4.536 4.536 0 0 1-1.046 2.894l-1.175 1.419a1.787 1.787 0 0 0 1.4 2.921h4.281a3.845 3.845 0 0 0 7.612 0h4.277a1.787 1.787 0 0 0 1.4-2.921M11 19.8a2.755 2.755 0 0 1-2.694-2.2h5.389A2.755 2.755 0 0 1 11 19.8m8.733-3.705a.693.693 0 0 1-.651.4H2.917a.692.692 0 0 1-.65-.4.652.652 0 0 1 .092-.714l1.175-1.419a5.652 5.652 0 0 0 1.3-3.6V8.11a5.966 5.966 0 0 1 6.008-5.91 6.475 6.475 0 0 1 .735.042A6.174 6.174 0 0 1 16.849 8.4v1.58a5.649 5.649 0 0 0 1.3 3.6l1.492 1.8a.652.652 0 0 1 .092.714"/></g></symbol><symbol id="i"><g fill="#919197" clip-path="url(#a)"><path d="M11 5.5a3.3 3.3 0 1 0 3.294 3.3A3.3 3.3 0 0 0 11 5.5m0 5.5a2.2 2.2 0 1 1 2.194-2.2 2.2 2.2 0 0 1-2.193 2.2"/><path d="M11 1.1a7.7 7.7 0 0 0-7.72 7.676C3.28 14.544 11 20.9 11 20.9s7.716-6.356 7.716-12.124A7.7 7.7 0 0 0 11 1.1m-.005 18.34c-2.341-2.12-6.614-6.791-6.614-10.664a6.62 6.62 0 0 1 13.24 0c0 4.214-4.8 9-6.625 10.664"/></g></symbol><symbol id="j"><g fill="#fff" clip-path="url(#a)"><path d="M11 5.5a3.3 3.3 0 1 0 3.294 3.3A3.3 3.3 0 0 0 11 5.5m0 5.5a2.2 2.2 0 1 1 2.194-2.2 2.2 2.2 0 0 1-2.193 2.2"/><path d="M11 1.1a7.7 7.7 0 0 0-7.72 7.676C3.28 14.544 11 20.9 11 20.9s7.716-6.356 7.716-12.124A7.7 7.7 0 0 0 11 1.1m-.005 18.34c-2.341-2.12-6.614-6.791-6.614-10.664a6.62 6.62 0 0 1 13.24 0c0 4.214-4.8 9-6.625 10.664"/></g></symbol><symbol id="k"><g fill="#919197" clip-path="url(#a)"><path d="M11 1.1a9.9 9.9 0 1 0 9.9 9.9A9.9 9.9 0 0 0 11 1.1m0 18.7a8.8 8.8 0 1 1 8.8-8.8 8.81 8.81 0 0 1-8.8 8.8"/><path d="M9.441 14.489h2.502V16.5H9.441zM13.712 6.394a4.079 4.079 0 0 0-2.789-.894 4.245 4.245 0 0 0-2.664.778 2.7 2.7 0 0 0-.986 2.327l.014.045h2.451a1.211 1.211 0 0 1 .35-.909 1.191 1.191 0 0 1 .835-.305 1.217 1.217 0 0 1 .953.372 1.442 1.442 0 0 1 .334 1 1.98 1.98 0 0 1-.286 1.065 2.418 2.418 0 0 1-.787.774 5.532 5.532 0 0 0-1.333 1.2 2.758 2.758 0 0 0-.372 1.557h2.518a2.364 2.364 0 0 1 .168-.98 1.7 1.7 0 0 1 .643-.674 3.962 3.962 0 0 0 1.412-1.229 2.9 2.9 0 0 0 .554-1.714 3.05 3.05 0 0 0-1.016-2.412"/></g></symbol><symbol id="l"><g fill="#fff" clip-path="url(#a)"><path d="M11 1.1a9.9 9.9 0 1 0 9.9 9.9A9.9 9.9 0 0 0 11 1.1m0 18.7a8.8 8.8 0 1 1 8.8-8.8 8.81 8.81 0 0 1-8.8 8.8"/><path d="M9.441 14.489h2.502V16.5H9.441zM13.712 6.394a4.079 4.079 0 0 0-2.789-.894 4.245 4.245 0 0 0-2.664.778 2.7 2.7 0 0 0-.986 2.327l.014.045h2.451a1.211 1.211 0 0 1 .35-.909 1.191 1.191 0 0 1 .835-.305 1.217 1.217 0 0 1 .953.372 1.442 1.442 0 0 1 .334 1 1.98 1.98 0 0 1-.286 1.065 2.418 2.418 0 0 1-.787.774 5.532 5.532 0 0 0-1.333 1.2 2.758 2.758 0 0 0-.372 1.557h2.518a2.364 2.364 0 0 1 .168-.98 1.7 1.7 0 0 1 .643-.674 3.962 3.962 0 0 0 1.412-1.229 2.9 2.9 0 0 0 .554-1.714 3.05 3.05 0 0 0-1.016-2.412"/></g></symbol><symbol id="m"><g fill="#919197" clip-path="url(#a)"><path d="M15.4 5.5H6.6a5.5 5.5 0 1 0 0 11h8.8a5.5 5.5 0 0 0 0-11m0 9.9H6.6a4.4 4.4 0 1 1 0-8.8h8.8a4.4 4.4 0 0 1 0 8.8"/><path d="M15.4 7.7a3.3 3.3 0 1 0 3.3 3.3 3.3 3.3 0 0 0-3.3-3.3m0 5.5a2.2 2.2 0 1 1 2.2-2.2 2.2 2.2 0 0 1-2.2 2.2"/></g></symbol><symbol id="n"><g fill="#fff" clip-path="url(#a)"><path d="M15.4 5.5H6.6a5.5 5.5 0 1 0 0 11h8.8a5.5 5.5 0 0 0 0-11m0 9.9H6.6a4.4 4.4 0 1 1 0-8.8h8.8a4.4 4.4 0 0 1 0 8.8"/><path d="M15.4 7.7a3.3 3.3 0 1 0 3.3 3.3 3.3 3.3 0 0 0-3.3-3.3m0 5.5a2.2 2.2 0 1 1 2.2-2.2 2.2 2.2 0 0 1-2.2 2.2"/></g></symbol><symbol id="o"><g fill="#919197" clip-path="url(#a)"><path d="M11 1.1a9.9 9.9 0 1 0 9.9 9.9A9.9 9.9 0 0 0 11 1.1m0 18.7a8.8 8.8 0 1 1 8.8-8.8 8.81 8.81 0 0 1-8.8 8.8"/><path d="M16.775 10.45H11.55V5.225a.825.825 0 0 0-1.65 0v6.05a.825.825 0 0 0 .825.825h6.05a.825.825 0 0 0 0-1.65"/></g></symbol><symbol id="p"><g fill="#fff" clip-path="url(#a)"><path d="M11 1.1a9.9 9.9 0 1 0 9.9 9.9A9.9 9.9 0 0 0 11 1.1m0 18.7a8.8 8.8 0 1 1 8.8-8.8 8.81 8.81 0 0 1-8.8 8.8"/><path d="M16.775 10.45H11.55V5.225a.825.825 0 0 0-1.65 0v6.05a.825.825 0 0 0 .825.825h6.05a.825.825 0 0 0 0-1.65"/></g></symbol><symbol id="q"><g fill="#919197" clip-path="url(#a)"><path d="M11.14 6.127a5.013 5.013 0 1 0 5.013 5.013 5.013 5.013 0 0 0-5.013-5.013m0 8.912a3.9 3.9 0 1 1 3.9-3.9 3.9 3.9 0 0 1-3.9 3.9"/><path d="M20.608 8.914h-1.419a8.271 8.271 0 0 0-.784-1.886l1.009-1.008a.556.556 0 0 0 0-.788l-2.367-2.363a.556.556 0 0 0-.788 0l-1.005 1.005a8.292 8.292 0 0 0-1.886-.784V1.671a.557.557 0 0 0-.554-.557H9.469a.557.557 0 0 0-.557.557V3.09a8.292 8.292 0 0 0-1.886.784L6.02 2.869a.556.556 0 0 0-.788 0L2.869 5.232a.556.556 0 0 0 0 .788l1.005 1.005a8.271 8.271 0 0 0-.784 1.889H1.671a.557.557 0 0 0-.557.555v3.345a.557.557 0 0 0 .557.557H3.09a8.271 8.271 0 0 0 .784 1.883l-1.005 1.005a.556.556 0 0 0 0 .788l2.363 2.367a.556.556 0 0 0 .788 0l1.005-1.005a8.271 8.271 0 0 0 1.886.784v1.419a.557.557 0 0 0 .557.557h3.346a.557.557 0 0 0 .557-.557v-1.423a8.271 8.271 0 0 0 1.886-.784l1.002 1.009a.556.556 0 0 0 .788 0l2.367-2.367a.556.556 0 0 0 0-.788l-1.009-1.005a8.271 8.271 0 0 0 .784-1.886h1.419a.557.557 0 0 0 .557-.557V9.469a.557.557 0 0 0-.557-.557m-.557 3.342h-1.3a.557.557 0 0 0-.544.438 7.169 7.169 0 0 1-.976 2.347.559.559 0 0 0 .075.7l.92.92-1.576 1.576-.92-.92a.558.558 0 0 0-.7-.075 7.169 7.169 0 0 1-2.347.976.557.557 0 0 0-.438.544v1.3h-2.219v-1.3a.557.557 0 0 0-.438-.544 7.169 7.169 0 0 1-2.347-.976.558.558 0 0 0-.7.075l-.92.92-1.571-1.582.92-.92a.558.558 0 0 0 .075-.7 7.169 7.169 0 0 1-.976-2.347.557.557 0 0 0-.544-.438h-1.3v-2.222h1.3a.557.557 0 0 0 .544-.438 7.169 7.169 0 0 1 .976-2.347.558.558 0 0 0-.075-.7l-.92-.92L5.626 4.05l.92.92a.558.558 0 0 0 .7.075 7.158 7.158 0 0 1 2.347-.975.558.558 0 0 0 .438-.544v-1.3h2.223v1.3a.558.558 0 0 0 .438.544 7.158 7.158 0 0 1 2.347.975.558.558 0 0 0 .7-.075l.92-.92 1.576 1.576-.92.92a.559.559 0 0 0-.075.7 7.169 7.169 0 0 1 .976 2.347.557.557 0 0 0 .544.438h1.3Z"/></g></symbol><symbol id="r"><g fill="#fff" clip-path="url(#a)"><path d="M11.14 6.127a5.013 5.013 0 1 0 5.013 5.013 5.013 5.013 0 0 0-5.013-5.013m0 8.912a3.9 3.9 0 1 1 3.9-3.9 3.9 3.9 0 0 1-3.9 3.9"/><path d="M20.608 8.914h-1.419a8.271 8.271 0 0 0-.784-1.886l1.009-1.008a.556.556 0 0 0 0-.788l-2.367-2.363a.556.556 0 0 0-.788 0l-1.005 1.005a8.292 8.292 0 0 0-1.886-.784V1.671a.557.557 0 0 0-.554-.557H9.469a.557.557 0 0 0-.557.557V3.09a8.292 8.292 0 0 0-1.886.784L6.02 2.869a.556.556 0 0 0-.788 0L2.869 5.232a.556.556 0 0 0 0 .788l1.005 1.005a8.271 8.271 0 0 0-.784 1.889H1.671a.557.557 0 0 0-.557.555v3.345a.557.557 0 0 0 .557.557H3.09a8.271 8.271 0 0 0 .784 1.883l-1.005 1.005a.556.556 0 0 0 0 .788l2.363 2.367a.556.556 0 0 0 .788 0l1.005-1.005a8.271 8.271 0 0 0 1.886.784v1.419a.557.557 0 0 0 .557.557h3.346a.557.557 0 0 0 .557-.557v-1.423a8.271 8.271 0 0 0 1.886-.784l1.002 1.009a.556.556 0 0 0 .788 0l2.367-2.367a.556.556 0 0 0 0-.788l-1.009-1.005a8.271 8.271 0 0 0 .784-1.886h1.419a.557.557 0 0 0 .557-.557V9.469a.557.557 0 0 0-.557-.557m-.557 3.342h-1.3a.557.557 0 0 0-.544.438 7.169 7.169 0 0 1-.976 2.347.559.559 0 0 0 .075.7l.92.92-1.576 1.576-.92-.92a.558.558 0 0 0-.7-.075 7.169 7.169 0 0 1-2.347.976.557.557 0 0 0-.438.544v1.3h-2.219v-1.3a.557.557 0 0 0-.438-.544 7.169 7.169 0 0 1-2.347-.976.558.558 0 0 0-.7.075l-.92.92-1.571-1.582.92-.92a.558.558 0 0 0 .075-.7 7.169 7.169 0 0 1-.976-2.347.557.557 0 0 0-.544-.438h-1.3v-2.222h1.3a.557.557 0 0 0 .544-.438 7.169 7.169 0 0 1 .976-2.347.558.558 0 0 0-.075-.7l-.92-.92L5.626 4.05l.92.92a.558.558 0 0 0 .7.075 7.158 7.158 0 0 1 2.347-.975.558.558 0 0 0 .438-.544v-1.3h2.223v1.3a.558.558 0 0 0 .438.544 7.158 7.158 0 0 1 2.347.975.558.558 0 0 0 .7-.075l.92-.92 1.576 1.576-.92.92a.559.559 0 0 0-.075.7 7.169 7.169 0 0 1 .976 2.347.557.557 0 0 0 .544.438h1.3Z"/></g></symbol><symbol id="s"><g clip-path="url(#a)"><path fill="#919197" d="m19.597 6.432-7.7-5.063a1.629 1.629 0 0 0-1.793 0l-7.7 5.063a1.684 1.684 0 0 0-.754 1.407v11.384A1.664 1.664 0 0 0 3.3 20.9h15.4a1.664 1.664 0 0 0 1.65-1.677V7.839a1.684 1.684 0 0 0-.753-1.407M8.25 13.2h5.5v6.6h-5.5Zm11 6.023a.565.565 0 0 1-.55.577h-3.85v-6.6a1.1 1.1 0 0 0-1.1-1.1h-5.5a1.1 1.1 0 0 0-1.1 1.1v6.6H3.3a.565.565 0 0 1-.55-.577V7.839a.58.58 0 0 1 .258-.488l7.7-5.063a.529.529 0 0 1 .584 0l7.7 5.063a.58.58 0 0 1 .258.488Z"/></g></symbol><symbol id="t"><g clip-path="url(#a)"><path fill="#fff" d="m19.597 6.432-7.7-5.063a1.629 1.629 0 0 0-1.793 0l-7.7 5.063a1.684 1.684 0 0 0-.754 1.407v11.384A1.664 1.664 0 0 0 3.3 20.9h15.4a1.664 1.664 0 0 0 1.65-1.677V7.839a1.684 1.684 0 0 0-.753-1.407M8.25 13.2h5.5v6.6h-5.5Zm11 6.023a.565.565 0 0 1-.55.577h-3.85v-6.6a1.1 1.1 0 0 0-1.1-1.1h-5.5a1.1 1.1 0 0 0-1.1 1.1v6.6H3.3a.565.565 0 0 1-.55-.577V7.839a.58.58 0 0 1 .258-.488l7.7-5.063a.529.529 0 0 1 .584 0l7.7 5.063a.58.58 0 0 1 .258.488Z"/></g></symbol><symbol id="u"><g clip-path="url(#a)"><path stroke="#000" stroke-width=".5" d="M1.1 8.874a7.766 7.766 0 0 0 12.863 5.867l6 6a.55.55 0 0 0 .778-.778l-6-6A7.771 7.771 0 1 0 1.1 8.874m1.1 0a6.674 6.674 0 1 1 6.674 6.674A6.682 6.682 0 0 1 2.2 8.874"/></g></symbol><symbol id="v"><g fill="#b30039" clip-path="url(#a)"><path d="m5.626 9.667 4-4.5a.5.5 0 0 1 .747.664L6.669 10l3.7 4.167a.5.5 0 1 1-.747.665l-4-4.5a.5.5 0 0 1 0-.665"/><path d="m9.626 9.667 4-4.5a.5.5 0 0 1 .748.664L10.669 10l3.705 4.167a.5.5 0 1 1-.748.665l-4-4.5a.5.5 0 0 1 0-.665"/></g></symbol><symbol id="w"><g fill="#fff" clip-path="url(#a)"><path d="m5.626 9.667 4-4.5a.5.5 0 0 1 .747.664L6.669 10l3.7 4.167a.5.5 0 1 1-.747.665l-4-4.5a.5.5 0 0 1 0-.665"/><path d="m9.626 9.667 4-4.5a.5.5 0 0 1 .748.664L10.669 10l3.705 4.167a.5.5 0 1 1-.748.665l-4-4.5a.5.5 0 0 1 0-.665"/></g></symbol><symbol id="x"><path d="M5 6 0 0h10Z" data-name="다각형 7"/></symbol><symbol id="y"><path fill="#c20344" d="M3.75 3.91.67 7.21a.4.4 0 0 1-.544.03.355.355 0 0 1-.032-.518L2.95 3.666.097.61A.355.355 0 0 1 .129.092a.4.4 0 0 1 .544.03l3.08 3.3a.354.354 0 0 1 0 .487"/></symbol><symbol id="z"><path fill="#c20344" d="M9.2.231 4.486 4.949 1.352 1.815A.792.792 0 0 0 .233 2.934l3.694 3.694a.79.79 0 0 0 1.119 0l5.278-5.278A.793.793 0 1 0 9.2.231"/></symbol><symbol id="A"><path fill="#a1a1a1" d="M9.199.231 4.485 4.949 1.351 1.815A.792.792 0 0 0 .232 2.934l3.694 3.694a.79.79 0 0 0 1.119 0l5.278-5.278A.793.793 0 1 0 9.199.231"/></symbol><symbol id="B"><g clip-path="url(#a)" transform="translate(0 .344)"><path fill="#ce0a49" d="m12.129.379-6.216 6.6-4.132-4.384a1 1 0 0 0-1.475 0 1.156 1.156 0 0 0 0 1.567l4.868 5.17a1 1 0 0 0 1.475 0L13.6 1.947a1.157 1.157 0 0 0 0-1.567 1 1 0 0 0-1.474 0"/></g></symbol><symbol id="C"><g clip-path="url(#a)"><path fill="#ec6500" d="M20.026 42.136A21.065 21.065 0 0 1 5.237 7.19a21.06 21.06 0 0 1 29.725-1.906l3.827 3.492a3.783 3.783 0 1 1-5.1 5.589L29.91 10.92a13.5 13.5 0 0 0-18.993 1.265 13.495 13.495 0 1 0 20.268 17.824L53.573 4.72c.036-.041.073-.08.111-.119 3.775-3.906 11.87-7.449 18.711-1.192a3.783 3.783 0 0 1-5.106 5.584c-3.486-3.189-7.034-.248-8.124.828l-22.3 25.2a21.092 21.092 0 0 1-16.834 7.118"/><path fill="#b20034" d="M96.003.024a21.065 21.065 0 0 1 14.793 34.949 21.064 21.064 0 0 1-29.726 1.906l-3.827-3.492a3.784 3.784 0 1 1 5.1-5.591l3.778 3.447a13.5 13.5 0 0 0 18.994-1.268 13.496 13.496 0 1 0-20.27-17.824L62.456 37.44a3.294 3.294 0 0 1-.111.119c-3.774 3.906-11.869 7.451-18.711 1.193a3.784 3.784 0 0 1 5.106-5.586c3.484 3.189 7.034.248 8.124-.827l22.3-25.195A20.908 20.908 0 0 1 93.631.045a21.745 21.745 0 0 1 2.372-.021"/><path fill="#2e2e2d" d="M141.319 2.086a2.086 2.086 0 1 0-4.171 0v2.946a5.234 5.234 0 0 0-3.223-.932q-4.583.015-4.583 6.086v10.751q0 6.085 5.98 6.085 6-.017 6-6.085V2.082m-4.172 18.855q0 1.959-1.828 1.96-1.81 0-1.811-1.96V10.189q0-1.964 1.828-1.961 1.8 0 1.811 1.945ZM144.464 29.04a2.086 2.086 0 1 0 4.171 0v-2.948a5.235 5.235 0 0 0 3.223.93q4.581-.012 4.581-6.086v-10.75q0-6.085-5.98-6.085-6 .017-6 6.085V29.04m4.174-18.854q0-1.959 1.828-1.96 1.812 0 1.811 1.96v10.749q0 1.964-1.828 1.963c-1.2 0-1.8-.651-1.811-1.945ZM174.925 2.1v18.838q0 6.07 5.995 6.085 5.98 0 5.982-6.085v-10.75q0-6.07-4.583-6.085a5.248 5.248 0 0 0-3.225.928V2.085a2.086 2.086 0 1 0-4.171 0v.02m4.167 8.069q.015-1.944 1.811-1.945 1.827 0 1.828 1.96v10.749c0 1.306-.607 1.96-1.813 1.96s-1.826-.654-1.826-1.96ZM171.752 6.137a2.085 2.085 0 0 0-4.169.015v14.785q0 1.961-1.828 1.96-1.81 0-1.811-1.96V6.151a2.085 2.085 0 0 0-4.165-.014v14.8q0 6.085 5.98 6.083 6-.015 6-6.083v-14.8ZM184.972 37.659h1.387v1.184h-1.387v4.379h-1.375v-9.218h1.376Zm-4.952 2.993a4.457 4.457 0 0 1-2.672 1.96v-1.269c1.065-.483 1.979-1.327 1.979-3.918v-3.31h1.376v3.315c0 2.591.915 3.435 1.978 3.918v1.265a4.534 4.534 0 0 1-2.661-1.96m-10.366-2.178a1 1 0 0 0 .3.722 1.043 1.043 0 0 0 .714.251 1.017 1.017 0 0 0 .7-.251 1.018 1.018 0 0 0 0-1.446 1.024 1.024 0 0 0-.7-.251 1.051 1.051 0 0 0-.714.251 1 1 0 0 0-.3.724m-1.366 0a1.992 1.992 0 0 1 .783-1.639 2.629 2.629 0 0 1 1.6-.491 2.6 2.6 0 0 1 1.586.491 2.1 2.1 0 0 1 0 3.275 2.428 2.428 0 0 1-.893.411v1h1.233a2.454 2.454 0 0 0 1.586-.382v-7.136h1.376v9.222h-1.376v-.955a2.811 2.811 0 0 1-1.847.453h-4.451v-1.2h2.1v-1a2.237 2.237 0 0 1-.915-.411 1.991 1.991 0 0 1-.783-1.637m3.054-3.678h1.948v1.175h-5.252v-1.177h1.927v-1.063h1.378Zm-6.791 6.179h-5.675V39.79h7.051v3.585h-1.376Zm0-6.972h1.376v5.294h-1.376Zm-3.133 1.238a2.471 2.471 0 0 0 1.927 2.7v1.2a4.142 4.142 0 0 1-2.6-1.425 4.139 4.139 0 0 1-2.622 1.536v-1.211a2.6 2.6 0 0 0 1.919-2.8v-1.189h1.376Zm-12.859 4.536h8.2v1.2h-3.425v2.4h-1.376v-2.4h-3.4Zm.463-5.664h7.276v1.2h-2.953c.111 1.417 1.446 2.209 3.034 2.491v1.2a6.086 6.086 0 0 1-3.727-1.777 6.091 6.091 0 0 1-3.727 1.777v-1.2c1.577-.282 2.914-1.074 3.024-2.491h-2.927Zm-7.956 8.035h4.2v-.763h-4.2Zm4.2-2.9h1.376v4.079h-6.95v-4.086h1.376v.965h4.2Zm-1.3-3.476h1.3v-1.77h1.376v4.939h-1.378v-1.987h-1.3Zm-2.793 1.738h.944a5.934 5.934 0 0 0 .1-1.145v-1.088h-1.05Zm2.18 1.156h-4.41v-1.159h.884v-2.23h-.773v-1.164h5.3v1.164h-.794v1.016a4.79 4.79 0 0 1-.14 1.215h.01a5.5 5.5 0 0 0 1.326-.111v1.1a4.651 4.651 0 0 1-1.405.171m-9.584 3.947h-4.2v-8.454h4.541v1.2h-3.178v6.057h3.095a2.542 2.542 0 0 0 1.587-.377v-7.039h1.376v9.222h-1.376v-1.065a2.818 2.818 0 0 1-1.849.452"/><g clip-path="url(#a)" transform="translate(122.28 -55.434)"><path fill="#ef7d00" d="M20.026 42.136A21.065 21.065 0 0 1 5.237 7.19a21.06 21.06 0 0 1 29.725-1.906l3.827 3.492a3.783 3.783 0 1 1-5.1 5.589L29.91 10.92a13.5 13.5 0 0 0-18.993 1.265 13.495 13.495 0 1 0 20.268 17.824L53.573 4.72c.036-.041.073-.08.111-.119 3.775-3.906 11.87-7.449 18.711-1.192a3.783 3.783 0 0 1-5.106 5.584c-3.486-3.189-7.034-.248-8.124.828l-22.3 25.2a21.092 21.092 0 0 1-16.834 7.118"/><path fill="#c20344" d="M96.003.024a21.065 21.065 0 0 1 14.793 34.949 21.064 21.064 0 0 1-29.726 1.906l-3.827-3.492a3.784 3.784 0 1 1 5.1-5.591l3.778 3.447a13.5 13.5 0 0 0 18.994-1.268 13.496 13.496 0 1 0-20.27-17.824L62.456 37.44a3.294 3.294 0 0 1-.111.119c-3.774 3.906-11.869 7.451-18.711 1.193a3.784 3.784 0 0 1 5.106-5.586c3.484 3.189 7.034.248 8.124-.827l22.3-25.195A20.908 20.908 0 0 1 93.631.045a21.745 21.745 0 0 1 2.372-.021"/><path fill="#3c3c3b" d="M141.319 2.086a2.086 2.086 0 1 0-4.171 0v2.946a5.234 5.234 0 0 0-3.223-.932q-4.583.015-4.583 6.086v10.751q0 6.085 5.98 6.085 6-.017 6-6.085V2.082m-4.172 18.855q0 1.959-1.828 1.96-1.81 0-1.811-1.96V10.189q0-1.964 1.828-1.961 1.8 0 1.811 1.945ZM144.464 29.04a2.086 2.086 0 1 0 4.171 0v-2.948a5.235 5.235 0 0 0 3.223.93q4.581-.012 4.581-6.086v-10.75q0-6.085-5.98-6.085-6 .017-6 6.085V29.04m4.174-18.854q0-1.959 1.828-1.96 1.812 0 1.811 1.96v10.749q0 1.964-1.828 1.963c-1.2 0-1.8-.651-1.811-1.945ZM174.925 2.1v18.838q0 6.07 5.995 6.085 5.98 0 5.982-6.085v-10.75q0-6.07-4.583-6.085a5.248 5.248 0 0 0-3.225.928V2.085a2.086 2.086 0 1 0-4.171 0v.02m4.167 8.069q.015-1.944 1.811-1.945 1.827 0 1.828 1.96v10.749c0 1.306-.607 1.96-1.813 1.96s-1.826-.654-1.826-1.96ZM171.752 6.137a2.085 2.085 0 0 0-4.169.015v14.785q0 1.961-1.828 1.96-1.81 0-1.811-1.96V6.151a2.085 2.085 0 0 0-4.165-.014v14.8q0 6.085 5.98 6.083 6-.015 6-6.083v-14.8ZM184.972 37.659h1.387v1.184h-1.387v4.379h-1.375v-9.218h1.376Zm-4.952 2.993a4.457 4.457 0 0 1-2.672 1.96v-1.269c1.065-.483 1.979-1.327 1.979-3.918v-3.31h1.376v3.315c0 2.591.915 3.435 1.978 3.918v1.265a4.534 4.534 0 0 1-2.661-1.96m-10.366-2.178a1 1 0 0 0 .3.722 1.043 1.043 0 0 0 .714.251 1.017 1.017 0 0 0 .7-.251 1.018 1.018 0 0 0 0-1.446 1.024 1.024 0 0 0-.7-.251 1.051 1.051 0 0 0-.714.251 1 1 0 0 0-.3.724m-1.366 0a1.992 1.992 0 0 1 .783-1.639 2.629 2.629 0 0 1 1.6-.491 2.6 2.6 0 0 1 1.586.491 2.1 2.1 0 0 1 0 3.275 2.428 2.428 0 0 1-.893.411v1h1.233a2.454 2.454 0 0 0 1.586-.382v-7.136h1.376v9.222h-1.376v-.955a2.811 2.811 0 0 1-1.847.453h-4.451v-1.2h2.1v-1a2.237 2.237 0 0 1-.915-.411 1.991 1.991 0 0 1-.783-1.637m3.054-3.678h1.948v1.175h-5.252v-1.177h1.927v-1.063h1.378Zm-6.791 6.179h-5.675V39.79h7.051v3.585h-1.376Zm0-6.972h1.376v5.294h-1.376Zm-3.133 1.238a2.471 2.471 0 0 0 1.927 2.7v1.2a4.142 4.142 0 0 1-2.6-1.425 4.139 4.139 0 0 1-2.622 1.536v-1.211a2.6 2.6 0 0 0 1.919-2.8v-1.189h1.376Zm-12.859 4.536h8.2v1.2h-3.425v2.4h-1.376v-2.4h-3.4Zm.463-5.664h7.276v1.2h-2.953c.111 1.417 1.446 2.209 3.034 2.491v1.2a6.086 6.086 0 0 1-3.727-1.777 6.091 6.091 0 0 1-3.727 1.777v-1.2c1.577-.282 2.914-1.074 3.024-2.491h-2.927Zm-7.956 8.035h4.2v-.763h-4.2Zm4.2-2.9h1.376v4.079h-6.95v-4.086h1.376v.965h4.2Zm-1.3-3.476h1.3v-1.77h1.376v4.939h-1.378v-1.987h-1.3Zm-2.793 1.738h.944a5.934 5.934 0 0 0 .1-1.145v-1.088h-1.05Zm2.18 1.156h-4.41v-1.159h.884v-2.23h-.773v-1.164h5.3v1.164h-.794v1.016a4.79 4.79 0 0 1-.14 1.215h.01a5.5 5.5 0 0 0 1.326-.111v1.1a4.651 4.651 0 0 1-1.405.171m-9.584 3.947h-4.2v-8.454h4.541v1.2h-3.178v6.057h3.095a2.542 2.542 0 0 0 1.587-.377v-7.039h1.376v9.222h-1.376v-1.065a2.818 2.818 0 0 1-1.849.452"/></g></g></symbol><symbol id="D"><g clip-path="url(#a)"><path fill="#ef7d00" d="M16.072 33.817A16.906 16.906 0 0 1 4.2 5.771a16.9 16.9 0 0 1 23.86-1.53l3.071 2.8a3.036 3.036 0 1 1-4.092 4.486l-3.033-2.763A10.831 10.831 0 0 0 8.763 9.78a10.83 10.83 0 1 0 16.265 14.3L43 3.788c.029-.033.059-.064.089-.1C46.115.557 52.611-2.286 58.1 2.736A3.037 3.037 0 0 1 54 7.218c-2.8-2.559-5.645-.2-6.52.665L29.583 28.1a16.928 16.928 0 0 1-13.51 5.713"/><path fill="#b30039" d="M77.049.019a16.906 16.906 0 0 1 11.87 28.049A16.906 16.906 0 0 1 65.062 29.6l-3.071-2.8a3.036 3.036 0 1 1 4.092-4.487l3.032 2.766a10.836 10.836 0 0 0 15.244-1.018A10.832 10.832 0 1 0 68.094 9.752l-17.97 20.296c-.03.034-.06.065-.089.1-3.029 3.135-9.526 5.98-15.016.958a3.038 3.038 0 0 1 4.1-4.483c2.8 2.559 5.645.2 6.52-.663l17.9-20.22A16.78 16.78 0 0 1 75.145.036a17.452 17.452 0 0 1 1.9-.017"/><path fill="#fff" d="M113.418 1.675a1.674 1.674 0 1 0-3.347 0v2.364a4.2 4.2 0 0 0-2.588-.746q-3.678.012-3.678 4.885V16.8q0 4.883 4.8 4.883t4.813-4.883V1.675M110.075 16.8q0 1.572-1.467 1.573t-1.456-1.573V8.178q0-1.576 1.467-1.574 1.441 0 1.454 1.561ZM115.942 23.307a1.674 1.674 0 0 0 3.347 0v-2.366a4.2 4.2 0 0 0 2.59.746q3.676-.01 3.677-4.885V8.176q0-4.883-4.8-4.883t-4.814 4.883V23.306m3.346-15.13q0-1.572 1.467-1.573t1.453 1.573v8.626q0 1.576-1.467 1.575c-.96 0-1.446-.522-1.454-1.561ZM140.389 1.689V16.8q0 4.872 4.811 4.883T150 16.8V8.177q0-4.872-3.678-4.883a4.212 4.212 0 0 0-2.588.745V1.674a1.674 1.674 0 1 0-3.347 0v.016m3.345 6.476q.012-1.56 1.454-1.561 1.466 0 1.467 1.573V16.8c0 1.048-.487 1.573-1.455 1.573s-1.466-.525-1.466-1.573ZM137.843 4.925a1.673 1.673 0 0 0-3.346.012v11.866q0 1.574-1.467 1.573t-1.454-1.573V4.937a1.674 1.674 0 0 0-3.342-.012v11.878q0 4.883 4.8 4.882t4.813-4.882V4.925ZM148.452 30.224h1.114v.953h-1.114v3.515h-1.1v-7.4h1.1Zm-3.974 2.4a3.577 3.577 0 0 1-2.145 1.573v-1.014c.854-.387 1.589-1.065 1.589-3.144v-2.656h1.1v2.66c0 2.079.734 2.757 1.587 3.144v1.015a3.638 3.638 0 0 1-2.135-1.573m-8.32-1.748a.805.805 0 0 0 .241.58.837.837 0 0 0 .573.2.816.816 0 0 0 .564-.2.817.817 0 0 0 0-1.161.822.822 0 0 0-.564-.2.844.844 0 0 0-.573.2.806.806 0 0 0-.241.581m-1.1 0a1.6 1.6 0 0 1 .628-1.315 2.11 2.11 0 0 1 1.282-.394 2.083 2.083 0 0 1 1.273.394 1.687 1.687 0 0 1 0 2.629 1.949 1.949 0 0 1-.717.33v.806h.997a1.969 1.969 0 0 0 1.273-.306V27.29h1.1v7.4h-1.1v-.767a2.256 2.256 0 0 1-1.483.364h-3.572v-.96h1.685v-.806a1.8 1.8 0 0 1-.734-.33 1.6 1.6 0 0 1-.628-1.314m2.459-2.951h1.564v.945h-4.216v-.945h1.547v-.853h1.105Zm-5.45 4.959h-4.555v-.951h5.659v2.877h-1.1Zm0-5.6h1.1v4.249h-1.1Zm-2.515.992a1.983 1.983 0 0 0 1.547 2.168v.967a3.325 3.325 0 0 1-2.087-1.144 3.322 3.322 0 0 1-2.1 1.233v-.975a2.086 2.086 0 0 0 1.54-2.249v-.951h1.1Zm-10.32 3.643h6.579v.96h-2.753v1.926h-1.1v-1.923h-2.73Zm.368-4.537h5.836v.959h-2.37c.089 1.137 1.161 1.773 2.435 2v.959a4.885 4.885 0 0 1-2.991-1.426 4.888 4.888 0 0 1-2.993 1.422v-.959c1.265-.226 2.338-.862 2.427-2H119.6Zm-6.383 6.445h3.369v-.612h-3.369Zm3.369-2.329h1.1v3.274h-5.576v-3.275h1.1v.775h3.369Zm-1.047-2.79h1.047V27.29h1.1v3.966h-1.1v-1.6h-1.049Zm-2.241 1.395h.758a4.762 4.762 0 0 0 .081-.919v-.872h-.839Zm1.749.928h-3.54v-.928h.71v-1.791h-.62v-.93h4.257v.934h-.637v.815a3.845 3.845 0 0 1-.113.975h.008a4.411 4.411 0 0 0 1.064-.089v.879a3.733 3.733 0 0 1-1.128.137m-7.691 3.168h-3.373v-6.784h3.644v.965h-2.549v4.861h2.484a2.04 2.04 0 0 0 1.274-.3V27.29h1.1v7.4h-1.1v-.854a2.261 2.261 0 0 1-1.484.362"/></g></symbol><symbol id="E"><g data-name="Group 869"><g clip-path="url(#clip-path)" data-name="Group 868"><path fill="#ce0a49" d="M17.311 1.555a5.3 5.3 0 0 0-7.5 0l-8.6 8.5a4.127 4.127 0 0 0 5.836 5.836l8.6-8.5a2.948 2.948 0 0 0-4.168-4.169l-6.47 6.466a.59.59 0 1 0 .833.835l6.467-6.467a1.769 1.769 0 0 1 2.5 2.5l-8.6 8.5a2.947 2.947 0 0 1-4.169-4.167l8.518-8.417a4.127 4.127 0 0 1 5.836 5.836l-6.382 6.383a.59.59 0 0 0 .834.834l6.465-6.467a5.305 5.305 0 0 0 0-7.5" data-name="Path 3075"/></g></g></symbol><use xlink:href="#a"/><use xlink:href="#b" x="50"/><use xlink:href="#c" y="50"/><use xlink:href="#d" x="50" y="50"/><use xlink:href="#e" y="100"/><use xlink:href="#f" x="50" y="100"/><use xlink:href="#g" y="150"/><use xlink:href="#h" x="50" y="150"/><use xlink:href="#i" y="200"/><use xlink:href="#j" x="50" y="200"/><use xlink:href="#k" y="250"/><use xlink:href="#l" x="50" y="250"/><use xlink:href="#m" y="300"/><use xlink:href="#n" x="50" y="300"/><use xlink:href="#o" y="350"/><use xlink:href="#p" x="50" y="350"/><use xlink:href="#q" y="400"/><use xlink:href="#r" x="50" y="400"/><use xlink:href="#s" x="100"/><use xlink:href="#t" x="150"/><use xlink:href="#u" x="100" y="200"/><use xlink:href="#v" x="100" y="50"/><use xlink:href="#w" x="150" y="50"/><use xlink:href="#x" x="100" y="350"/><use xlink:href="#y" x="100" y="400"/><use xlink:href="#z" x="100" y="100"/><use xlink:href="#A" x="150" y="100"/><use xlink:href="#B" x="100" y="150"/><use xlink:href="#C" x="100" y="250"/><use xlink:href="#D" x="100" y="300"/><use xlink:href="#E" x="150" y="150"/></svg>