<svg xmlns="http://www.w3.org/2000/svg" xmlns:xlink="http://www.w3.org/1999/xlink" width="200" height="500"><symbol id="a"><g fill="#919197" clip-path="url(#a)"><path d="M11 12.1a5.5 5.5 0 1 0-5.5-5.5 5.5 5.5 0 0 0 5.5 5.5m0-9.9a4.4 4.4 0 1 1-4.4 4.4A4.405 4.405 0 0 1 11 2.2M13.2 13.2H8.8a7.7 7.7 0 0 0-7.7 7.7h19.8a7.7 7.7 0 0 0-7.7-7.7M2.292 19.8A6.611 6.611 0 0 1 8.8 14.3h4.4a6.611 6.611 0 0 1 6.509 5.5Z"/></g></symbol><symbol id="b"><g fill="#fff" clip-path="url(#a)"><path d="M11 12.1a5.5 5.5 0 1 0-5.5-5.5 5.5 5.5 0 0 0 5.5 5.5m0-9.9a4.4 4.4 0 1 1-4.4 4.4A4.405 4.405 0 0 1 11 2.2M13.2 13.2H8.8a7.7 7.7 0 0 0-7.7 7.7h19.8a7.7 7.7 0 0 0-7.7-7.7M2.292 19.8A6.611 6.611 0 0 1 8.8 14.3h4.4a6.611 6.611 0 0 1 6.509 5.5Z"/></g></symbol><symbol id="c"><g fill="#919197" clip-path="url(#a)"><path d="M18.758 1.375H3.242A2.142 2.142 0 0 0 1.1 3.517v14.966a2.142 2.142 0 0 0 2.142 2.142h15.516a2.142 2.142 0 0 0 2.142-2.142V3.517a2.142 2.142 0 0 0-2.142-2.142M19.8 18.483a1.043 1.043 0 0 1-1.042 1.042H3.242A1.043 1.043 0 0 1 2.2 18.483V6.875h17.6Zm0-12.708H2.2V3.517a1.043 1.043 0 0 1 1.042-1.042h15.516A1.043 1.043 0 0 1 19.8 3.517Z"/><path d="M4.4 3.59a.55.55 0 1 0 .55.55.55.55 0 0 0-.55-.55M6.05 3.59a.55.55 0 1 0 .55.55.55.55 0 0 0-.55-.55M17.6 3.59a.55.55 0 1 0 .55.55.55.55 0 0 0-.55-.55M8.796 15.722H6.343l-.476 1.6H3.85l2.691-8.247h1.026v.006-.006h1.026l2.7 8.25H9.278Zm-2.011-1.474h1.57l-.771-2.561H7.55ZM11.716 17.325v-8.25h3.02a3.366 3.366 0 0 1 2.437.949 3.239 3.239 0 0 1 .98 2.434v1.484a3.238 3.238 0 0 1-.98 2.437 3.37 3.37 0 0 1-2.437.946Zm1.915-6.777v5.3h1.1a1.311 1.311 0 0 0 1.074-.533 2.148 2.148 0 0 0 .422-1.377v-1.5a2.132 2.132 0 0 0-.422-1.366 1.312 1.312 0 0 0-1.074-.532Z"/></g></symbol><symbol id="d"><g fill="#fff" clip-path="url(#a)"><path d="M18.758 1.375H3.242A2.142 2.142 0 0 0 1.1 3.517v14.966a2.142 2.142 0 0 0 2.142 2.142h15.516a2.142 2.142 0 0 0 2.142-2.142V3.517a2.142 2.142 0 0 0-2.142-2.142M19.8 18.483a1.043 1.043 0 0 1-1.042 1.042H3.242A1.043 1.043 0 0 1 2.2 18.483V6.875h17.6Zm0-12.708H2.2V3.517a1.043 1.043 0 0 1 1.042-1.042h15.516A1.043 1.043 0 0 1 19.8 3.517Z"/><path d="M4.4 3.59a.55.55 0 1 0 .55.55.55.55 0 0 0-.55-.55M6.05 3.59a.55.55 0 1 0 .55.55.55.55 0 0 0-.55-.55M17.6 3.59a.55.55 0 1 0 .55.55.55.55 0 0 0-.55-.55M8.796 15.722H6.343l-.476 1.6H3.85l2.691-8.247h1.026v.006-.006h1.026l2.7 8.25H9.278Zm-2.011-1.474h1.57l-.771-2.561H7.55ZM11.716 17.325v-8.25h3.02a3.366 3.366 0 0 1 2.437.949 3.239 3.239 0 0 1 .98 2.434v1.484a3.238 3.238 0 0 1-.98 2.437 3.37 3.37 0 0 1-2.437.946Zm1.915-6.777v5.3h1.1a1.311 1.311 0 0 0 1.074-.533 2.148 2.148 0 0 0 .422-1.377v-1.5a2.132 2.132 0 0 0-.422-1.366 1.312 1.312 0 0 0-1.074-.532Z"/></g></symbol><symbol id="e"><g fill="#919197" clip-path="url(#a)"><path d="M11 1.1a9.9 9.9 0 1 0 9.9 9.9A9.9 9.9 0 0 0 11 1.1m0 18.7a8.8 8.8 0 1 1 8.8-8.8 8.81 8.81 0 0 1-8.8 8.8"/><path d="M11.822 5.884V4.4h-1.1v1.464a3.474 3.474 0 0 0-2.178.871 2.558 2.558 0 0 0-.8 1.945 2.562 2.562 0 0 0 .774 2.012 7.324 7.324 0 0 0 2.431 1.276 3.043 3.043 0 0 1 1.016.6 1.2 1.2 0 0 1 .267.843 1.1 1.1 0 0 1-.26.766 1.076 1.076 0 0 1-.836.288 1.511 1.511 0 0 1-1.037-.34 1.453 1.453 0 0 1-.385-1.138H7.432l-.014.042a2.757 2.757 0 0 0 .867 2.286 3.945 3.945 0 0 0 2.3.891V17.6h1.1v-1.394a3.4 3.4 0 0 0 2.109-.86 2.568 2.568 0 0 0 .775-1.946 2.682 2.682 0 0 0-.8-2.06 6.348 6.348 0 0 0-2.4-1.263 3.6 3.6 0 0 1-1.024-.641 1.048 1.048 0 0 1-.253-.739 1.225 1.225 0 0 1 .236-.788.975.975 0 0 1 .8-.295 1.088 1.088 0 0 1 .85.333 1.49 1.49 0 0 1 .3 1.026h2.289l.014-.035a2.865 2.865 0 0 0-.721-2.074 3.256 3.256 0 0 0-2.039-.978"/></g></symbol><symbol id="f"><g fill="#fff" clip-path="url(#a)"><path d="M11 1.1a9.9 9.9 0 1 0 9.9 9.9A9.9 9.9 0 0 0 11 1.1m0 18.7a8.8 8.8 0 1 1 8.8-8.8 8.81 8.81 0 0 1-8.8 8.8"/><path d="M11.822 5.884V4.4h-1.1v1.464a3.474 3.474 0 0 0-2.178.871 2.558 2.558 0 0 0-.8 1.945 2.562 2.562 0 0 0 .774 2.012 7.324 7.324 0 0 0 2.431 1.276 3.043 3.043 0 0 1 1.016.6 1.2 1.2 0 0 1 .267.843 1.1 1.1 0 0 1-.26.766 1.076 1.076 0 0 1-.836.288 1.511 1.511 0 0 1-1.037-.34 1.453 1.453 0 0 1-.385-1.138H7.432l-.014.042a2.757 2.757 0 0 0 .867 2.286 3.945 3.945 0 0 0 2.3.891V17.6h1.1v-1.394a3.4 3.4 0 0 0 2.109-.86 2.568 2.568 0 0 0 .775-1.946 2.682 2.682 0 0 0-.8-2.06 6.348 6.348 0 0 0-2.4-1.263 3.6 3.6 0 0 1-1.024-.641 1.048 1.048 0 0 1-.253-.739 1.225 1.225 0 0 1 .236-.788.975.975 0 0 1 .8-.295 1.088 1.088 0 0 1 .85.333 1.49 1.49 0 0 1 .3 1.026h2.289l.014-.035a2.865 2.865 0 0 0-.721-2.074 3.256 3.256 0 0 0-2.039-.978"/></g></symbol><symbol id="g"><g clip-path="url(#a)"><path fill="#919197" d="m20.488 14.679-1.492-1.8a4.536 4.536 0 0 1-1.047-2.895V8.4A7.238 7.238 0 0 0 11.7 1.15a7.5 7.5 0 0 0-.858-.05 7.059 7.059 0 0 0-7.108 7.01v2.256a4.536 4.536 0 0 1-1.046 2.894l-1.175 1.419a1.787 1.787 0 0 0 1.4 2.921h4.281a3.845 3.845 0 0 0 7.612 0h4.277a1.787 1.787 0 0 0 1.4-2.921M11 19.8a2.755 2.755 0 0 1-2.694-2.2h5.389A2.755 2.755 0 0 1 11 19.8m8.733-3.705a.693.693 0 0 1-.651.4H2.917a.692.692 0 0 1-.65-.4.652.652 0 0 1 .092-.714l1.175-1.419a5.652 5.652 0 0 0 1.3-3.6V8.11a5.966 5.966 0 0 1 6.008-5.91 6.475 6.475 0 0 1 .735.042A6.174 6.174 0 0 1 16.849 8.4v1.58a5.649 5.649 0 0 0 1.3 3.6l1.492 1.8a.652.652 0 0 1 .092.714"/></g></symbol><symbol id="h"><g clip-path="url(#a)"><path fill="#fff" d="m20.488 14.679-1.492-1.8a4.536 4.536 0 0 1-1.047-2.895V8.4A7.238 7.238 0 0 0 11.7 1.15a7.5 7.5 0 0 0-.858-.05 7.059 7.059 0 0 0-7.108 7.01v2.256a4.536 4.536 0 0 1-1.046 2.894l-1.175 1.419a1.787 1.787 0 0 0 1.4 2.921h4.281a3.845 3.845 0 0 0 7.612 0h4.277a1.787 1.787 0 0 0 1.4-2.921M11 19.8a2.755 2.755 0 0 1-2.694-2.2h5.389A2.755 2.755 0 0 1 11 19.8m8.733-3.705a.693.693 0 0 1-.651.4H2.917a.692.692 0 0 1-.65-.4.652.652 0 0 1 .092-.714l1.175-1.419a5.652 5.652 0 0 0 1.3-3.6V8.11a5.966 5.966 0 0 1 6.008-5.91 6.475 6.475 0 0 1 .735.042A6.174 6.174 0 0 1 16.849 8.4v1.58a5.649 5.649 0 0 0 1.3 3.6l1.492 1.8a.652.652 0 0 1 .092.714"/></g></symbol><symbol id="i"><g fill="#919197" clip-path="url(#a)"><path d="M11 5.5a3.3 3.3 0 1 0 3.294 3.3A3.3 3.3 0 0 0 11 5.5m0 5.5a2.2 2.2 0 1 1 2.194-2.2 2.2 2.2 0 0 1-2.193 2.2"/><path d="M11 1.1a7.7 7.7 0 0 0-7.72 7.676C3.28 14.544 11 20.9 11 20.9s7.716-6.356 7.716-12.124A7.7 7.7 0 0 0 11 1.1m-.005 18.34c-2.341-2.12-6.614-6.791-6.614-10.664a6.62 6.62 0 0 1 13.24 0c0 4.214-4.8 9-6.625 10.664"/></g></symbol><symbol id="j"><g fill="#fff" clip-path="url(#a)"><path d="M11 5.5a3.3 3.3 0 1 0 3.294 3.3A3.3 3.3 0 0 0 11 5.5m0 5.5a2.2 2.2 0 1 1 2.194-2.2 2.2 2.2 0 0 1-2.193 2.2"/><path d="M11 1.1a7.7 7.7 0 0 0-7.72 7.676C3.28 14.544 11 20.9 11 20.9s7.716-6.356 7.716-12.124A7.7 7.7 0 0 0 11 1.1m-.005 18.34c-2.341-2.12-6.614-6.791-6.614-10.664a6.62 6.62 0 0 1 13.24 0c0 4.214-4.8 9-6.625 10.664"/></g></symbol><symbol id="k"><g fill="#919197" clip-path="url(#a)"><path d="M11 1.1a9.9 9.9 0 1 0 9.9 9.9A9.9 9.9 0 0 0 11 1.1m0 18.7a8.8 8.8 0 1 1 8.8-8.8 8.81 8.81 0 0 1-8.8 8.8"/><path d="M9.441 14.489h2.502V16.5H9.441zM13.712 6.394a4.079 4.079 0 0 0-2.789-.894 4.245 4.245 0 0 0-2.664.778 2.7 2.7 0 0 0-.986 2.327l.014.045h2.451a1.211 1.211 0 0 1 .35-.909 1.191 1.191 0 0 1 .835-.305 1.217 1.217 0 0 1 .953.372 1.442 1.442 0 0 1 .334 1 1.98 1.98 0 0 1-.286 1.065 2.418 2.418 0 0 1-.787.774 5.532 5.532 0 0 0-1.333 1.2 2.758 2.758 0 0 0-.372 1.557h2.518a2.364 2.364 0 0 1 .168-.98 1.7 1.7 0 0 1 .643-.674 3.962 3.962 0 0 0 1.412-1.229 2.9 2.9 0 0 0 .554-1.714 3.05 3.05 0 0 0-1.016-2.412"/></g></symbol><symbol id="l"><g fill="#fff" clip-path="url(#a)"><path d="M11 1.1a9.9 9.9 0 1 0 9.9 9.9A9.9 9.9 0 0 0 11 1.1m0 18.7a8.8 8.8 0 1 1 8.8-8.8 8.81 8.81 0 0 1-8.8 8.8"/><path d="M9.441 14.489h2.502V16.5H9.441zM13.712 6.394a4.079 4.079 0 0 0-2.789-.894 4.245 4.245 0 0 0-2.664.778 2.7 2.7 0 0 0-.986 2.327l.014.045h2.451a1.211 1.211 0 0 1 .35-.909 1.191 1.191 0 0 1 .835-.305 1.217 1.217 0 0 1 .953.372 1.442 1.442 0 0 1 .334 1 1.98 1.98 0 0 1-.286 1.065 2.418 2.418 0 0 1-.787.774 5.532 5.532 0 0 0-1.333 1.2 2.758 2.758 0 0 0-.372 1.557h2.518a2.364 2.364 0 0 1 .168-.98 1.7 1.7 0 0 1 .643-.674 3.962 3.962 0 0 0 1.412-1.229 2.9 2.9 0 0 0 .554-1.714 3.05 3.05 0 0 0-1.016-2.412"/></g></symbol><symbol id="m"><g fill="#919197" clip-path="url(#a)"><path d="M15.4 5.5H6.6a5.5 5.5 0 1 0 0 11h8.8a5.5 5.5 0 0 0 0-11m0 9.9H6.6a4.4 4.4 0 1 1 0-8.8h8.8a4.4 4.4 0 0 1 0 8.8"/><path d="M15.4 7.7a3.3 3.3 0 1 0 3.3 3.3 3.3 3.3 0 0 0-3.3-3.3m0 5.5a2.2 2.2 0 1 1 2.2-2.2 2.2 2.2 0 0 1-2.2 2.2"/></g></symbol><symbol id="n"><g fill="#fff" clip-path="url(#a)"><path d="M15.4 5.5H6.6a5.5 5.5 0 1 0 0 11h8.8a5.5 5.5 0 0 0 0-11m0 9.9H6.6a4.4 4.4 0 1 1 0-8.8h8.8a4.4 4.4 0 0 1 0 8.8"/><path d="M15.4 7.7a3.3 3.3 0 1 0 3.3 3.3 3.3 3.3 0 0 0-3.3-3.3m0 5.5a2.2 2.2 0 1 1 2.2-2.2 2.2 2.2 0 0 1-2.2 2.2"/></g></symbol><symbol id="o"><g fill="#919197" clip-path="url(#a)"><path d="M11 1.1a9.9 9.9 0 1 0 9.9 9.9A9.9 9.9 0 0 0 11 1.1m0 18.7a8.8 8.8 0 1 1 8.8-8.8 8.81 8.81 0 0 1-8.8 8.8"/><path d="M16.775 10.45H11.55V5.225a.825.825 0 0 0-1.65 0v6.05a.825.825 0 0 0 .825.825h6.05a.825.825 0 0 0 0-1.65"/></g></symbol><symbol id="p"><g fill="#fff" clip-path="url(#a)"><path d="M11 1.1a9.9 9.9 0 1 0 9.9 9.9A9.9 9.9 0 0 0 11 1.1m0 18.7a8.8 8.8 0 1 1 8.8-8.8 8.81 8.81 0 0 1-8.8 8.8"/><path d="M16.775 10.45H11.55V5.225a.825.825 0 0 0-1.65 0v6.05a.825.825 0 0 0 .825.825h6.05a.825.825 0 0 0 0-1.65"/></g></symbol><symbol id="q"><g fill="#919197" clip-path="url(#a)"><path d="M11.14 6.127a5.013 5.013 0 1 0 5.013 5.013 5.013 5.013 0 0 0-5.013-5.013m0 8.912a3.9 3.9 0 1 1 3.9-3.9 3.9 3.9 0 0 1-3.9 3.9"/><path d="M20.608 8.914h-1.419a8.271 8.271 0 0 0-.784-1.886l1.009-1.008a.556.556 0 0 0 0-.788l-2.367-2.363a.556.556 0 0 0-.788 0l-1.005 1.005a8.292 8.292 0 0 0-1.886-.784V1.671a.557.557 0 0 0-.554-.557H9.469a.557.557 0 0 0-.557.557V3.09a8.292 8.292 0 0 0-1.886.784L6.02 2.869a.556.556 0 0 0-.788 0L2.869 5.232a.556.556 0 0 0 0 .788l1.005 1.005a8.271 8.271 0 0 0-.784 1.889H1.671a.557.557 0 0 0-.557.555v3.345a.557.557 0 0 0 .557.557H3.09a8.271 8.271 0 0 0 .784 1.883l-1.005 1.005a.556.556 0 0 0 0 .788l2.363 2.367a.556.556 0 0 0 .788 0l1.005-1.005a8.271 8.271 0 0 0 1.886.784v1.419a.557.557 0 0 0 .557.557h3.346a.557.557 0 0 0 .557-.557v-1.423a8.271 8.271 0 0 0 1.886-.784l1.002 1.009a.556.556 0 0 0 .788 0l2.367-2.367a.556.556 0 0 0 0-.788l-1.009-1.005a8.271 8.271 0 0 0 .784-1.886h1.419a.557.557 0 0 0 .557-.557V9.469a.557.557 0 0 0-.557-.557m-.557 3.342h-1.3a.557.557 0 0 0-.544.438 7.169 7.169 0 0 1-.976 2.347.559.559 0 0 0 .075.7l.92.92-1.576 1.576-.92-.92a.558.558 0 0 0-.7-.075 7.169 7.169 0 0 1-2.347.976.557.557 0 0 0-.438.544v1.3h-2.219v-1.3a.557.557 0 0 0-.438-.544 7.169 7.169 0 0 1-2.347-.976.558.558 0 0 0-.7.075l-.92.92-1.571-1.582.92-.92a.558.558 0 0 0 .075-.7 7.169 7.169 0 0 1-.976-2.347.557.557 0 0 0-.544-.438h-1.3v-2.222h1.3a.557.557 0 0 0 .544-.438 7.169 7.169 0 0 1 .976-2.347.558.558 0 0 0-.075-.7l-.92-.92L5.626 4.05l.92.92a.558.558 0 0 0 .7.075 7.158 7.158 0 0 1 2.347-.975.558.558 0 0 0 .438-.544v-1.3h2.223v1.3a.558.558 0 0 0 .438.544 7.158 7.158 0 0 1 2.347.975.558.558 0 0 0 .7-.075l.92-.92 1.576 1.576-.92.92a.559.559 0 0 0-.075.7 7.169 7.169 0 0 1 .976 2.347.557.557 0 0 0 .544.438h1.3Z"/></g></symbol><symbol id="r"><g fill="#fff" clip-path="url(#a)"><path d="M11.14 6.127a5.013 5.013 0 1 0 5.013 5.013 5.013 5.013 0 0 0-5.013-5.013m0 8.912a3.9 3.9 0 1 1 3.9-3.9 3.9 3.9 0 0 1-3.9 3.9"/><path d="M20.608 8.914h-1.419a8.271 8.271 0 0 0-.784-1.886l1.009-1.008a.556.556 0 0 0 0-.788l-2.367-2.363a.556.556 0 0 0-.788 0l-1.005 1.005a8.292 8.292 0 0 0-1.886-.784V1.671a.557.557 0 0 0-.554-.557H9.469a.557.557 0 0 0-.557.557V3.09a8.292 8.292 0 0 0-1.886.784L6.02 2.869a.556.556 0 0 0-.788 0L2.869 5.232a.556.556 0 0 0 0 .788l1.005 1.005a8.271 8.271 0 0 0-.784 1.889H1.671a.557.557 0 0 0-.557.555v3.345a.557.557 0 0 0 .557.557H3.09a8.271 8.271 0 0 0 .784 1.883l-1.005 1.005a.556.556 0 0 0 0 .788l2.363 2.367a.556.556 0 0 0 .788 0l1.005-1.005a8.271 8.271 0 0 0 1.886.784v1.419a.557.557 0 0 0 .557.557h3.346a.557.557 0 0 0 .557-.557v-1.423a8.271 8.271 0 0 0 1.886-.784l1.002 1.009a.556.556 0 0 0 .788 0l2.367-2.367a.556.556 0 0 0 0-.788l-1.009-1.005a8.271 8.271 0 0 0 .784-1.886h1.419a.557.557 0 0 0 .557-.557V9.469a.557.557 0 0 0-.557-.557m-.557 3.342h-1.3a.557.557 0 0 0-.544.438 7.169 7.169 0 0 1-.976 2.347.559.559 0 0 0 .075.7l.92.92-1.576 1.576-.92-.92a.558.558 0 0 0-.7-.075 7.169 7.169 0 0 1-2.347.976.557.557 0 0 0-.438.544v1.3h-2.219v-1.3a.557.557 0 0 0-.438-.544 7.169 7.169 0 0 1-2.347-.976.558.558 0 0 0-.7.075l-.92.92-1.571-1.582.92-.92a.558.558 0 0 0 .075-.7 7.169 7.169 0 0 1-.976-2.347.557.557 0 0 0-.544-.438h-1.3v-2.222h1.3a.557.557 0 0 0 .544-.438 7.169 7.169 0 0 1 .976-2.347.558.558 0 0 0-.075-.7l-.92-.92L5.626 4.05l.92.92a.558.558 0 0 0 .7.075 7.158 7.158 0 0 1 2.347-.975.558.558 0 0 0 .438-.544v-1.3h2.223v1.3a.558.558 0 0 0 .438.544 7.158 7.158 0 0 1 2.347.975.558.558 0 0 0 .7-.075l.92-.92 1.576 1.576-.92.92a.559.559 0 0 0-.075.7 7.169 7.169 0 0 1 .976 2.347.557.557 0 0 0 .544.438h1.3Z"/></g></symbol><symbol id="s"><g clip-path="url(#a)"><path fill="#919197" d="m19.597 6.432-7.7-5.063a1.629 1.629 0 0 0-1.793 0l-7.7 5.063a1.684 1.684 0 0 0-.754 1.407v11.384A1.664 1.664 0 0 0 3.3 20.9h15.4a1.664 1.664 0 0 0 1.65-1.677V7.839a1.684 1.684 0 0 0-.753-1.407M8.25 13.2h5.5v6.6h-5.5Zm11 6.023a.565.565 0 0 1-.55.577h-3.85v-6.6a1.1 1.1 0 0 0-1.1-1.1h-5.5a1.1 1.1 0 0 0-1.1 1.1v6.6H3.3a.565.565 0 0 1-.55-.577V7.839a.58.58 0 0 1 .258-.488l7.7-5.063a.529.529 0 0 1 .584 0l7.7 5.063a.58.58 0 0 1 .258.488Z"/></g></symbol><symbol id="t"><g clip-path="url(#a)"><path fill="#fff" d="m19.597 6.432-7.7-5.063a1.629 1.629 0 0 0-1.793 0l-7.7 5.063a1.684 1.684 0 0 0-.754 1.407v11.384A1.664 1.664 0 0 0 3.3 20.9h15.4a1.664 1.664 0 0 0 1.65-1.677V7.839a1.684 1.684 0 0 0-.753-1.407M8.25 13.2h5.5v6.6h-5.5Zm11 6.023a.565.565 0 0 1-.55.577h-3.85v-6.6a1.1 1.1 0 0 0-1.1-1.1h-5.5a1.1 1.1 0 0 0-1.1 1.1v6.6H3.3a.565.565 0 0 1-.55-.577V7.839a.58.58 0 0 1 .258-.488l7.7-5.063a.529.529 0 0 1 .584 0l7.7 5.063a.58.58 0 0 1 .258.488Z"/></g></symbol><symbol id="u"><g clip-path="url(#a)"><path stroke="#000" stroke-width=".5" d="M1.1 8.874a7.766 7.766 0 0 0 12.863 5.867l6 6a.55.55 0 0 0 .778-.778l-6-6A7.771 7.771 0 1 0 1.1 8.874m1.1 0a6.674 6.674 0 1 1 6.674 6.674A6.682 6.682 0 0 1 2.2 8.874"/></g></symbol><symbol id="v"><g fill="#b30039" clip-path="url(#a)"><path d="m5.626 9.667 4-4.5a.5.5 0 0 1 .747.664L6.669 10l3.7 4.167a.5.5 0 1 1-.747.665l-4-4.5a.5.5 0 0 1 0-.665"/><path d="m9.626 9.667 4-4.5a.5.5 0 0 1 .748.664L10.669 10l3.705 4.167a.5.5 0 1 1-.748.665l-4-4.5a.5.5 0 0 1 0-.665"/></g></symbol><use xlink:href="#a"/><use xlink:href="#b" x="50"/><use xlink:href="#c" y="50"/><use xlink:href="#d" x="50" y="50"/><use xlink:href="#e" y="100"/><use xlink:href="#f" x="50" y="100"/><use xlink:href="#g" y="150"/><use xlink:href="#h" x="50" y="150"/><use xlink:href="#i" y="200"/><use xlink:href="#j" x="50" y="200"/><use xlink:href="#k" y="250"/><use xlink:href="#l" x="50" y="250"/><use xlink:href="#m" y="300"/><use xlink:href="#n" x="50" y="300"/><use xlink:href="#o" y="350"/><use xlink:href="#p" x="50" y="350"/><use xlink:href="#q" y="400"/><use xlink:href="#r" x="50" y="400"/><use xlink:href="#s" x="100"/><use xlink:href="#t" x="150"/><use xlink:href="#u" x="100" y="50"/><use xlink:href="#v" x="150" y="50"/></svg>