<!--
	*
	* 1. 삭제할 가이드 요소를 제거한다.
	- [가이드] svg 태그에 style 코드
	- [가이드] rect 태그
	* 2. SVGOMG 사이트에서 코드 최적화를 한다.
	- SVG 최적화 : https://jakearchibald.github.io/svgomg/
	- 내부 style 삭제되지 않을려면 옵션 inline styles, Minify styles 를 활성 해제를 한다.
	※ 이미지를 반으로 줄였을 때 좌표가 짝수여야 그래픽이 번지지 않는다.
 -->
<svg viewBox="0 0 200 500" width="200" height="500" version="1.1" xmlns="http://www.w3.org/2000/svg" xmlns:xlink="http://www.w3.org/1999/xlink">

	<!-- [menu icon] Customer 001  -->
	<symbol id="svgIcon001">
		<g clip-path="url(#a)"><path d="M15.5,13A5.5,5.5,0,1,0,10,7.5,5.5,5.5,0,0,0,15.5,13m0-9.9a4.4,4.4,0,1,1-4.4,4.4,4.405,4.405,0,0,1,4.4-4.4" transform="translate(-4.5 -0.9)" fill="#919197"/><path d="M14.1,24H9.7A7.7,7.7,0,0,0,2,31.7H21.8A7.7,7.7,0,0,0,14.1,24M3.192,30.6A6.611,6.611,0,0,1,9.7,25.1h4.4a6.611,6.611,0,0,1,6.509,5.5Z" transform="translate(-0.9 -10.8)" fill="#919197"/></g>
	</symbol>
	<symbol id="svgIcon001W">
		<g clip-path="url(#a)"><path d="M15.5,13A5.5,5.5,0,1,0,10,7.5,5.5,5.5,0,0,0,15.5,13m0-9.9a4.4,4.4,0,1,1-4.4,4.4,4.405,4.405,0,0,1,4.4-4.4" transform="translate(-4.5 -0.9)" fill="#fff"/><path d="M14.1,24H9.7A7.7,7.7,0,0,0,2,31.7H21.8A7.7,7.7,0,0,0,14.1,24M3.192,30.6A6.611,6.611,0,0,1,9.7,25.1h4.4a6.611,6.611,0,0,1,6.509,5.5Z" transform="translate(-0.9 -10.8)" fill="#fff"/></g>
	</symbol>
	<!--// [menu icon] Customer 001 -->

	<!-- [menu icon] AD 002  -->
	<symbol id="svgIcon002">
		<g clip-path="url(#a)"><path d="M19.658,2.5H4.142A2.142,2.142,0,0,0,2,4.642V19.608A2.142,2.142,0,0,0,4.142,21.75H19.658A2.142,2.142,0,0,0,21.8,19.608V4.642A2.142,2.142,0,0,0,19.658,2.5M20.7,19.608a1.043,1.043,0,0,1-1.042,1.042H4.142A1.043,1.043,0,0,1,3.1,19.608V8H20.7ZM20.7,6.9H3.1V4.642A1.043,1.043,0,0,1,4.142,3.6H19.658A1.043,1.043,0,0,1,20.7,4.642Z" transform="translate(-0.9 -1.125)" fill="#919197"/><path d="M7.55,6.528a.55.55,0,1,0,.55.55.55.55,0,0,0-.55-.55" transform="translate(-3.15 -2.938)" fill="#919197"/><path d="M10.55,6.528a.55.55,0,1,0,.55.55.55.55,0,0,0-.55-.55" transform="translate(-4.5 -2.938)" fill="#919197"/><path d="M31.55,6.528a.55.55,0,1,0,.55.55.55.55,0,0,0-.55-.55" transform="translate(-13.95 -2.938)" fill="#919197"/><path d="M11.946,23.147H9.493l-.476,1.6H7L9.691,16.5h1.026v.006l0-.006h1.026l2.7,8.25H12.428ZM9.935,21.673h1.57l-.771-2.561H10.7Z" transform="translate(-3.15 -7.425)" fill="#919197"/><path d="M21.3,24.75V16.5h3.02a3.366,3.366,0,0,1,2.437.949,3.239,3.239,0,0,1,.98,2.434v1.484a3.238,3.238,0,0,1-.98,2.437,3.37,3.37,0,0,1-2.437.946Zm1.915-6.777v5.3h1.1a1.311,1.311,0,0,0,1.074-.533,2.148,2.148,0,0,0,.422-1.377v-1.5a2.132,2.132,0,0,0-.422-1.366,1.312,1.312,0,0,0-1.074-.532Z" transform="translate(-9.584 -7.425)" fill="#919197"/></g>
	</symbol>
	<symbol id="svgIcon002W">
		<g clip-path="url(#a)"><path d="M19.658,2.5H4.142A2.142,2.142,0,0,0,2,4.642V19.608A2.142,2.142,0,0,0,4.142,21.75H19.658A2.142,2.142,0,0,0,21.8,19.608V4.642A2.142,2.142,0,0,0,19.658,2.5M20.7,19.608a1.043,1.043,0,0,1-1.042,1.042H4.142A1.043,1.043,0,0,1,3.1,19.608V8H20.7ZM20.7,6.9H3.1V4.642A1.043,1.043,0,0,1,4.142,3.6H19.658A1.043,1.043,0,0,1,20.7,4.642Z" transform="translate(-0.9 -1.125)" fill="#fff"/><path d="M7.55,6.528a.55.55,0,1,0,.55.55.55.55,0,0,0-.55-.55" transform="translate(-3.15 -2.938)" fill="#fff"/><path d="M10.55,6.528a.55.55,0,1,0,.55.55.55.55,0,0,0-.55-.55" transform="translate(-4.5 -2.938)" fill="#fff"/><path d="M31.55,6.528a.55.55,0,1,0,.55.55.55.55,0,0,0-.55-.55" transform="translate(-13.95 -2.938)" fill="#fff"/><path d="M11.946,23.147H9.493l-.476,1.6H7L9.691,16.5h1.026v.006l0-.006h1.026l2.7,8.25H12.428ZM9.935,21.673h1.57l-.771-2.561H10.7Z" transform="translate(-3.15 -7.425)" fill="#fff"/><path d="M21.3,24.75V16.5h3.02a3.366,3.366,0,0,1,2.437.949,3.239,3.239,0,0,1,.98,2.434v1.484a3.238,3.238,0,0,1-.98,2.437,3.37,3.37,0,0,1-2.437.946Zm1.915-6.777v5.3h1.1a1.311,1.311,0,0,0,1.074-.533,2.148,2.148,0,0,0,.422-1.377v-1.5a2.132,2.132,0,0,0-.422-1.366,1.312,1.312,0,0,0-1.074-.532Z" transform="translate(-9.584 -7.425)" fill="#fff"/></g>
	</symbol>
	<!-- //[menu icon] AD 002  -->

	<!-- [menu icon] Money 003  -->
		<symbol id="svgIcon003">
		<g clip-path="url(#a)"><path d="M11.9,2a9.9,9.9,0,1,0,9.9,9.9A9.9,9.9,0,0,0,11.9,2m0,18.7a8.8,8.8,0,1,1,8.8-8.8,8.81,8.81,0,0,1-8.8,8.8" transform="translate(-0.9 -0.9)" fill="#919197"/><path d="M17.89,9.484V8h-1.1V9.464a3.474,3.474,0,0,0-2.178.871,2.558,2.558,0,0,0-.8,1.945,2.562,2.562,0,0,0,.774,2.012,7.324,7.324,0,0,0,2.431,1.276,3.043,3.043,0,0,1,1.016.6,1.2,1.2,0,0,1,.267.843,1.1,1.1,0,0,1-.26.766,1.076,1.076,0,0,1-.836.288,1.511,1.511,0,0,1-1.037-.34,1.453,1.453,0,0,1-.385-1.138H13.5l-.014.042a2.757,2.757,0,0,0,.867,2.286,3.945,3.945,0,0,0,2.3.891V21.2h1.1V19.806a3.4,3.4,0,0,0,2.109-.86A2.568,2.568,0,0,0,20.637,17a2.682,2.682,0,0,0-.8-2.06,6.348,6.348,0,0,0-2.4-1.263,3.6,3.6,0,0,1-1.024-.641,1.048,1.048,0,0,1-.253-.739,1.225,1.225,0,0,1,.236-.788.975.975,0,0,1,.8-.295,1.088,1.088,0,0,1,.85.333,1.49,1.49,0,0,1,.3,1.026h2.289l.014-.035a2.865,2.865,0,0,0-.721-2.074,3.256,3.256,0,0,0-2.039-.978" transform="translate(-6.068 -3.6)" fill="#919197"/></g>
	</symbol>
	<symbol id="svgIcon003W">
		<g clip-path="url(#a)"><path d="M11.9,2a9.9,9.9,0,1,0,9.9,9.9A9.9,9.9,0,0,0,11.9,2m0,18.7a8.8,8.8,0,1,1,8.8-8.8,8.81,8.81,0,0,1-8.8,8.8" transform="translate(-0.9 -0.9)" fill="#fff"/><path d="M17.89,9.484V8h-1.1V9.464a3.474,3.474,0,0,0-2.178.871,2.558,2.558,0,0,0-.8,1.945,2.562,2.562,0,0,0,.774,2.012,7.324,7.324,0,0,0,2.431,1.276,3.043,3.043,0,0,1,1.016.6,1.2,1.2,0,0,1,.267.843,1.1,1.1,0,0,1-.26.766,1.076,1.076,0,0,1-.836.288,1.511,1.511,0,0,1-1.037-.34,1.453,1.453,0,0,1-.385-1.138H13.5l-.014.042a2.757,2.757,0,0,0,.867,2.286,3.945,3.945,0,0,0,2.3.891V21.2h1.1V19.806a3.4,3.4,0,0,0,2.109-.86A2.568,2.568,0,0,0,20.637,17a2.682,2.682,0,0,0-.8-2.06,6.348,6.348,0,0,0-2.4-1.263,3.6,3.6,0,0,1-1.024-.641,1.048,1.048,0,0,1-.253-.739,1.225,1.225,0,0,1,.236-.788.975.975,0,0,1,.8-.295,1.088,1.088,0,0,1,.85.333,1.49,1.49,0,0,1,.3,1.026h2.289l.014-.035a2.865,2.865,0,0,0-.721-2.074,3.256,3.256,0,0,0-2.039-.978" transform="translate(-6.068 -3.6)" fill="#fff"/></g>
	</symbol>
	<!--// [menu icon] Money 003  -->

	<!-- [menu icon] Alarm 004  -->
	<symbol id="svgIcon004">
		<g clip-path="url(#a)"><path d="M21.388,15.579l-1.492-1.8a4.536,4.536,0,0,1-1.047-2.895V9.3A7.238,7.238,0,0,0,12.6,2.05,7.5,7.5,0,0,0,11.742,2,7.059,7.059,0,0,0,4.634,9.01v2.256A4.536,4.536,0,0,1,3.588,14.16L2.413,15.579a1.787,1.787,0,0,0,1.4,2.921H8.094a3.845,3.845,0,0,0,7.612,0h4.277a1.787,1.787,0,0,0,1.4-2.921M11.9,20.7a2.755,2.755,0,0,1-2.694-2.2h5.389A2.755,2.755,0,0,1,11.9,20.7m8.733-3.705a.693.693,0,0,1-.651.4H3.817a.692.692,0,0,1-.65-.4.652.652,0,0,1,.092-.714l1.175-1.419a5.652,5.652,0,0,0,1.3-3.6V9.01A5.966,5.966,0,0,1,11.742,3.1a6.475,6.475,0,0,1,.735.042A6.174,6.174,0,0,1,17.749,9.3v1.58a5.649,5.649,0,0,0,1.3,3.6l1.492,1.8a.652.652,0,0,1,.092.714" transform="translate(-0.9 -0.9)" fill="#919197"/></g>
	</symbol>
	<symbol id="svgIcon004W">
		<g clip-path="url(#a)"><path d="M21.388,15.579l-1.492-1.8a4.536,4.536,0,0,1-1.047-2.895V9.3A7.238,7.238,0,0,0,12.6,2.05,7.5,7.5,0,0,0,11.742,2,7.059,7.059,0,0,0,4.634,9.01v2.256A4.536,4.536,0,0,1,3.588,14.16L2.413,15.579a1.787,1.787,0,0,0,1.4,2.921H8.094a3.845,3.845,0,0,0,7.612,0h4.277a1.787,1.787,0,0,0,1.4-2.921M11.9,20.7a2.755,2.755,0,0,1-2.694-2.2h5.389A2.755,2.755,0,0,1,11.9,20.7m8.733-3.705a.693.693,0,0,1-.651.4H3.817a.692.692,0,0,1-.65-.4.652.652,0,0,1,.092-.714l1.175-1.419a5.652,5.652,0,0,0,1.3-3.6V9.01A5.966,5.966,0,0,1,11.742,3.1a6.475,6.475,0,0,1,.735.042A6.174,6.174,0,0,1,17.749,9.3v1.58a5.649,5.649,0,0,0,1.3,3.6l1.492,1.8a.652.652,0,0,1,.092.714" transform="translate(-0.9 -0.9)" fill="#fff"/></g>
	</symbol>
	<!--// [menu icon] AD 004  -->

	<!-- [menu icon] Location 005  -->
	<symbol id="svgIcon005">
		<g clip-path="url(#a)"><path d="M17.306,10A3.3,3.3,0,1,0,20.6,13.3,3.3,3.3,0,0,0,17.306,10m0,5.5A2.2,2.2,0,1,1,19.5,13.3a2.2,2.2,0,0,1-2.193,2.2" transform="translate(-6.306 -4.5)" fill="#919197"/><path d="M13.684,2a7.7,7.7,0,0,0-7.72,7.676c0,5.768,7.72,12.124,7.72,12.124S21.4,15.444,21.4,9.676A7.7,7.7,0,0,0,13.684,2m-.005,18.34c-2.341-2.12-6.614-6.791-6.614-10.664a6.62,6.62,0,0,1,13.24,0c0,4.214-4.8,9-6.625,10.664" transform="translate(-2.684 -0.9)" fill="#919197"/></g>
	</symbol>
	<symbol id="svgIcon005W">
		<g clip-path="url(#a)"><path d="M17.306,10A3.3,3.3,0,1,0,20.6,13.3,3.3,3.3,0,0,0,17.306,10m0,5.5A2.2,2.2,0,1,1,19.5,13.3a2.2,2.2,0,0,1-2.193,2.2" transform="translate(-6.306 -4.5)" fill="#fff"/><path d="M13.684,2a7.7,7.7,0,0,0-7.72,7.676c0,5.768,7.72,12.124,7.72,12.124S21.4,15.444,21.4,9.676A7.7,7.7,0,0,0,13.684,2m-.005,18.34c-2.341-2.12-6.614-6.791-6.614-10.664a6.62,6.62,0,0,1,13.24,0c0,4.214-4.8,9-6.625,10.664" transform="translate(-2.684 -0.9)" fill="#fff"/></g>
	</symbol>
	<!--// [menu icon] Location 005  -->

	<!-- [menu icon] Inquire 006  -->
	<symbol id="svgIcon006">
		<g clip-path="url(#a)"><path d="M11.9,2a9.9,9.9,0,1,0,9.9,9.9A9.9,9.9,0,0,0,11.9,2m0,18.7a8.8,8.8,0,1,1,8.8-8.8,8.81,8.81,0,0,1-8.8,8.8" transform="translate(-0.9 -0.9)" fill="#919197"/><rect width="2.502" height="2.011" transform="translate(9.441 14.489)" fill="#919197"/><path d="M19.662,10.894A4.079,4.079,0,0,0,16.873,10a4.245,4.245,0,0,0-2.664.778,2.7,2.7,0,0,0-.986,2.327l.014.045h2.451a1.211,1.211,0,0,1,.35-.909,1.191,1.191,0,0,1,.835-.305,1.217,1.217,0,0,1,.953.372,1.442,1.442,0,0,1,.334,1,1.98,1.98,0,0,1-.286,1.065,2.418,2.418,0,0,1-.787.774,5.532,5.532,0,0,0-1.333,1.2,2.758,2.758,0,0,0-.372,1.557H17.9a2.364,2.364,0,0,1,.168-.98,1.7,1.7,0,0,1,.643-.674,3.962,3.962,0,0,0,1.412-1.229,2.9,2.9,0,0,0,.554-1.714,3.05,3.05,0,0,0-1.016-2.412" transform="translate(-5.95 -4.5)" fill="#919197"/></g>
	</symbol>
	<symbol id="svgIcon006W">
		<g clip-path="url(#a)"><path d="M11.9,2a9.9,9.9,0,1,0,9.9,9.9A9.9,9.9,0,0,0,11.9,2m0,18.7a8.8,8.8,0,1,1,8.8-8.8,8.81,8.81,0,0,1-8.8,8.8" transform="translate(-0.9 -0.9)" fill="#fff"/><rect width="2.502" height="2.011" transform="translate(9.441 14.489)" fill="#fff"/><path d="M19.662,10.894A4.079,4.079,0,0,0,16.873,10a4.245,4.245,0,0,0-2.664.778,2.7,2.7,0,0,0-.986,2.327l.014.045h2.451a1.211,1.211,0,0,1,.35-.909,1.191,1.191,0,0,1,.835-.305,1.217,1.217,0,0,1,.953.372,1.442,1.442,0,0,1,.334,1,1.98,1.98,0,0,1-.286,1.065,2.418,2.418,0,0,1-.787.774,5.532,5.532,0,0,0-1.333,1.2,2.758,2.758,0,0,0-.372,1.557H17.9a2.364,2.364,0,0,1,.168-.98,1.7,1.7,0,0,1,.643-.674,3.962,3.962,0,0,0,1.412-1.229,2.9,2.9,0,0,0,.554-1.714,3.05,3.05,0,0,0-1.016-2.412" transform="translate(-5.95 -4.5)" fill="#fff"/></g>
	</symbol>
	<!--// [menu icon] Inquire 006  -->
	<!-- [menu icon] Slide 007  -->
	<symbol id="svgIcon007">
		<g clip-path="url(#a)"><path d="M16.3,10H7.5a5.5,5.5,0,1,0,0,11h8.8a5.5,5.5,0,0,0,0-11m0,9.9H7.5a4.4,4.4,0,1,1,0-8.8h8.8a4.4,4.4,0,0,1,0,8.8" transform="translate(-0.9 -4.5)" fill="#919197"/><path d="M25.3,14a3.3,3.3,0,1,0,3.3,3.3A3.3,3.3,0,0,0,25.3,14m0,5.5a2.2,2.2,0,1,1,2.2-2.2,2.2,2.2,0,0,1-2.2,2.2" transform="translate(-9.9 -6.3)" fill="#919197"/></g>
	</symbol>
	<symbol id="svgIcon007W">
		<g clip-path="url(#a)"><path d="M16.3,10H7.5a5.5,5.5,0,1,0,0,11h8.8a5.5,5.5,0,0,0,0-11m0,9.9H7.5a4.4,4.4,0,1,1,0-8.8h8.8a4.4,4.4,0,0,1,0,8.8" transform="translate(-0.9 -4.5)" fill="#fff"/><path d="M25.3,14a3.3,3.3,0,1,0,3.3,3.3A3.3,3.3,0,0,0,25.3,14m0,5.5a2.2,2.2,0,1,1,2.2-2.2,2.2,2.2,0,0,1-2.2,2.2" transform="translate(-9.9 -6.3)" fill="#fff"/></g>
	</symbol>
	<!--// [menu icon] Slide 007  -->
	<!-- [menu icon] Time 008  -->
	<symbol id="svgIcon008">
		<g clip-path="url(#a)"><path d="M11.9,2a9.9,9.9,0,1,0,9.9,9.9A9.9,9.9,0,0,0,11.9,2m0,18.7a8.8,8.8,0,1,1,8.8-8.8,8.81,8.81,0,0,1-8.8,8.8" transform="translate(-0.9 -0.9)" fill="#919197"/><path d="M24.875,14.05H19.65V8.825a.825.825,0,0,0-1.65,0v6.05a.825.825,0,0,0,.825.825h6.05a.825.825,0,0,0,0-1.65" transform="translate(-8.1 -3.6)" fill="#919197"/></g>
	</symbol>
	<symbol id="svgIcon008W">
		<g clip-path="url(#a)"><path d="M11.9,2a9.9,9.9,0,1,0,9.9,9.9A9.9,9.9,0,0,0,11.9,2m0,18.7a8.8,8.8,0,1,1,8.8-8.8,8.81,8.81,0,0,1-8.8,8.8" transform="translate(-0.9 -0.9)" fill="#fff"/><path d="M24.875,14.05H19.65V8.825a.825.825,0,0,0-1.65,0v6.05a.825.825,0,0,0,.825.825h6.05a.825.825,0,0,0,0-1.65" transform="translate(-8.1 -3.6)" fill="#fff"/></g>
	</symbol>
	<!--// [menu icon] Time 008  -->
	<!-- [menu icon] Setting 009  -->
	<symbol id="svgIcon009">
		<g clip-path="url(#a)"><path d="M16.013,11a5.013,5.013,0,1,0,5.013,5.013A5.013,5.013,0,0,0,16.013,11m0,8.912a3.9,3.9,0,1,1,3.9-3.9,3.9,3.9,0,0,1-3.9,3.9" transform="translate(-4.873 -4.873)" fill="#919197"/><path d="M21.494,9.8H20.075a8.271,8.271,0,0,0-.784-1.886L20.3,6.906a.556.556,0,0,0,0-.788L17.933,3.755a.556.556,0,0,0-.788,0L16.14,4.76a8.292,8.292,0,0,0-1.886-.784V2.557A.557.557,0,0,0,13.7,2H10.355a.557.557,0,0,0-.557.557V3.976a8.292,8.292,0,0,0-1.886.784L6.906,3.755a.556.556,0,0,0-.788,0L3.755,6.118a.556.556,0,0,0,0,.788L4.76,7.911A8.271,8.271,0,0,0,3.976,9.8H2.557A.557.557,0,0,0,2,10.355V13.7a.557.557,0,0,0,.557.557H3.976A8.271,8.271,0,0,0,4.76,16.14L3.755,17.145a.556.556,0,0,0,0,.788L6.118,20.3a.556.556,0,0,0,.788,0l1.005-1.005a8.271,8.271,0,0,0,1.886.784v1.419a.557.557,0,0,0,.557.557H13.7a.557.557,0,0,0,.557-.557V20.075a8.271,8.271,0,0,0,1.886-.784L17.145,20.3a.556.556,0,0,0,.788,0L20.3,17.933a.556.556,0,0,0,0-.788L19.291,16.14a8.271,8.271,0,0,0,.784-1.886h1.419a.557.557,0,0,0,.557-.557V10.355a.557.557,0,0,0-.557-.557m-.557,3.342h-1.3a.557.557,0,0,0-.544.438,7.169,7.169,0,0,1-.976,2.347.559.559,0,0,0,.075.7l.92.92-1.576,1.576-.92-.92a.558.558,0,0,0-.7-.075,7.169,7.169,0,0,1-2.347.976.557.557,0,0,0-.438.544v1.3H10.912v-1.3a.557.557,0,0,0-.438-.544,7.169,7.169,0,0,1-2.347-.976.558.558,0,0,0-.7.075l-.92.92L4.936,17.539l.92-.92a.558.558,0,0,0,.075-.7,7.169,7.169,0,0,1-.976-2.347.557.557,0,0,0-.544-.438h-1.3V10.912h1.3a.557.557,0,0,0,.544-.438,7.169,7.169,0,0,1,.976-2.347.558.558,0,0,0-.075-.7l-.92-.92L6.512,4.936l.92.92a.558.558,0,0,0,.7.075,7.158,7.158,0,0,1,2.347-.975.558.558,0,0,0,.438-.544v-1.3H13.14v1.3a.558.558,0,0,0,.438.544,7.158,7.158,0,0,1,2.347.975.558.558,0,0,0,.7-.075l.92-.92,1.576,1.576-.92.92a.559.559,0,0,0-.075.7,7.169,7.169,0,0,1,.976,2.347.557.557,0,0,0,.544.438h1.3Z" transform="translate(-0.886 -0.886)" fill="#919197"/></g>
	</symbol>
	<symbol id="svgIcon009W">
		<g clip-path="url(#a)"><path d="M16.013,11a5.013,5.013,0,1,0,5.013,5.013A5.013,5.013,0,0,0,16.013,11m0,8.912a3.9,3.9,0,1,1,3.9-3.9,3.9,3.9,0,0,1-3.9,3.9" transform="translate(-4.873 -4.873)" fill="#fff"/><path d="M21.494,9.8H20.075a8.271,8.271,0,0,0-.784-1.886L20.3,6.906a.556.556,0,0,0,0-.788L17.933,3.755a.556.556,0,0,0-.788,0L16.14,4.76a8.292,8.292,0,0,0-1.886-.784V2.557A.557.557,0,0,0,13.7,2H10.355a.557.557,0,0,0-.557.557V3.976a8.292,8.292,0,0,0-1.886.784L6.906,3.755a.556.556,0,0,0-.788,0L3.755,6.118a.556.556,0,0,0,0,.788L4.76,7.911A8.271,8.271,0,0,0,3.976,9.8H2.557A.557.557,0,0,0,2,10.355V13.7a.557.557,0,0,0,.557.557H3.976A8.271,8.271,0,0,0,4.76,16.14L3.755,17.145a.556.556,0,0,0,0,.788L6.118,20.3a.556.556,0,0,0,.788,0l1.005-1.005a8.271,8.271,0,0,0,1.886.784v1.419a.557.557,0,0,0,.557.557H13.7a.557.557,0,0,0,.557-.557V20.075a8.271,8.271,0,0,0,1.886-.784L17.145,20.3a.556.556,0,0,0,.788,0L20.3,17.933a.556.556,0,0,0,0-.788L19.291,16.14a8.271,8.271,0,0,0,.784-1.886h1.419a.557.557,0,0,0,.557-.557V10.355a.557.557,0,0,0-.557-.557m-.557,3.342h-1.3a.557.557,0,0,0-.544.438,7.169,7.169,0,0,1-.976,2.347.559.559,0,0,0,.075.7l.92.92-1.576,1.576-.92-.92a.558.558,0,0,0-.7-.075,7.169,7.169,0,0,1-2.347.976.557.557,0,0,0-.438.544v1.3H10.912v-1.3a.557.557,0,0,0-.438-.544,7.169,7.169,0,0,1-2.347-.976.558.558,0,0,0-.7.075l-.92.92L4.936,17.539l.92-.92a.558.558,0,0,0,.075-.7,7.169,7.169,0,0,1-.976-2.347.557.557,0,0,0-.544-.438h-1.3V10.912h1.3a.557.557,0,0,0,.544-.438,7.169,7.169,0,0,1,.976-2.347.558.558,0,0,0-.075-.7l-.92-.92L6.512,4.936l.92.92a.558.558,0,0,0,.7.075,7.158,7.158,0,0,1,2.347-.975.558.558,0,0,0,.438-.544v-1.3H13.14v1.3a.558.558,0,0,0,.438.544,7.158,7.158,0,0,1,2.347.975.558.558,0,0,0,.7-.075l.92-.92,1.576,1.576-.92.92a.559.559,0,0,0-.075.7,7.169,7.169,0,0,1,.976,2.347.557.557,0,0,0,.544.438h1.3Z" transform="translate(-0.886 -0.886)" fill="#fff"/></g>
	</symbol>
	<!--// [menu icon] Setting 009  -->
	<!-- [menu icon] Home 010  -->
	<symbol id="svgIcon010">
		<g clip-path="url(#a)"><path d="M20.947,7.332l-7.7-5.063a1.629,1.629,0,0,0-1.793,0l-7.7,5.063A1.684,1.684,0,0,0,3,8.739V20.123A1.664,1.664,0,0,0,4.65,21.8h15.4a1.664,1.664,0,0,0,1.65-1.677V8.739a1.684,1.684,0,0,0-.753-1.407M9.6,14.1h5.5v6.6H9.6Zm11,6.023a.565.565,0,0,1-.55.577H16.2V14.1A1.1,1.1,0,0,0,15.1,13H9.6a1.1,1.1,0,0,0-1.1,1.1v6.6H4.65a.565.565,0,0,1-.55-.577V8.739a.58.58,0,0,1,.258-.488l7.7-5.063a.529.529,0,0,1,.584,0l7.7,5.063a.58.58,0,0,1,.258.488Z" transform="translate(-1.35 -0.9)" fill="#919197"/></g>
	</symbol>
	<symbol id="svgIcon010W">
		<g clip-path="url(#a)"><path d="M20.947,7.332l-7.7-5.063a1.629,1.629,0,0,0-1.793,0l-7.7,5.063A1.684,1.684,0,0,0,3,8.739V20.123A1.664,1.664,0,0,0,4.65,21.8h15.4a1.664,1.664,0,0,0,1.65-1.677V8.739a1.684,1.684,0,0,0-.753-1.407M9.6,14.1h5.5v6.6H9.6Zm11,6.023a.565.565,0,0,1-.55.577H16.2V14.1A1.1,1.1,0,0,0,15.1,13H9.6a1.1,1.1,0,0,0-1.1,1.1v6.6H4.65a.565.565,0,0,1-.55-.577V8.739a.58.58,0,0,1,.258-.488l7.7-5.063a.529.529,0,0,1,.584,0l7.7,5.063a.58.58,0,0,1,.258.488Z" transform="translate(-1.35 -0.9)" fill="#fff"/></g>
	</symbol>
	<!-- [menu icon] Home 010  -->

	<!-- [Search icon] 001  -->
	<symbol id="svgIconSearch001">
		<g clip-path="url(#a)"><path d="M2,9.774a7.766,7.766,0,0,0,12.863,5.867l6,6a.55.55,0,0,0,.778-.778l-6-6A7.771,7.771,0,1,0,2,9.774m1.1,0a6.674,6.674,0,1,1,6.674,6.674A6.682,6.682,0,0,1,3.1,9.774" transform="translate(-0.9 -0.9)" stroke="#000" stroke-width="0.5"/></g>
	</symbol>
	<!--// [Search icon] 001  -->

	<symbol id="svgIconArr001">
		<g clip-path="url(#a)"><path d="M11.126,14.667l4-4.5a.5.5,0,0,1,.747.664L12.169,15l3.7,4.167a.5.5,0,1,1-.747.665l-4-4.5a.5.5,0,0,1,0-.665" transform="translate(-5.5 -5)" fill="#b30039"/><path d="M19.126,14.667l4-4.5a.5.5,0,0,1,.748.664L20.169,15l3.705,4.167a.5.5,0,1,1-.748.665l-4-4.5a.5.5,0,0,1,0-.665" transform="translate(-9.5 -5)" fill="#b30039"/></g>
	</symbol>


	<!-- [신규]#svgIcon001 -->
	<use xlink:href="#svgIcon001" x="0" y="0" />
	<use xlink:href="#svgIcon001W" x="50" y="0" />
	<use xlink:href="#svgIcon002" x="0" y="50" />
	<use xlink:href="#svgIcon002W" x="50" y="50" />
	<use xlink:href="#svgIcon003" x="0" y="100" />
	<use xlink:href="#svgIcon003W" x="50" y="100" />
	<use xlink:href="#svgIcon004" x="0" y="150" />
	<use xlink:href="#svgIcon004W" x="50" y="150" />
	<use xlink:href="#svgIcon005" x="0" y="200" />
	<use xlink:href="#svgIcon005W" x="50" y="200" />
	<use xlink:href="#svgIcon006" x="0" y="250" />
	<use xlink:href="#svgIcon006W" x="50" y="250" />
	<use xlink:href="#svgIcon007" x="0" y="300" />
	<use xlink:href="#svgIcon007W" x="50" y="300" />
	<use xlink:href="#svgIcon008" x="0" y="350" />
	<use xlink:href="#svgIcon008W" x="50" y="350" />
	<use xlink:href="#svgIcon009" x="0" y="400" />
	<use xlink:href="#svgIcon009W" x="50" y="400" />

	<use xlink:href="#svgIcon010" x="100" y="0" />
	<use xlink:href="#svgIcon010W" x="150" y="0" />
	<use xlink:href="#svgIconSearch001" x="100" y="50" />
	<use xlink:href="#svgIconArr001" x="150" y="50" />
</svg>