<!--
	*
	* 1. 삭제할 가이드 요소를 제거한다.
	- [가이드] svg 태그에 style 코드
	- [가이드] rect 태그
	* 2. SVGOMG 사이트에서 코드 최적화를 한다.
	- SVG 최적화 : https://jakearchibald.github.io/svgomg/
	- 내부 style 삭제되지 않을려면 옵션 inline styles, Minify styles 를 활성 해제를 한다.
	※ 이미지를 반으로 줄였을 때 좌표가 짝수여야 그래픽이 번지지 않는다.
 -->
<svg viewBox="0 0 400 500" width="400" height="500" version="1.1" xmlns="http://www.w3.org/2000/svg" xmlns:xlink="http://www.w3.org/1999/xlink" style="transform:scale(2);transform-origin: 0 0;"><!-- [가이드] svg 태그에 스타일 태그를 제거한다. -->
	<!-- [가이드] 코드 Minify 시 제거 -->
	<rect x="0" y="0" width="200" height="500" fill="#5399a5" />
	<rect x="50" y="0" width="50" height="500" fill="#ffa07a" />
	<rect x="150" y="0" width="50" height="500" fill="#ffa07a" />
	<rect x="0" y="50" width="200" height="50" fill="#ffa07a" />
	<rect x="0" y="150" width="200" height="50" fill="#ffa07a" />
	<rect x="0" y="250" width="200" height="50" fill="#ffa07a" />
	<rect x="0" y="350" width="200" height="50" fill="#ffa07a" />
	<rect x="0" y="450" width="200" height="50" fill="#ffa07a" />

	<!-- [menu icon] Customer 001  -->
	<symbol id="svgIcon001">
		<g clip-path="url(#a)"><path d="M15.5,13A5.5,5.5,0,1,0,10,7.5,5.5,5.5,0,0,0,15.5,13m0-9.9a4.4,4.4,0,1,1-4.4,4.4,4.405,4.405,0,0,1,4.4-4.4" transform="translate(-4.5 -0.9)" fill="#919197"/><path d="M14.1,24H9.7A7.7,7.7,0,0,0,2,31.7H21.8A7.7,7.7,0,0,0,14.1,24M3.192,30.6A6.611,6.611,0,0,1,9.7,25.1h4.4a6.611,6.611,0,0,1,6.509,5.5Z" transform="translate(-0.9 -10.8)" fill="#919197"/></g>
	</symbol>
	<symbol id="svgIcon001W">
		<g clip-path="url(#a)"><path d="M15.5,13A5.5,5.5,0,1,0,10,7.5,5.5,5.5,0,0,0,15.5,13m0-9.9a4.4,4.4,0,1,1-4.4,4.4,4.405,4.405,0,0,1,4.4-4.4" transform="translate(-4.5 -0.9)" fill="#fff"/><path d="M14.1,24H9.7A7.7,7.7,0,0,0,2,31.7H21.8A7.7,7.7,0,0,0,14.1,24M3.192,30.6A6.611,6.611,0,0,1,9.7,25.1h4.4a6.611,6.611,0,0,1,6.509,5.5Z" transform="translate(-0.9 -10.8)" fill="#fff"/></g>
	</symbol>
	<!--// [menu icon] Customer 001 -->

	<!-- [menu icon] AD 002  -->
	<symbol id="svgIcon002">
		<g clip-path="url(#a)"><path d="M19.658,2.5H4.142A2.142,2.142,0,0,0,2,4.642V19.608A2.142,2.142,0,0,0,4.142,21.75H19.658A2.142,2.142,0,0,0,21.8,19.608V4.642A2.142,2.142,0,0,0,19.658,2.5M20.7,19.608a1.043,1.043,0,0,1-1.042,1.042H4.142A1.043,1.043,0,0,1,3.1,19.608V8H20.7ZM20.7,6.9H3.1V4.642A1.043,1.043,0,0,1,4.142,3.6H19.658A1.043,1.043,0,0,1,20.7,4.642Z" transform="translate(-0.9 -1.125)" fill="#919197"/><path d="M7.55,6.528a.55.55,0,1,0,.55.55.55.55,0,0,0-.55-.55" transform="translate(-3.15 -2.938)" fill="#919197"/><path d="M10.55,6.528a.55.55,0,1,0,.55.55.55.55,0,0,0-.55-.55" transform="translate(-4.5 -2.938)" fill="#919197"/><path d="M31.55,6.528a.55.55,0,1,0,.55.55.55.55,0,0,0-.55-.55" transform="translate(-13.95 -2.938)" fill="#919197"/><path d="M11.946,23.147H9.493l-.476,1.6H7L9.691,16.5h1.026v.006l0-.006h1.026l2.7,8.25H12.428ZM9.935,21.673h1.57l-.771-2.561H10.7Z" transform="translate(-3.15 -7.425)" fill="#919197"/><path d="M21.3,24.75V16.5h3.02a3.366,3.366,0,0,1,2.437.949,3.239,3.239,0,0,1,.98,2.434v1.484a3.238,3.238,0,0,1-.98,2.437,3.37,3.37,0,0,1-2.437.946Zm1.915-6.777v5.3h1.1a1.311,1.311,0,0,0,1.074-.533,2.148,2.148,0,0,0,.422-1.377v-1.5a2.132,2.132,0,0,0-.422-1.366,1.312,1.312,0,0,0-1.074-.532Z" transform="translate(-9.584 -7.425)" fill="#919197"/></g>
	</symbol>
	<symbol id="svgIcon002W">
		<g clip-path="url(#a)"><path d="M19.658,2.5H4.142A2.142,2.142,0,0,0,2,4.642V19.608A2.142,2.142,0,0,0,4.142,21.75H19.658A2.142,2.142,0,0,0,21.8,19.608V4.642A2.142,2.142,0,0,0,19.658,2.5M20.7,19.608a1.043,1.043,0,0,1-1.042,1.042H4.142A1.043,1.043,0,0,1,3.1,19.608V8H20.7ZM20.7,6.9H3.1V4.642A1.043,1.043,0,0,1,4.142,3.6H19.658A1.043,1.043,0,0,1,20.7,4.642Z" transform="translate(-0.9 -1.125)" fill="#fff"/><path d="M7.55,6.528a.55.55,0,1,0,.55.55.55.55,0,0,0-.55-.55" transform="translate(-3.15 -2.938)" fill="#fff"/><path d="M10.55,6.528a.55.55,0,1,0,.55.55.55.55,0,0,0-.55-.55" transform="translate(-4.5 -2.938)" fill="#fff"/><path d="M31.55,6.528a.55.55,0,1,0,.55.55.55.55,0,0,0-.55-.55" transform="translate(-13.95 -2.938)" fill="#fff"/><path d="M11.946,23.147H9.493l-.476,1.6H7L9.691,16.5h1.026v.006l0-.006h1.026l2.7,8.25H12.428ZM9.935,21.673h1.57l-.771-2.561H10.7Z" transform="translate(-3.15 -7.425)" fill="#fff"/><path d="M21.3,24.75V16.5h3.02a3.366,3.366,0,0,1,2.437.949,3.239,3.239,0,0,1,.98,2.434v1.484a3.238,3.238,0,0,1-.98,2.437,3.37,3.37,0,0,1-2.437.946Zm1.915-6.777v5.3h1.1a1.311,1.311,0,0,0,1.074-.533,2.148,2.148,0,0,0,.422-1.377v-1.5a2.132,2.132,0,0,0-.422-1.366,1.312,1.312,0,0,0-1.074-.532Z" transform="translate(-9.584 -7.425)" fill="#fff"/></g>
	</symbol>
	<!-- //[menu icon] AD 002  -->

	<!-- [menu icon] Money 003  -->
		<symbol id="svgIcon003">
		<g clip-path="url(#a)"><path d="M11.9,2a9.9,9.9,0,1,0,9.9,9.9A9.9,9.9,0,0,0,11.9,2m0,18.7a8.8,8.8,0,1,1,8.8-8.8,8.81,8.81,0,0,1-8.8,8.8" transform="translate(-0.9 -0.9)" fill="#919197"/><path d="M17.89,9.484V8h-1.1V9.464a3.474,3.474,0,0,0-2.178.871,2.558,2.558,0,0,0-.8,1.945,2.562,2.562,0,0,0,.774,2.012,7.324,7.324,0,0,0,2.431,1.276,3.043,3.043,0,0,1,1.016.6,1.2,1.2,0,0,1,.267.843,1.1,1.1,0,0,1-.26.766,1.076,1.076,0,0,1-.836.288,1.511,1.511,0,0,1-1.037-.34,1.453,1.453,0,0,1-.385-1.138H13.5l-.014.042a2.757,2.757,0,0,0,.867,2.286,3.945,3.945,0,0,0,2.3.891V21.2h1.1V19.806a3.4,3.4,0,0,0,2.109-.86A2.568,2.568,0,0,0,20.637,17a2.682,2.682,0,0,0-.8-2.06,6.348,6.348,0,0,0-2.4-1.263,3.6,3.6,0,0,1-1.024-.641,1.048,1.048,0,0,1-.253-.739,1.225,1.225,0,0,1,.236-.788.975.975,0,0,1,.8-.295,1.088,1.088,0,0,1,.85.333,1.49,1.49,0,0,1,.3,1.026h2.289l.014-.035a2.865,2.865,0,0,0-.721-2.074,3.256,3.256,0,0,0-2.039-.978" transform="translate(-6.068 -3.6)" fill="#919197"/></g>
	</symbol>
	<symbol id="svgIcon003W">
		<g clip-path="url(#a)"><path d="M11.9,2a9.9,9.9,0,1,0,9.9,9.9A9.9,9.9,0,0,0,11.9,2m0,18.7a8.8,8.8,0,1,1,8.8-8.8,8.81,8.81,0,0,1-8.8,8.8" transform="translate(-0.9 -0.9)" fill="#fff"/><path d="M17.89,9.484V8h-1.1V9.464a3.474,3.474,0,0,0-2.178.871,2.558,2.558,0,0,0-.8,1.945,2.562,2.562,0,0,0,.774,2.012,7.324,7.324,0,0,0,2.431,1.276,3.043,3.043,0,0,1,1.016.6,1.2,1.2,0,0,1,.267.843,1.1,1.1,0,0,1-.26.766,1.076,1.076,0,0,1-.836.288,1.511,1.511,0,0,1-1.037-.34,1.453,1.453,0,0,1-.385-1.138H13.5l-.014.042a2.757,2.757,0,0,0,.867,2.286,3.945,3.945,0,0,0,2.3.891V21.2h1.1V19.806a3.4,3.4,0,0,0,2.109-.86A2.568,2.568,0,0,0,20.637,17a2.682,2.682,0,0,0-.8-2.06,6.348,6.348,0,0,0-2.4-1.263,3.6,3.6,0,0,1-1.024-.641,1.048,1.048,0,0,1-.253-.739,1.225,1.225,0,0,1,.236-.788.975.975,0,0,1,.8-.295,1.088,1.088,0,0,1,.85.333,1.49,1.49,0,0,1,.3,1.026h2.289l.014-.035a2.865,2.865,0,0,0-.721-2.074,3.256,3.256,0,0,0-2.039-.978" transform="translate(-6.068 -3.6)" fill="#fff"/></g>
	</symbol>
	<!--// [menu icon] Money 003  -->

	<!-- [menu icon] Alarm 004  -->
	<symbol id="svgIcon004">
		<g clip-path="url(#a)"><path d="M21.388,15.579l-1.492-1.8a4.536,4.536,0,0,1-1.047-2.895V9.3A7.238,7.238,0,0,0,12.6,2.05,7.5,7.5,0,0,0,11.742,2,7.059,7.059,0,0,0,4.634,9.01v2.256A4.536,4.536,0,0,1,3.588,14.16L2.413,15.579a1.787,1.787,0,0,0,1.4,2.921H8.094a3.845,3.845,0,0,0,7.612,0h4.277a1.787,1.787,0,0,0,1.4-2.921M11.9,20.7a2.755,2.755,0,0,1-2.694-2.2h5.389A2.755,2.755,0,0,1,11.9,20.7m8.733-3.705a.693.693,0,0,1-.651.4H3.817a.692.692,0,0,1-.65-.4.652.652,0,0,1,.092-.714l1.175-1.419a5.652,5.652,0,0,0,1.3-3.6V9.01A5.966,5.966,0,0,1,11.742,3.1a6.475,6.475,0,0,1,.735.042A6.174,6.174,0,0,1,17.749,9.3v1.58a5.649,5.649,0,0,0,1.3,3.6l1.492,1.8a.652.652,0,0,1,.092.714" transform="translate(-0.9 -0.9)" fill="#919197"/></g>
	</symbol>
	<symbol id="svgIcon004W">
		<g clip-path="url(#a)"><path d="M21.388,15.579l-1.492-1.8a4.536,4.536,0,0,1-1.047-2.895V9.3A7.238,7.238,0,0,0,12.6,2.05,7.5,7.5,0,0,0,11.742,2,7.059,7.059,0,0,0,4.634,9.01v2.256A4.536,4.536,0,0,1,3.588,14.16L2.413,15.579a1.787,1.787,0,0,0,1.4,2.921H8.094a3.845,3.845,0,0,0,7.612,0h4.277a1.787,1.787,0,0,0,1.4-2.921M11.9,20.7a2.755,2.755,0,0,1-2.694-2.2h5.389A2.755,2.755,0,0,1,11.9,20.7m8.733-3.705a.693.693,0,0,1-.651.4H3.817a.692.692,0,0,1-.65-.4.652.652,0,0,1,.092-.714l1.175-1.419a5.652,5.652,0,0,0,1.3-3.6V9.01A5.966,5.966,0,0,1,11.742,3.1a6.475,6.475,0,0,1,.735.042A6.174,6.174,0,0,1,17.749,9.3v1.58a5.649,5.649,0,0,0,1.3,3.6l1.492,1.8a.652.652,0,0,1,.092.714" transform="translate(-0.9 -0.9)" fill="#fff"/></g>
	</symbol>
	<!--// [menu icon] AD 004  -->

	<!-- [menu icon] Location 005  -->
	<symbol id="svgIcon005">
		<g clip-path="url(#a)"><path d="M17.306,10A3.3,3.3,0,1,0,20.6,13.3,3.3,3.3,0,0,0,17.306,10m0,5.5A2.2,2.2,0,1,1,19.5,13.3a2.2,2.2,0,0,1-2.193,2.2" transform="translate(-6.306 -4.5)" fill="#919197"/><path d="M13.684,2a7.7,7.7,0,0,0-7.72,7.676c0,5.768,7.72,12.124,7.72,12.124S21.4,15.444,21.4,9.676A7.7,7.7,0,0,0,13.684,2m-.005,18.34c-2.341-2.12-6.614-6.791-6.614-10.664a6.62,6.62,0,0,1,13.24,0c0,4.214-4.8,9-6.625,10.664" transform="translate(-2.684 -0.9)" fill="#919197"/></g>
	</symbol>
	<symbol id="svgIcon005W">
		<g clip-path="url(#a)"><path d="M17.306,10A3.3,3.3,0,1,0,20.6,13.3,3.3,3.3,0,0,0,17.306,10m0,5.5A2.2,2.2,0,1,1,19.5,13.3a2.2,2.2,0,0,1-2.193,2.2" transform="translate(-6.306 -4.5)" fill="#fff"/><path d="M13.684,2a7.7,7.7,0,0,0-7.72,7.676c0,5.768,7.72,12.124,7.72,12.124S21.4,15.444,21.4,9.676A7.7,7.7,0,0,0,13.684,2m-.005,18.34c-2.341-2.12-6.614-6.791-6.614-10.664a6.62,6.62,0,0,1,13.24,0c0,4.214-4.8,9-6.625,10.664" transform="translate(-2.684 -0.9)" fill="#fff"/></g>
	</symbol>
	<!--// [menu icon] Location 005  -->

	<!-- [menu icon] Inquire 006  -->
	<symbol id="svgIcon006">
		<g clip-path="url(#a)"><path d="M11.9,2a9.9,9.9,0,1,0,9.9,9.9A9.9,9.9,0,0,0,11.9,2m0,18.7a8.8,8.8,0,1,1,8.8-8.8,8.81,8.81,0,0,1-8.8,8.8" transform="translate(-0.9 -0.9)" fill="#919197"/><rect width="2.502" height="2.011" transform="translate(9.441 14.489)" fill="#919197"/><path d="M19.662,10.894A4.079,4.079,0,0,0,16.873,10a4.245,4.245,0,0,0-2.664.778,2.7,2.7,0,0,0-.986,2.327l.014.045h2.451a1.211,1.211,0,0,1,.35-.909,1.191,1.191,0,0,1,.835-.305,1.217,1.217,0,0,1,.953.372,1.442,1.442,0,0,1,.334,1,1.98,1.98,0,0,1-.286,1.065,2.418,2.418,0,0,1-.787.774,5.532,5.532,0,0,0-1.333,1.2,2.758,2.758,0,0,0-.372,1.557H17.9a2.364,2.364,0,0,1,.168-.98,1.7,1.7,0,0,1,.643-.674,3.962,3.962,0,0,0,1.412-1.229,2.9,2.9,0,0,0,.554-1.714,3.05,3.05,0,0,0-1.016-2.412" transform="translate(-5.95 -4.5)" fill="#919197"/></g>
	</symbol>
	<symbol id="svgIcon006W">
		<g clip-path="url(#a)"><path d="M11.9,2a9.9,9.9,0,1,0,9.9,9.9A9.9,9.9,0,0,0,11.9,2m0,18.7a8.8,8.8,0,1,1,8.8-8.8,8.81,8.81,0,0,1-8.8,8.8" transform="translate(-0.9 -0.9)" fill="#fff"/><rect width="2.502" height="2.011" transform="translate(9.441 14.489)" fill="#fff"/><path d="M19.662,10.894A4.079,4.079,0,0,0,16.873,10a4.245,4.245,0,0,0-2.664.778,2.7,2.7,0,0,0-.986,2.327l.014.045h2.451a1.211,1.211,0,0,1,.35-.909,1.191,1.191,0,0,1,.835-.305,1.217,1.217,0,0,1,.953.372,1.442,1.442,0,0,1,.334,1,1.98,1.98,0,0,1-.286,1.065,2.418,2.418,0,0,1-.787.774,5.532,5.532,0,0,0-1.333,1.2,2.758,2.758,0,0,0-.372,1.557H17.9a2.364,2.364,0,0,1,.168-.98,1.7,1.7,0,0,1,.643-.674,3.962,3.962,0,0,0,1.412-1.229,2.9,2.9,0,0,0,.554-1.714,3.05,3.05,0,0,0-1.016-2.412" transform="translate(-5.95 -4.5)" fill="#fff"/></g>
	</symbol>
	<!--// [menu icon] Inquire 006  -->
	<!-- [menu icon] Slide 007  -->
	<symbol id="svgIcon007">
		<g clip-path="url(#a)"><path d="M16.3,10H7.5a5.5,5.5,0,1,0,0,11h8.8a5.5,5.5,0,0,0,0-11m0,9.9H7.5a4.4,4.4,0,1,1,0-8.8h8.8a4.4,4.4,0,0,1,0,8.8" transform="translate(-0.9 -4.5)" fill="#919197"/><path d="M25.3,14a3.3,3.3,0,1,0,3.3,3.3A3.3,3.3,0,0,0,25.3,14m0,5.5a2.2,2.2,0,1,1,2.2-2.2,2.2,2.2,0,0,1-2.2,2.2" transform="translate(-9.9 -6.3)" fill="#919197"/></g>
	</symbol>
	<symbol id="svgIcon007W">
		<g clip-path="url(#a)"><path d="M16.3,10H7.5a5.5,5.5,0,1,0,0,11h8.8a5.5,5.5,0,0,0,0-11m0,9.9H7.5a4.4,4.4,0,1,1,0-8.8h8.8a4.4,4.4,0,0,1,0,8.8" transform="translate(-0.9 -4.5)" fill="#fff"/><path d="M25.3,14a3.3,3.3,0,1,0,3.3,3.3A3.3,3.3,0,0,0,25.3,14m0,5.5a2.2,2.2,0,1,1,2.2-2.2,2.2,2.2,0,0,1-2.2,2.2" transform="translate(-9.9 -6.3)" fill="#fff"/></g>
	</symbol>
	<!--// [menu icon] Slide 007  -->
	<!-- [menu icon] Time 008  -->
	<symbol id="svgIcon008">
		<g clip-path="url(#a)"><path d="M11.9,2a9.9,9.9,0,1,0,9.9,9.9A9.9,9.9,0,0,0,11.9,2m0,18.7a8.8,8.8,0,1,1,8.8-8.8,8.81,8.81,0,0,1-8.8,8.8" transform="translate(-0.9 -0.9)" fill="#919197"/><path d="M24.875,14.05H19.65V8.825a.825.825,0,0,0-1.65,0v6.05a.825.825,0,0,0,.825.825h6.05a.825.825,0,0,0,0-1.65" transform="translate(-8.1 -3.6)" fill="#919197"/></g>
	</symbol>
	<symbol id="svgIcon008W">
		<g clip-path="url(#a)"><path d="M11.9,2a9.9,9.9,0,1,0,9.9,9.9A9.9,9.9,0,0,0,11.9,2m0,18.7a8.8,8.8,0,1,1,8.8-8.8,8.81,8.81,0,0,1-8.8,8.8" transform="translate(-0.9 -0.9)" fill="#fff"/><path d="M24.875,14.05H19.65V8.825a.825.825,0,0,0-1.65,0v6.05a.825.825,0,0,0,.825.825h6.05a.825.825,0,0,0,0-1.65" transform="translate(-8.1 -3.6)" fill="#fff"/></g>
	</symbol>
	<!--// [menu icon] Time 008  -->
	<!-- [menu icon] Setting 009  -->
	<symbol id="svgIcon009">
		<g clip-path="url(#a)"><path d="M16.013,11a5.013,5.013,0,1,0,5.013,5.013A5.013,5.013,0,0,0,16.013,11m0,8.912a3.9,3.9,0,1,1,3.9-3.9,3.9,3.9,0,0,1-3.9,3.9" transform="translate(-4.873 -4.873)" fill="#919197"/><path d="M21.494,9.8H20.075a8.271,8.271,0,0,0-.784-1.886L20.3,6.906a.556.556,0,0,0,0-.788L17.933,3.755a.556.556,0,0,0-.788,0L16.14,4.76a8.292,8.292,0,0,0-1.886-.784V2.557A.557.557,0,0,0,13.7,2H10.355a.557.557,0,0,0-.557.557V3.976a8.292,8.292,0,0,0-1.886.784L6.906,3.755a.556.556,0,0,0-.788,0L3.755,6.118a.556.556,0,0,0,0,.788L4.76,7.911A8.271,8.271,0,0,0,3.976,9.8H2.557A.557.557,0,0,0,2,10.355V13.7a.557.557,0,0,0,.557.557H3.976A8.271,8.271,0,0,0,4.76,16.14L3.755,17.145a.556.556,0,0,0,0,.788L6.118,20.3a.556.556,0,0,0,.788,0l1.005-1.005a8.271,8.271,0,0,0,1.886.784v1.419a.557.557,0,0,0,.557.557H13.7a.557.557,0,0,0,.557-.557V20.075a8.271,8.271,0,0,0,1.886-.784L17.145,20.3a.556.556,0,0,0,.788,0L20.3,17.933a.556.556,0,0,0,0-.788L19.291,16.14a8.271,8.271,0,0,0,.784-1.886h1.419a.557.557,0,0,0,.557-.557V10.355a.557.557,0,0,0-.557-.557m-.557,3.342h-1.3a.557.557,0,0,0-.544.438,7.169,7.169,0,0,1-.976,2.347.559.559,0,0,0,.075.7l.92.92-1.576,1.576-.92-.92a.558.558,0,0,0-.7-.075,7.169,7.169,0,0,1-2.347.976.557.557,0,0,0-.438.544v1.3H10.912v-1.3a.557.557,0,0,0-.438-.544,7.169,7.169,0,0,1-2.347-.976.558.558,0,0,0-.7.075l-.92.92L4.936,17.539l.92-.92a.558.558,0,0,0,.075-.7,7.169,7.169,0,0,1-.976-2.347.557.557,0,0,0-.544-.438h-1.3V10.912h1.3a.557.557,0,0,0,.544-.438,7.169,7.169,0,0,1,.976-2.347.558.558,0,0,0-.075-.7l-.92-.92L6.512,4.936l.92.92a.558.558,0,0,0,.7.075,7.158,7.158,0,0,1,2.347-.975.558.558,0,0,0,.438-.544v-1.3H13.14v1.3a.558.558,0,0,0,.438.544,7.158,7.158,0,0,1,2.347.975.558.558,0,0,0,.7-.075l.92-.92,1.576,1.576-.92.92a.559.559,0,0,0-.075.7,7.169,7.169,0,0,1,.976,2.347.557.557,0,0,0,.544.438h1.3Z" transform="translate(-0.886 -0.886)" fill="#919197"/></g>
	</symbol>
	<symbol id="svgIcon009W">
		<g clip-path="url(#a)"><path d="M16.013,11a5.013,5.013,0,1,0,5.013,5.013A5.013,5.013,0,0,0,16.013,11m0,8.912a3.9,3.9,0,1,1,3.9-3.9,3.9,3.9,0,0,1-3.9,3.9" transform="translate(-4.873 -4.873)" fill="#fff"/><path d="M21.494,9.8H20.075a8.271,8.271,0,0,0-.784-1.886L20.3,6.906a.556.556,0,0,0,0-.788L17.933,3.755a.556.556,0,0,0-.788,0L16.14,4.76a8.292,8.292,0,0,0-1.886-.784V2.557A.557.557,0,0,0,13.7,2H10.355a.557.557,0,0,0-.557.557V3.976a8.292,8.292,0,0,0-1.886.784L6.906,3.755a.556.556,0,0,0-.788,0L3.755,6.118a.556.556,0,0,0,0,.788L4.76,7.911A8.271,8.271,0,0,0,3.976,9.8H2.557A.557.557,0,0,0,2,10.355V13.7a.557.557,0,0,0,.557.557H3.976A8.271,8.271,0,0,0,4.76,16.14L3.755,17.145a.556.556,0,0,0,0,.788L6.118,20.3a.556.556,0,0,0,.788,0l1.005-1.005a8.271,8.271,0,0,0,1.886.784v1.419a.557.557,0,0,0,.557.557H13.7a.557.557,0,0,0,.557-.557V20.075a8.271,8.271,0,0,0,1.886-.784L17.145,20.3a.556.556,0,0,0,.788,0L20.3,17.933a.556.556,0,0,0,0-.788L19.291,16.14a8.271,8.271,0,0,0,.784-1.886h1.419a.557.557,0,0,0,.557-.557V10.355a.557.557,0,0,0-.557-.557m-.557,3.342h-1.3a.557.557,0,0,0-.544.438,7.169,7.169,0,0,1-.976,2.347.559.559,0,0,0,.075.7l.92.92-1.576,1.576-.92-.92a.558.558,0,0,0-.7-.075,7.169,7.169,0,0,1-2.347.976.557.557,0,0,0-.438.544v1.3H10.912v-1.3a.557.557,0,0,0-.438-.544,7.169,7.169,0,0,1-2.347-.976.558.558,0,0,0-.7.075l-.92.92L4.936,17.539l.92-.92a.558.558,0,0,0,.075-.7,7.169,7.169,0,0,1-.976-2.347.557.557,0,0,0-.544-.438h-1.3V10.912h1.3a.557.557,0,0,0,.544-.438,7.169,7.169,0,0,1,.976-2.347.558.558,0,0,0-.075-.7l-.92-.92L6.512,4.936l.92.92a.558.558,0,0,0,.7.075,7.158,7.158,0,0,1,2.347-.975.558.558,0,0,0,.438-.544v-1.3H13.14v1.3a.558.558,0,0,0,.438.544,7.158,7.158,0,0,1,2.347.975.558.558,0,0,0,.7-.075l.92-.92,1.576,1.576-.92.92a.559.559,0,0,0-.075.7,7.169,7.169,0,0,1,.976,2.347.557.557,0,0,0,.544.438h1.3Z" transform="translate(-0.886 -0.886)" fill="#fff"/></g>
	</symbol>
	<!--// [menu icon] Setting 009  -->
	<!-- [menu icon] Home 010  -->
	<symbol id="svgIcon010">
		<g clip-path="url(#a)"><path d="M20.947,7.332l-7.7-5.063a1.629,1.629,0,0,0-1.793,0l-7.7,5.063A1.684,1.684,0,0,0,3,8.739V20.123A1.664,1.664,0,0,0,4.65,21.8h15.4a1.664,1.664,0,0,0,1.65-1.677V8.739a1.684,1.684,0,0,0-.753-1.407M9.6,14.1h5.5v6.6H9.6Zm11,6.023a.565.565,0,0,1-.55.577H16.2V14.1A1.1,1.1,0,0,0,15.1,13H9.6a1.1,1.1,0,0,0-1.1,1.1v6.6H4.65a.565.565,0,0,1-.55-.577V8.739a.58.58,0,0,1,.258-.488l7.7-5.063a.529.529,0,0,1,.584,0l7.7,5.063a.58.58,0,0,1,.258.488Z" transform="translate(-1.35 -0.9)" fill="#919197"/></g>
	</symbol>
	<symbol id="svgIcon010W">
		<g clip-path="url(#a)"><path d="M20.947,7.332l-7.7-5.063a1.629,1.629,0,0,0-1.793,0l-7.7,5.063A1.684,1.684,0,0,0,3,8.739V20.123A1.664,1.664,0,0,0,4.65,21.8h15.4a1.664,1.664,0,0,0,1.65-1.677V8.739a1.684,1.684,0,0,0-.753-1.407M9.6,14.1h5.5v6.6H9.6Zm11,6.023a.565.565,0,0,1-.55.577H16.2V14.1A1.1,1.1,0,0,0,15.1,13H9.6a1.1,1.1,0,0,0-1.1,1.1v6.6H4.65a.565.565,0,0,1-.55-.577V8.739a.58.58,0,0,1,.258-.488l7.7-5.063a.529.529,0,0,1,.584,0l7.7,5.063a.58.58,0,0,1,.258.488Z" transform="translate(-1.35 -0.9)" fill="#fff"/></g>
	</symbol>
	<!-- [menu icon] Home 010  -->

	<!-- [Search icon] 001  -->
	<symbol id="svgIconSearch001">
		<g clip-path="url(#a)"><path d="M2,9.774a7.766,7.766,0,0,0,12.863,5.867l6,6a.55.55,0,0,0,.778-.778l-6-6A7.771,7.771,0,1,0,2,9.774m1.1,0a6.674,6.674,0,1,1,6.674,6.674A6.682,6.682,0,0,1,3.1,9.774" transform="translate(-0.9 -0.9)" stroke="#000" stroke-width="0.5"/></g>
	</symbol>
	<!--// [Search icon] 001  -->

	<!-- [Arrow icon] 001  -->
	<symbol id="svgIconArr001">
		<g clip-path="url(#a)"><path d="M11.126,14.667l4-4.5a.5.5,0,0,1,.747.664L12.169,15l3.7,4.167a.5.5,0,1,1-.747.665l-4-4.5a.5.5,0,0,1,0-.665" transform="translate(-5.5 -5)" fill="#b30039"/><path d="M19.126,14.667l4-4.5a.5.5,0,0,1,.748.664L20.169,15l3.705,4.167a.5.5,0,1,1-.748.665l-4-4.5a.5.5,0,0,1,0-.665" transform="translate(-9.5 -5)" fill="#b30039"/></g>
	</symbol>
	<!--// [Arrow icon] 001  -->

	<!-- [Arrow icon] 002  -->
	<symbol id="svgIconArr002">
	<g clip-path="url(#a)"><path d="M11.126,14.667l4-4.5a.5.5,0,0,1,.747.664L12.169,15l3.7,4.167a.5.5,0,1,1-.747.665l-4-4.5a.5.5,0,0,1,0-.665" transform="translate(-5.5 -5)" fill="#fff"/><path d="M19.126,14.667l4-4.5a.5.5,0,0,1,.748.664L20.169,15l3.705,4.167a.5.5,0,1,1-.748.665l-4-4.5a.5.5,0,0,1,0-.665" transform="translate(-9.5 -5)" fill="#fff"/></g>
	</symbol>
	<!--// [Arrow icon] 002  -->

	<!-- [Arrow icon] 003  -->
	<symbol id="svgIconArr003">
	<path id="다각형_7" data-name="다각형 7" d="M5,0l5,6H0Z" transform="translate(10 6) rotate(180)"/>
	</symbol>
	<!--// [Arrow icon] 003  -->

	<!-- [Arrow icon] 004  -->
	<symbol id="svgIconArr004">
		<path d="M11.1,13.423l3.08-3.3a.4.4,0,0,1,.544-.03.355.355,0,0,1,.032.518L11.9,13.667l2.853,3.056a.355.355,0,0,1-.032.518.4.4,0,0,1-.544-.03l-3.08-3.3a.354.354,0,0,1,0-.487" transform="translate(14.85 17.333) rotate(180)" fill="#c20344"/>
	</symbol>
	<!--// [Arrow icon] 004  -->

	<!-- [Checkbox icon] 001  -->
	<symbol id="svgIconCheck001">
		<path d="M17.2,11.732,12.486,16.45,9.352,13.316a.792.792,0,0,0-1.119,1.119l3.694,3.694a.79.79,0,0,0,1.119,0l5.278-5.278A.791.791,0,1,0,17.2,11.732" transform="translate(-8 -11.501)" fill="#c20344"/>
	</symbol>
	<!--// [Checkbox icon] 001  -->

	<!-- [Checkbox icon] 002  -->
	<symbol id="svgIconCheck002">
		<path d="M17.2,11.732,12.486,16.45,9.352,13.316a.792.792,0,0,0-1.119,1.119l3.694,3.694a.79.79,0,0,0,1.119,0l5.278-5.278A.791.791,0,1,0,17.2,11.732" transform="translate(-8.001 -11.501)" fill="#a1a1a1"/>
	</symbol>
	<!--// [Checkbox icon] 002  -->

	<!-- [Checkbox icon] 003  -->
	<symbol id="svgIconCheck003">
		<g transform="translate(0 0.344)" clip-path="url(#a)"><path d="M12.129.324l-6.216,6.6L1.781,2.54a1,1,0,0,0-1.475,0,1.156,1.156,0,0,0,0,1.567L5.174,9.277a1,1,0,0,0,1.475,0L13.6,1.892a1.157,1.157,0,0,0,0-1.567,1,1,0,0,0-1.474,0" transform="translate(0 0.055)" fill="#ce0a49"/></g>
	</symbol>
	<!--// [Checkbox icon] 003  -->

	<!-- [Logo icon] 001  -->
	<symbol id="svgLogo001">
		<g transform="translate(0 0)"><g transform="translate(0 0)" clip-path="url(#a)"><path d="M20.026,42.136A21.065,21.065,0,0,1,5.237,7.19,21.06,21.06,0,0,1,34.962,5.284l3.827,3.492a3.783,3.783,0,1,1-5.1,5.589l-3.779-3.445a13.5,13.5,0,0,0-18.993,1.265A13.494,13.494,0,1,0,31.185,30.009L53.573,4.72c.036-.041.073-.08.111-.119C57.459.695,65.554-2.848,72.395,3.409a3.783,3.783,0,0,1-5.106,5.584c-3.486-3.189-7.034-.248-8.124.828l-22.3,25.2a21.092,21.092,0,0,1-16.834,7.118" transform="translate(0 0)" fill="#ec6500"/><path d="M79.607.024A21.065,21.065,0,0,1,94.4,34.973a21.064,21.064,0,0,1-29.726,1.906l-3.827-3.492a3.783,3.783,0,1,1,5.1-5.591l3.778,3.447a13.5,13.5,0,0,0,18.994-1.268A13.494,13.494,0,1,0,68.449,12.151L46.06,37.44c-.037.042-.075.082-.111.119-3.774,3.906-11.869,7.451-18.711,1.193a3.784,3.784,0,0,1,5.106-5.586c3.484,3.189,7.034.248,8.124-.827l22.3-25.195A20.908,20.908,0,0,1,77.235.045,21.745,21.745,0,0,1,79.607.024" transform="translate(16.396 0)" fill="#b20034"/><path d="M91.308,2.086a2.085,2.085,0,1,0-4.171,0l0,.02V5.032A5.234,5.234,0,0,0,83.914,4.1q-4.583.015-4.583,6.086V20.937q0,6.085,5.98,6.085,6-.017,6-6.085V2.1h0l0-.018M87.139,20.937q0,1.959-1.828,1.96-1.81,0-1.811-1.96V10.189q0-1.964,1.828-1.961,1.8,0,1.811,1.945Z" transform="translate(50.011 0)" fill="#2e2e2d"/><path d="M88.606,27.454a2.085,2.085,0,1,0,4.171,0l0-.02V24.506A5.235,5.235,0,0,0,96,25.436q4.581-.012,4.581-6.086V8.6q0-6.085-5.98-6.085-6,.017-6,6.085V27.436h0l0,.018M92.775,8.6q0-1.959,1.828-1.96,1.812,0,1.811,1.96V19.349q0,1.964-1.828,1.963c-1.2,0-1.8-.651-1.811-1.945Z" transform="translate(55.858 1.586)" fill="#2e2e2d"/><path d="M107.29,2.1h0V20.938q0,6.07,5.995,6.085,5.98,0,5.982-6.085V10.188q0-6.07-4.583-6.085a5.248,5.248,0,0,0-3.225.928V2.106l0-.021a2.085,2.085,0,1,0-4.171,0l0,.02m4.167,8.069q.015-1.944,1.811-1.945,1.827,0,1.828,1.96V20.938c0,1.306-.607,1.96-1.813,1.96s-1.826-.654-1.826-1.96Z" transform="translate(67.635 0)" fill="#2e2e2d"/><path d="M109.973,4.565a2.084,2.084,0,0,0-4.169.015l0,.02V19.365q0,1.961-1.828,1.96-1.81,0-1.811-1.96V4.6l0-.021A2.085,2.085,0,0,0,98,4.565h0v14.8q0,6.085,5.98,6.083,6-.015,6-6.083V4.565Z" transform="translate(61.779 1.572)" fill="#2e2e2d"/><path d="M134.875,24.616h1.387V25.8h-1.387v4.379H133.5V20.961h1.376Zm-4.952,2.993a4.457,4.457,0,0,1-2.672,1.96V28.3c1.065-.483,1.979-1.327,1.979-3.918V21.072h1.376v3.315c0,2.591.915,3.435,1.978,3.918v1.265a4.534,4.534,0,0,1-2.661-1.96m-10.366-2.178a1,1,0,0,0,.3.722,1.043,1.043,0,0,0,.714.251,1.017,1.017,0,0,0,.7-.251,1.018,1.018,0,0,0,0-1.446,1.024,1.024,0,0,0-.7-.251,1.051,1.051,0,0,0-.714.251,1,1,0,0,0-.3.724m-1.366,0a1.992,1.992,0,0,1,.783-1.639,2.629,2.629,0,0,1,1.6-.491,2.6,2.6,0,0,1,1.586.491,2.1,2.1,0,0,1,0,3.275,2.428,2.428,0,0,1-.893.411v1H122.5a2.454,2.454,0,0,0,1.586-.382V20.961h1.376v9.222h-1.376v-.955a2.811,2.811,0,0,1-1.847.453h-4.451v-1.2h2.1v-1a2.237,2.237,0,0,1-.915-.411,1.991,1.991,0,0,1-.783-1.637m3.054-3.678h1.948V22.93H117.94V21.753h1.927V20.69h1.378Zm-6.791,6.179h-5.675V26.747h7.051v3.585h-1.376Zm0-6.972h1.376v5.294h-1.376ZM111.32,22.2a2.471,2.471,0,0,0,1.927,2.7v1.2a4.142,4.142,0,0,1-2.6-1.425,4.139,4.139,0,0,1-2.622,1.536V25a2.6,2.6,0,0,0,1.919-2.8V21.011h1.376ZM98.461,26.736h8.2v1.2h-3.425v2.4h-1.376v-2.4h-3.4Zm.463-5.664H106.2v1.2h-2.953c.111,1.417,1.446,2.209,3.034,2.491v1.2a6.086,6.086,0,0,1-3.727-1.777,6.091,6.091,0,0,1-3.727,1.777v-1.2c1.577-.282,2.914-1.074,3.024-2.491H98.924Zm-7.956,8.035h4.2v-.763h-4.2Zm4.2-2.9h1.376v4.079h-6.95V26.2h1.376v.965h4.2Zm-1.3-3.476h1.3V20.961h1.376V25.9H95.166V23.913h-1.3Zm-2.793,1.738h.944a5.934,5.934,0,0,0,.1-1.145V22.236H91.069Zm2.18,1.156h-4.41V24.466h.884v-2.23h-.773V21.072h5.3v1.164h-.794v1.016a4.79,4.79,0,0,1-.14,1.215h.01a5.5,5.5,0,0,0,1.326-.111v1.1a4.651,4.651,0,0,1-1.405.171m-9.584,3.947h-4.2V21.12h4.541v1.2H80.832v6.057h3.095A2.542,2.542,0,0,0,85.514,28V20.961H86.89v9.222H85.514V29.118a2.818,2.818,0,0,1-1.849.452" transform="translate(50.097 13.043)" fill="#2e2e2d"/><g transform="translate(122.28 -55.434)"><g transform="translate(0 0)" clip-path="url(#a)"><path d="M20.026,42.136A21.065,21.065,0,0,1,5.237,7.19,21.06,21.06,0,0,1,34.962,5.284l3.827,3.492a3.783,3.783,0,1,1-5.1,5.589l-3.779-3.445a13.5,13.5,0,0,0-18.993,1.265A13.494,13.494,0,1,0,31.185,30.009L53.573,4.72c.036-.041.073-.08.111-.119C57.459.695,65.554-2.848,72.395,3.409a3.783,3.783,0,0,1-5.106,5.584c-3.486-3.189-7.034-.248-8.124.828l-22.3,25.2a21.092,21.092,0,0,1-16.834,7.118" transform="translate(0 0)" fill="#ef7d00"/><path d="M79.607.024A21.065,21.065,0,0,1,94.4,34.973a21.064,21.064,0,0,1-29.726,1.906l-3.827-3.492a3.783,3.783,0,1,1,5.1-5.591l3.778,3.447a13.5,13.5,0,0,0,18.994-1.268A13.494,13.494,0,1,0,68.449,12.151L46.06,37.44c-.037.042-.075.082-.111.119-3.774,3.906-11.869,7.451-18.711,1.193a3.784,3.784,0,0,1,5.106-5.586c3.484,3.189,7.034.248,8.124-.827l22.3-25.195A20.908,20.908,0,0,1,77.235.045,21.745,21.745,0,0,1,79.607.024" transform="translate(16.396 0)" fill="#c20344"/><path d="M91.308,2.086a2.085,2.085,0,1,0-4.171,0l0,.02V5.032A5.234,5.234,0,0,0,83.914,4.1q-4.583.015-4.583,6.086V20.937q0,6.085,5.98,6.085,6-.017,6-6.085V2.1h0l0-.018M87.139,20.937q0,1.959-1.828,1.96-1.81,0-1.811-1.96V10.189q0-1.964,1.828-1.961,1.8,0,1.811,1.945Z" transform="translate(50.011 0)" fill="#3c3c3b"/><path d="M88.606,27.454a2.085,2.085,0,1,0,4.171,0l0-.02V24.506A5.235,5.235,0,0,0,96,25.436q4.581-.012,4.581-6.086V8.6q0-6.085-5.98-6.085-6,.017-6,6.085V27.436h0l0,.018M92.775,8.6q0-1.959,1.828-1.96,1.812,0,1.811,1.96V19.349q0,1.964-1.828,1.963c-1.2,0-1.8-.651-1.811-1.945Z" transform="translate(55.858 1.586)" fill="#3c3c3b"/><path d="M107.29,2.1h0V20.938q0,6.07,5.995,6.085,5.98,0,5.982-6.085V10.188q0-6.07-4.583-6.085a5.248,5.248,0,0,0-3.225.928V2.106l0-.021a2.085,2.085,0,1,0-4.171,0l0,.02m4.167,8.069q.015-1.944,1.811-1.945,1.827,0,1.828,1.96V20.938c0,1.306-.607,1.96-1.813,1.96s-1.826-.654-1.826-1.96Z" transform="translate(67.635 0)" fill="#3c3c3b"/><path d="M109.973,4.565a2.084,2.084,0,0,0-4.169.015l0,.02V19.365q0,1.961-1.828,1.96-1.81,0-1.811-1.96V4.6l0-.021A2.085,2.085,0,0,0,98,4.565h0v14.8q0,6.085,5.98,6.083,6-.015,6-6.083V4.565Z" transform="translate(61.779 1.572)" fill="#3c3c3b"/><path d="M134.875,24.616h1.387V25.8h-1.387v4.379H133.5V20.961h1.376Zm-4.952,2.993a4.457,4.457,0,0,1-2.672,1.96V28.3c1.065-.483,1.979-1.327,1.979-3.918V21.072h1.376v3.315c0,2.591.915,3.435,1.978,3.918v1.265a4.534,4.534,0,0,1-2.661-1.96m-10.366-2.178a1,1,0,0,0,.3.722,1.043,1.043,0,0,0,.714.251,1.017,1.017,0,0,0,.7-.251,1.018,1.018,0,0,0,0-1.446,1.024,1.024,0,0,0-.7-.251,1.051,1.051,0,0,0-.714.251,1,1,0,0,0-.3.724m-1.366,0a1.992,1.992,0,0,1,.783-1.639,2.629,2.629,0,0,1,1.6-.491,2.6,2.6,0,0,1,1.586.491,2.1,2.1,0,0,1,0,3.275,2.428,2.428,0,0,1-.893.411v1H122.5a2.454,2.454,0,0,0,1.586-.382V20.961h1.376v9.222h-1.376v-.955a2.811,2.811,0,0,1-1.847.453h-4.451v-1.2h2.1v-1a2.237,2.237,0,0,1-.915-.411,1.991,1.991,0,0,1-.783-1.637m3.054-3.678h1.948V22.93H117.94V21.753h1.927V20.69h1.378Zm-6.791,6.179h-5.675V26.747h7.051v3.585h-1.376Zm0-6.972h1.376v5.294h-1.376ZM111.32,22.2a2.471,2.471,0,0,0,1.927,2.7v1.2a4.142,4.142,0,0,1-2.6-1.425,4.139,4.139,0,0,1-2.622,1.536V25a2.6,2.6,0,0,0,1.919-2.8V21.011h1.376ZM98.461,26.736h8.2v1.2h-3.425v2.4h-1.376v-2.4h-3.4Zm.463-5.664H106.2v1.2h-2.953c.111,1.417,1.446,2.209,3.034,2.491v1.2a6.086,6.086,0,0,1-3.727-1.777,6.091,6.091,0,0,1-3.727,1.777v-1.2c1.577-.282,2.914-1.074,3.024-2.491H98.924Zm-7.956,8.035h4.2v-.763h-4.2Zm4.2-2.9h1.376v4.079h-6.95V26.2h1.376v.965h4.2Zm-1.3-3.476h1.3V20.961h1.376V25.9H95.166V23.913h-1.3Zm-2.793,1.738h.944a5.934,5.934,0,0,0,.1-1.145V22.236H91.069Zm2.18,1.156h-4.41V24.466h.884v-2.23h-.773V21.072h5.3v1.164h-.794v1.016a4.79,4.79,0,0,1-.14,1.215h.01a5.5,5.5,0,0,0,1.326-.111v1.1a4.651,4.651,0,0,1-1.405.171m-9.584,3.947h-4.2V21.12h4.541v1.2H80.832v6.057h3.095A2.542,2.542,0,0,0,85.514,28V20.961H86.89v9.222H85.514V29.118a2.818,2.818,0,0,1-1.849.452" transform="translate(50.097 13.043)" fill="#3c3c3b"/></g></g></g></g>
	</symbol>
	<!--// [Logo icon] 001  -->

	<!-- [Logo icon] 002  -->
	<symbol id="svgLogo002">
		<g transform="translate(0 0)"><g transform="translate(0 0)" clip-path="url(#a)"><path d="M16.072,33.817A16.906,16.906,0,0,1,4.2,5.771,16.9,16.9,0,0,1,28.06,4.241l3.071,2.8a3.036,3.036,0,1,1-4.092,4.486L24.006,8.764A10.831,10.831,0,0,0,8.763,9.78a10.83,10.83,0,1,0,16.265,14.3L43,3.788c.029-.033.059-.064.089-.1C46.115.557,52.611-2.286,58.1,2.736A3.036,3.036,0,0,1,54,7.218c-2.8-2.559-5.645-.2-6.52.665L29.583,28.1a16.928,16.928,0,0,1-13.51,5.713" transform="translate(0 0)" fill="#ef7d00"/><path d="M69.025.019a16.906,16.906,0,0,1,11.87,28.049A16.906,16.906,0,0,1,57.038,29.6l-3.071-2.8a3.036,3.036,0,1,1,4.092-4.487l3.032,2.766a10.836,10.836,0,0,0,15.244-1.018A10.83,10.83,0,1,0,60.07,9.752L42.1,30.048c-.03.034-.06.065-.089.1-3.029,3.135-9.526,5.98-15.016.958a3.037,3.037,0,0,1,4.1-4.483c2.8,2.559,5.645.2,6.52-.663l17.9-20.22A16.78,16.78,0,0,1,67.121.036a17.452,17.452,0,0,1,1.9-.017" transform="translate(8.024 0)" fill="#b30039"/><path d="M88.943,1.675a1.674,1.674,0,1,0-3.347,0V4.039a4.2,4.2,0,0,0-2.588-.746q-3.678.012-3.678,4.885V16.8q0,4.883,4.8,4.883T88.943,16.8V1.689h0V1.675M85.6,16.8q0,1.572-1.467,1.573T82.677,16.8V8.178q0-1.576,1.467-1.574,1.441,0,1.454,1.561Z" transform="translate(24.475 0)" fill="#fff"/><path d="M88.606,22.531a1.674,1.674,0,0,0,3.347,0V20.165a4.2,4.2,0,0,0,2.59.746q3.676-.01,3.677-4.885V7.4q0-4.883-4.8-4.883T88.606,7.4V22.516h0v.014M91.952,7.4q0-1.572,1.467-1.573T94.872,7.4v8.626q0,1.576-1.467,1.575c-.96,0-1.446-.522-1.454-1.561Z" transform="translate(27.336 0.776)" fill="#fff"/><path d="M107.289,1.689h0V16.8q0,4.872,4.811,4.883t4.8-4.883V8.177q0-4.872-3.678-4.883a4.212,4.212,0,0,0-2.588.745V1.674a1.674,1.674,0,1,0-3.347,0v.016m3.345,6.476q.012-1.56,1.454-1.561,1.466,0,1.467,1.573V16.8c0,1.048-.487,1.573-1.455,1.573s-1.466-.525-1.466-1.573Z" transform="translate(33.1 0)" fill="#fff"/><path d="M107.609,4.156a1.673,1.673,0,0,0-3.346.012V16.034q0,1.574-1.467,1.573t-1.454-1.573V4.185l0-.017A1.674,1.674,0,0,0,98,4.156h0V16.034q0,4.883,4.8,4.882t4.813-4.882V4.156Z" transform="translate(30.234 0.769)" fill="#fff"/><path d="M123.935,23.841h1.114v.953h-1.114v3.515h-1.1v-7.4h1.1Zm-3.974,2.4a3.577,3.577,0,0,1-2.145,1.573V26.8c.854-.387,1.589-1.065,1.589-3.144V21h1.1v2.66c0,2.079.734,2.757,1.587,3.144v1.015a3.638,3.638,0,0,1-2.135-1.573m-8.32-1.748a.805.805,0,0,0,.241.58.837.837,0,0,0,.573.2.816.816,0,0,0,.564-.2.817.817,0,0,0,0-1.161.822.822,0,0,0-.564-.2.844.844,0,0,0-.573.2.806.806,0,0,0-.241.581m-1.1,0a1.6,1.6,0,0,1,.628-1.315,2.11,2.11,0,0,1,1.282-.394,2.083,2.083,0,0,1,1.273.394,1.687,1.687,0,0,1,0,2.629,1.949,1.949,0,0,1-.717.33v.806H114a1.969,1.969,0,0,0,1.273-.306V20.907h1.1v7.4h-1.1v-.767a2.256,2.256,0,0,1-1.483.364h-3.572v-.96h1.685v-.806a1.8,1.8,0,0,1-.734-.33,1.6,1.6,0,0,1-.628-1.314M113,21.543h1.564v.945h-4.216v-.945h1.547V20.69H113Zm-5.45,4.959h-4.555v-.951h5.659v2.877h-1.1Zm0-5.6h1.1v4.249h-1.1Zm-2.515.992a1.983,1.983,0,0,0,1.547,2.168v.967a3.325,3.325,0,0,1-2.087-1.144,3.322,3.322,0,0,1-2.1,1.233v-.975a2.086,2.086,0,0,0,1.54-2.249v-.951h1.1Zm-10.32,3.643h6.579v.96H98.541v1.926h-1.1V26.5H94.711ZM95.083,21h5.836v.959h-2.37c.089,1.137,1.161,1.773,2.435,2v.959a4.885,4.885,0,0,1-2.991-1.426A4.888,4.888,0,0,1,95,24.914v-.959c1.265-.226,2.338-.862,2.427-2H95.083ZM88.7,27.445h3.369v-.612H88.7Zm3.369-2.329h1.1v3.274H87.593V25.115h1.1v.775h3.369Zm-1.047-2.79h1.047V20.907h1.1v3.966h-1.1v-1.6H91.02Zm-2.241,1.395h.758a4.762,4.762,0,0,0,.081-.919V21.93h-.839Zm1.749.928h-3.54v-.928H87.7V21.93h-.62V21h4.257v.934H90.7v.815a3.845,3.845,0,0,1-.113.975h.008a4.411,4.411,0,0,0,1.064-.089v.879a3.733,3.733,0,0,1-1.128.137m-7.691,3.168H79.467V21.035h3.644V22H80.562v4.861h2.484a2.04,2.04,0,0,0,1.274-.3V20.907h1.1v7.4h-1.1v-.854a2.261,2.261,0,0,1-1.484.362" transform="translate(24.517 6.383)" fill="#fff"/></g></g>
	</symbol>
	<!--// [Logo icon] 002  -->


	<!-- [clip icon] 002  -->
	<symbol id="svgclip001">
		<g id="Group_869" data-name="Group 869" transform="translate(0 0)">
			<g id="Group_868" data-name="Group 868" clip-path="url(#clip-path)">
			<path id="Path_3075" data-name="Path 3075" d="M17.311,1.555a5.3,5.3,0,0,0-7.5,0l-8.6,8.5a4.127,4.127,0,0,0,5.836,5.836l8.6-8.5a2.948,2.948,0,0,0-4.168-4.169L5.009,9.688a.59.59,0,1,0,.833.835l6.467-6.467a1.769,1.769,0,0,1,2.5,2.5l-8.6,8.5A2.947,2.947,0,0,1,2.04,10.889l8.518-8.417a4.127,4.127,0,0,1,5.836,5.836l-6.382,6.383a.59.59,0,0,0,.834.834l6.465-6.467a5.305,5.305,0,0,0,0-7.5" fill="#ce0a49"/>
    		</g>
  		</g>
	</symbol>
	<!--// [clip icon] 002  -->







	<!-- [신규]#svgIcon001 -->
	<use xlink:href="#svgIcon001" x="0" y="0" />
	<use xlink:href="#svgIcon001W" x="50" y="0" />
	<use xlink:href="#svgIcon002" x="0" y="50" />
	<use xlink:href="#svgIcon002W" x="50" y="50" />
	<use xlink:href="#svgIcon003" x="0" y="100" />
	<use xlink:href="#svgIcon003W" x="50" y="100" />
	<use xlink:href="#svgIcon004" x="0" y="150" />
	<use xlink:href="#svgIcon004W" x="50" y="150" />
	<use xlink:href="#svgIcon005" x="0" y="200" />
	<use xlink:href="#svgIcon005W" x="50" y="200" />
	<use xlink:href="#svgIcon006" x="0" y="250" />
	<use xlink:href="#svgIcon006W" x="50" y="250" />
	<use xlink:href="#svgIcon007" x="0" y="300" />
	<use xlink:href="#svgIcon007W" x="50" y="300" />
	<use xlink:href="#svgIcon008" x="0" y="350" />
	<use xlink:href="#svgIcon008W" x="50" y="350" />
	<use xlink:href="#svgIcon009" x="0" y="400" />
	<use xlink:href="#svgIcon009W" x="50" y="400" />

	<use xlink:href="#svgIcon010" x="100" y="0" />
	<use xlink:href="#svgIcon010W" x="150" y="0" />
	<use xlink:href="#svgIconSearch001" x="100" y="200" />
	<use xlink:href="#svgIconArr001" x="100" y="50" />
	<use xlink:href="#svgIconArr002" x="150" y="50" />
	<use xlink:href="#svgIconArr003" x="100" y="350" />
	<use xlink:href="#svgIconArr004" x="100" y="400" />


	<use xlink:href="#svgIconCheck001" x="100" y="100" />
	<use xlink:href="#svgIconCheck002" x="150" y="100" />
	<use xlink:href="#svgIconCheck003" x="100" y="150" />

	<use xlink:href="#svgLogo001" x="100" y="250" />
	<use xlink:href="#svgLogo002" x="100" y="300" />

	<use xlink:href="#svgclip001" x="150" y="150" />
</svg>